<svg width="157" height="29" viewBox="0 0 157 29" fill="none" xmlns="http://www.w3.org/2000/svg">
<path d="M0 4.10318V1.56587H14.3373V4.10318H8.51002V27.6665H5.84509V4.10318H0Z" fill="white"/>
<path d="M20.8753 7.36798C23.8482 7.36798 26.3118 8.44442 28.2661 10.5973C30.0427 12.5609 30.931 14.8853 30.931 17.5705C30.931 20.2675 29.9894 22.6274 28.1062 24.6501C26.2348 26.661 23.8245 27.6665 20.8753 27.6665C17.9143 27.6665 15.4921 26.661 13.6089 24.6501C11.7376 22.6274 10.8019 20.2675 10.8019 17.5705C10.8019 14.8971 11.6902 12.5786 13.4668 10.615C15.4211 8.45033 17.8906 7.36798 20.8753 7.36798ZM20.8753 9.79884C18.8144 9.79884 17.0437 10.5618 15.5632 12.0877C14.0827 13.6137 13.3424 15.459 13.3424 17.6237C13.3424 19.0195 13.68 20.3207 14.3551 21.5273C15.0302 22.7338 15.9422 23.6683 17.0911 24.3307C18.24 24.9813 19.5014 25.3066 20.8753 25.3066C22.2492 25.3066 23.5106 24.9813 24.6595 24.3307C25.8084 23.6683 26.7204 22.7338 27.3955 21.5273C28.0706 20.3207 28.4082 19.0195 28.4082 17.6237C28.4082 15.459 27.662 13.6137 26.1696 12.0877C24.6891 10.5618 22.9244 9.79884 20.8753 9.79884Z" fill="white"/>
<path d="M29.5918 8.36162H32.1501L38.0663 22.379L44.2667 8.36162H44.7108L50.8935 22.379L56.9162 8.36162H59.5101L51.1244 27.6665H50.6448L44.4976 13.8443L38.2972 27.6665H37.8353L29.5918 8.36162Z" fill="white"/>
<path d="M75.2371 21.2334L77.3336 22.3335C76.6466 23.682 75.853 24.7703 74.9529 25.5983C74.0527 26.4264 73.0401 27.0592 71.9149 27.4969C70.7897 27.9227 69.5164 28.1356 68.0951 28.1356C64.9446 28.1356 62.481 27.1065 60.7044 25.0483C58.9277 22.9782 58.0394 20.642 58.0394 18.0396C58.0394 15.591 58.7915 13.4086 60.2957 11.4923C62.2027 9.0555 64.7551 7.83711 67.953 7.83711C71.2457 7.83711 73.8751 9.08507 75.8412 11.581C77.2388 13.3435 77.9495 15.5437 77.9731 18.1816H60.5978C60.6452 20.4291 61.3617 22.2744 62.7475 23.7175C64.1333 25.1488 65.8447 25.8645 67.8819 25.8645C68.865 25.8645 69.8184 25.693 70.7423 25.3499C71.678 25.0069 72.4715 24.5515 73.123 23.9837C73.7744 23.4159 74.4791 22.4991 75.2371 21.2334ZM75.2371 16.0346C74.9055 14.7098 74.4199 13.6511 73.7803 12.8585C73.1526 12.066 72.3176 11.4272 71.2753 10.9422C70.233 10.4572 69.1374 10.2147 67.9885 10.2147C66.0935 10.2147 64.4649 10.8239 63.1028 12.0423C62.1079 12.9295 61.3558 14.2602 60.8465 16.0346H75.2371Z" fill="white"/>
<path d="M78.761 8.36162H81.3016V11.1828C82.0596 10.0709 82.8591 9.24288 83.7 8.69874C84.541 8.14278 85.4174 7.8648 86.3294 7.8648C87.0164 7.8648 87.7507 8.08364 88.5324 8.52131L87.2355 10.615C86.7144 10.3903 86.2761 10.2779 85.9208 10.2779C85.0917 10.2779 84.2922 10.621 83.5224 11.307C82.7525 11.9813 82.1662 13.0341 81.7635 14.4654C81.4556 15.5655 81.3016 17.7893 81.3016 21.1369V27.6665H78.761V8.36162Z" fill="white"/>
<path d="M86.6238 1.56587H101.068V6.46307H96.3064V27.6665H91.2608V6.46307H86.6238V1.56587Z" fill="white"/>
<path d="M118.57 19.039H102.989C103.214 20.4112 103.813 21.5053 104.784 22.3215C105.767 23.1259 107.016 23.5281 108.532 23.5281C110.345 23.5281 111.902 22.8952 113.205 21.6295L117.291 23.5458C116.273 24.989 115.053 26.0595 113.631 26.7574C112.21 27.4435 110.522 27.7865 108.568 27.7865C105.536 27.7865 103.066 26.8343 101.159 24.9298C99.2525 23.0135 98.2991 20.6182 98.2991 17.7437C98.2991 14.7983 99.2466 12.3556 101.142 10.4157C103.049 8.46389 105.435 7.488 108.301 7.488C111.345 7.488 113.821 8.46389 115.728 10.4157C117.635 12.3556 118.588 14.9225 118.588 18.1163L118.57 19.039ZM113.702 15.2242C113.383 14.1477 112.749 13.2724 111.801 12.5981C110.866 11.9239 109.776 11.5867 108.532 11.5867C107.182 11.5867 105.998 11.9653 104.979 12.7223C104.34 13.1955 103.747 14.0294 103.203 15.2242H113.702Z" fill="white"/>
<path d="M138.835 11.7684L134.802 13.9863C134.044 13.1938 133.291 12.6437 132.545 12.3362C131.811 12.0286 130.946 11.8748 129.951 11.8748C128.139 11.8748 126.671 12.419 125.545 13.5072C124.432 14.5837 123.875 15.9677 123.875 17.6592C123.875 19.3034 124.414 20.646 125.492 21.687C126.57 22.7279 127.985 23.2484 129.738 23.2484C131.906 23.2484 133.593 22.5091 134.802 21.0305L138.621 23.6387C136.549 26.3239 133.623 27.6665 129.845 27.6665C126.446 27.6665 123.781 26.661 121.85 24.6501C119.931 22.6392 118.972 20.2852 118.972 17.5882C118.972 15.7192 119.44 13.9981 120.375 12.4249C121.311 10.8516 122.614 9.61549 124.284 8.71649C125.966 7.81748 127.843 7.36798 129.916 7.36798C131.835 7.36798 133.558 7.75242 135.086 8.52131C136.614 9.27836 137.863 10.3607 138.835 11.7684Z" fill="white"/>
<path d="M139.813 0H144.628V9.40404C145.576 8.58784 146.529 7.97865 147.488 7.57646C148.448 7.16245 149.419 6.95544 150.402 6.95544C152.321 6.95544 153.938 7.61786 155.252 8.94271C156.377 10.0901 156.94 11.7757 156.94 13.9996V26.7572H152.161V18.2935C152.161 16.0578 152.054 14.5437 151.841 13.7512C151.628 12.9586 151.261 12.3672 150.74 11.9768C150.23 11.5865 149.597 11.3913 148.839 11.3913C147.856 11.3913 147.009 11.7166 146.298 12.3672C145.599 13.0178 145.114 13.905 144.841 15.0287C144.699 15.6083 144.628 16.9332 144.628 19.0033V26.7572H139.813V0Z" fill="white"/>
</svg>
