<svg width="106" height="16" viewBox="0 0 106 16" fill="none" xmlns="http://www.w3.org/2000/svg">
<path d="M6.01562 0.634766H8.78906L14.3164 15H11.4746L10.3516 12.041H4.49219L3.32031 15H0.478516L6.01562 0.634766ZM7.42188 4.44336L5.50781 9.375H9.32617L7.42188 4.44336ZM17.2355 0.634766H20.1359C21.7049 0.634766 22.8345 0.78125 23.5246 1.07422C24.2212 1.36068 24.7681 1.82943 25.1652 2.48047C25.5689 3.125 25.7707 3.89974 25.7707 4.80469C25.7707 5.80729 25.507 6.64062 24.9797 7.30469C24.4589 7.96875 23.7492 8.43099 22.8508 8.69141C22.3234 8.84115 21.3632 8.91602 19.9699 8.91602V15H17.2355V0.634766ZM19.9699 6.25H20.8391C21.5227 6.25 21.9979 6.20117 22.2648 6.10352C22.5318 6.00586 22.7401 5.84635 22.8898 5.625C23.0461 5.39714 23.1242 5.1237 23.1242 4.80469C23.1242 4.2513 22.9094 3.84766 22.4797 3.59375C22.1672 3.40495 21.5878 3.31055 20.7414 3.31055H19.9699V6.25ZM29.0609 0.634766H31.7758V15H29.0609V0.634766ZM37.0484 0.634766H39.7242L43.0445 10.6543L46.4137 0.634766H49.0504L51.4723 15H48.8355L47.2926 5.92773L44.2359 15H41.8238L38.8063 5.92773L37.234 15H34.568L37.0484 0.634766ZM62.0281 4.375H64.6844V15H62.0281V13.877C61.5073 14.3717 60.9832 14.7298 60.4559 14.9512C59.935 15.166 59.3686 15.2734 58.7566 15.2734C57.3829 15.2734 56.1948 14.7428 55.1922 13.6816C54.1896 12.6139 53.6883 11.2891 53.6883 9.70703C53.6883 8.06641 54.1733 6.72201 55.1434 5.67383C56.1134 4.62565 57.2918 4.10156 58.6785 4.10156C59.3165 4.10156 59.9155 4.22201 60.4754 4.46289C61.0353 4.70378 61.5529 5.0651 62.0281 5.54688V4.375ZM59.2254 6.5625C58.3986 6.5625 57.7117 6.85547 57.1648 7.44141C56.618 8.02083 56.3445 8.76628 56.3445 9.67773C56.3445 10.5957 56.6212 11.3509 57.1746 11.9434C57.7345 12.5358 58.4214 12.832 59.2352 12.832C60.075 12.832 60.7716 12.5423 61.325 11.9629C61.8784 11.377 62.1551 10.612 62.1551 9.66797C62.1551 8.74349 61.8784 7.99479 61.325 7.42188C60.7716 6.84896 60.0717 6.5625 59.2254 6.5625ZM67.5547 4.375H69.8398V5.71289C70.0872 5.18555 70.416 4.78516 70.8262 4.51172C71.2363 4.23828 71.6855 4.10156 72.1738 4.10156C72.5189 4.10156 72.8802 4.19271 73.2578 4.375L72.4277 6.66992C72.1152 6.51367 71.8581 6.43555 71.6562 6.43555C71.2461 6.43555 70.8978 6.68945 70.6113 7.19727C70.3314 7.70508 70.1914 8.70117 70.1914 10.1855L70.2012 10.7031V15H67.5547V4.375ZM75.4055 0.273438H78.0715V8.75977L81.9973 4.375H85.3371L80.7668 9.47266L85.8938 15H82.5832L78.0715 10.1074V15H75.4055V0.273438ZM98.432 10.459H89.8676C89.9913 11.2142 90.3201 11.8164 90.8539 12.2656C91.3943 12.7083 92.0811 12.9297 92.9145 12.9297C93.9105 12.9297 94.7667 12.5814 95.4828 11.8848L97.7289 12.9395C97.169 13.7337 96.4984 14.3229 95.7172 14.707C94.9359 15.0846 94.0082 15.2734 92.934 15.2734C91.2673 15.2734 89.9099 14.7493 88.8617 13.7012C87.8135 12.6465 87.2895 11.3281 87.2895 9.74609C87.2895 8.125 87.8103 6.7806 88.852 5.71289C89.9001 4.63867 91.212 4.10156 92.7875 4.10156C94.4607 4.10156 95.8214 4.63867 96.8695 5.71289C97.9177 6.7806 98.4418 8.19336 98.4418 9.95117L98.432 10.459ZM95.7562 8.35938C95.5805 7.76693 95.2322 7.28516 94.7113 6.91406C94.197 6.54297 93.598 6.35742 92.9145 6.35742C92.1723 6.35742 91.5212 6.56576 90.9613 6.98242C90.6098 7.24284 90.2842 7.70182 89.9848 8.35938H95.7562ZM101.722 0.458984H104.379V4.375H105.961V6.66992H104.379V15H101.722V6.66992H100.355V4.375H101.722V0.458984Z" fill="white"/>
</svg>
