<svg width="120" height="9" viewBox="0 0 120 9" fill="none" xmlns="http://www.w3.org/2000/svg">
<path d="M1.55465 1.94788V4.05024H4.21488V4.92838H1.55465V8.58555H0.521545V1.01809H5.19632V1.94788H1.55465Z" fill="#14234B"/>
<path d="M8.33695 0.961272C8.50569 0.961272 8.6486 1.02154 8.76569 1.14206C8.88621 1.25915 8.94648 1.40034 8.94648 1.56564C8.94648 1.73438 8.88621 1.87901 8.76569 1.99954C8.6486 2.11662 8.50569 2.17516 8.33695 2.17516C8.17165 2.17516 8.02874 2.11662 7.90821 1.99954C7.79113 1.87901 7.73259 1.73438 7.73259 1.56564C7.73259 1.3969 7.79113 1.25398 7.90821 1.1369C8.0253 1.01981 8.16821 0.961272 8.33695 0.961272ZM7.79974 8.58555V3.87978H7.04041V3.0533H8.78118V8.58555H7.79974Z" fill="#14234B"/>
<path d="M15.0676 8.58555V5.36744C15.0676 4.77858 14.9781 4.36706 14.799 4.13289C14.6234 3.89528 14.3272 3.77647 13.9105 3.77647C13.6867 3.77647 13.4525 3.84362 13.208 3.97792C12.9635 4.11223 12.7758 4.27752 12.645 4.47381V8.58555H11.6635V3.0533H12.335L12.645 3.76614C12.9687 3.22204 13.4973 2.94999 14.2308 2.94999C15.443 2.94999 16.049 3.68693 16.049 5.16082V8.58555H15.0676Z" fill="#14234B"/>
<path d="M19.1225 3.82812H18.482V3.0533H19.1225V1.89623L20.104 1.51915V3.0533H21.6226V3.82812H20.104V6.57617C20.104 7.04107 20.1814 7.37166 20.3364 7.56795C20.4948 7.76424 20.7479 7.86238 21.0957 7.86238C21.3471 7.86238 21.6071 7.79867 21.8757 7.67126L22.0204 8.5339C21.614 8.63721 21.1681 8.68886 20.6825 8.68886C20.2452 8.68886 19.875 8.52701 19.5719 8.20331C19.2723 7.87616 19.1225 7.46464 19.1225 6.96875V3.82812Z" fill="#14234B"/>
<path d="M28.9473 5.91499H24.9595C24.9595 6.5624 25.1369 7.06001 25.4916 7.40782C25.805 7.71086 26.2079 7.86238 26.7003 7.86238C27.2616 7.86238 27.73 7.69881 28.1053 7.37166L28.5186 8.07933C28.367 8.23085 28.1346 8.36171 27.8212 8.47191C27.4286 8.61655 26.9913 8.68886 26.5092 8.68886C25.8136 8.68886 25.223 8.45297 24.7374 7.98119C24.1968 7.46119 23.9264 6.76213 23.9264 5.884C23.9264 4.97142 24.2036 4.23964 24.7581 3.68866C25.254 3.19621 25.8411 2.94999 26.5195 2.94999C27.3081 2.94999 27.9263 3.17211 28.3739 3.61634C28.8078 4.04335 29.0248 4.60984 29.0248 5.31579C29.0248 5.53274 28.999 5.73247 28.9473 5.91499ZM26.566 3.77647C26.1287 3.77647 25.7619 3.91766 25.4658 4.20004C25.1834 4.46865 25.0232 4.80268 24.9854 5.20215H28.0485C28.0485 4.80613 27.9245 4.47553 27.6766 4.21037C27.4045 3.9211 27.0343 3.77647 26.566 3.77647Z" fill="#14234B"/>
<path d="M35.5591 3.5027L35.0736 4.19488C34.9737 4.09501 34.7964 4.00031 34.5415 3.91077C34.2901 3.82124 34.0422 3.77647 33.7977 3.77647C33.2639 3.77647 32.8404 3.96415 32.527 4.33951C32.2136 4.71143 32.0569 5.22281 32.0569 5.87366C32.0569 6.52107 32.2171 7.01524 32.5373 7.35616C32.8576 7.69364 33.3018 7.86238 33.87 7.86238C34.3108 7.86238 34.755 7.69192 35.2027 7.351L35.5901 8.17748C35.0633 8.5184 34.4107 8.68886 33.6324 8.68886C32.8782 8.68886 32.2549 8.43575 31.7625 7.92953C31.2701 7.42331 31.0238 6.73802 31.0238 5.87366C31.0238 4.99208 31.2787 4.28441 31.7883 3.75064C32.3014 3.21687 33.0022 2.94999 33.8907 2.94999C34.1765 2.94999 34.4864 3.01025 34.8205 3.13078C35.1545 3.25131 35.4007 3.37528 35.5591 3.5027Z" fill="#14234B"/>
<path d="M41.3548 8.58555V5.10917C41.3548 4.69593 41.2532 4.3705 41.0501 4.13289C40.8469 3.89528 40.5611 3.77647 40.1926 3.77647C39.955 3.77647 39.7156 3.84707 39.4746 3.98826C39.237 4.126 39.0545 4.28785 38.927 4.47381V8.58555H37.9456V0.785645H38.927V3.66283C39.0579 3.45965 39.268 3.29091 39.5572 3.15661C39.85 3.01886 40.1513 2.94999 40.4612 2.94999C41.0466 2.94999 41.5046 3.14284 41.8352 3.52853C42.1693 3.91422 42.3363 4.4411 42.3363 5.10917V8.58555H41.3548Z" fill="#14234B"/>
<path d="M52.6931 7.9502C52.3005 8.44264 51.6996 8.68886 50.8904 8.68886C50.4564 8.68886 50.0794 8.53218 49.7591 8.2188C49.4423 7.90198 49.2839 7.50941 49.2839 7.04107C49.2839 6.47975 49.5284 6.00625 50.0174 5.62055C50.5098 5.23142 51.1366 5.03685 51.8976 5.03685C52.1042 5.03685 52.3384 5.08162 52.6001 5.17116C52.6001 4.2758 52.2007 3.82812 51.4017 3.82812C50.7888 3.82812 50.317 3.99342 49.9864 4.32401L49.5731 3.5027C49.7591 3.35118 50.0157 3.22204 50.3428 3.11529C50.6734 3.00509 50.9885 2.94999 51.2881 2.94999C52.0905 2.94999 52.6724 3.1325 53.034 3.49753C53.3991 3.86256 53.5816 4.44282 53.5816 5.23831V7.22186C53.5816 7.70742 53.7262 8.03112 54.0155 8.19297V8.6837C53.616 8.6837 53.3164 8.62688 53.1167 8.51324C52.9204 8.39959 52.7792 8.21191 52.6931 7.9502ZM52.6001 5.8685C52.2902 5.79962 52.0732 5.76519 51.9493 5.76519C51.4534 5.76519 51.0488 5.8926 50.7354 6.14744C50.422 6.40227 50.2653 6.70359 50.2653 7.0514C50.2653 7.62649 50.6045 7.91404 51.2829 7.91404C51.7788 7.91404 52.2179 7.67815 52.6001 7.20636V5.8685Z" fill="#14234B"/>
<path d="M56.0868 8.25496L56.4329 7.32517C56.9805 7.68331 57.4213 7.86238 57.7553 7.86238C58.3614 7.86238 58.6644 7.60755 58.6644 7.09789C58.6644 6.73286 58.3717 6.41949 57.7863 6.15777C57.3352 5.95115 57.0304 5.79446 56.872 5.68771C56.717 5.58095 56.581 5.46042 56.4639 5.32612C56.3503 5.18837 56.2642 5.04374 56.2057 4.89222C56.1506 4.73725 56.123 4.57196 56.123 4.39633C56.123 3.94177 56.2883 3.58707 56.6189 3.33224C56.9495 3.07741 57.3817 2.94999 57.9154 2.94999C58.3183 2.94999 58.8263 3.07741 59.4393 3.33224L59.1603 4.24137C58.7712 3.93144 58.3803 3.77647 57.9878 3.77647C57.7536 3.77647 57.5556 3.83157 57.3937 3.94177C57.2353 4.05196 57.1561 4.19143 57.1561 4.36017C57.1561 4.71487 57.3576 4.98348 57.7605 5.16599L58.463 5.48625C58.8934 5.68254 59.2068 5.90638 59.4031 6.15777C59.5994 6.40915 59.6975 6.72425 59.6975 7.10305C59.6975 7.59894 59.5236 7.98808 59.1758 8.27046C58.828 8.54939 58.3459 8.68886 57.7295 8.68886C57.1475 8.68886 56.6 8.54423 56.0868 8.25496Z" fill="#14234B"/>
<path d="M69.6979 7.9502C69.3054 8.44264 68.7044 8.68886 67.8952 8.68886C67.4613 8.68886 67.0842 8.53218 66.7639 8.2188C66.4471 7.90198 66.2887 7.50941 66.2887 7.04107C66.2887 6.47975 66.5332 6.00625 67.0222 5.62055C67.5147 5.23142 68.1414 5.03685 68.9025 5.03685C69.1091 5.03685 69.3432 5.08162 69.605 5.17116C69.605 4.2758 69.2055 3.82812 68.4066 3.82812C67.7936 3.82812 67.3218 3.99342 66.9912 4.32401L66.578 3.5027C66.7639 3.35118 67.0205 3.22204 67.3476 3.11529C67.6782 3.00509 67.9933 2.94999 68.2929 2.94999C69.0953 2.94999 69.6773 3.1325 70.0389 3.49753C70.4039 3.86256 70.5864 4.44282 70.5864 5.23831V7.22186C70.5864 7.70742 70.731 8.03112 71.0203 8.19297V8.6837C70.6208 8.6837 70.3212 8.62688 70.1215 8.51324C69.9252 8.39959 69.784 8.21191 69.6979 7.9502ZM69.605 5.8685C69.295 5.79962 69.0781 5.76519 68.9541 5.76519C68.4582 5.76519 68.0536 5.8926 67.7402 6.14744C67.4268 6.40227 67.2702 6.70359 67.2702 7.0514C67.2702 7.62649 67.6094 7.91404 68.2878 7.91404C68.7836 7.91404 69.2227 7.67815 69.605 7.20636V5.8685Z" fill="#14234B"/>
<path d="M77.7045 8.23946L78.0816 7.28901C78.2744 7.4302 78.5137 7.54901 78.7996 7.64543C79.0888 7.73841 79.3471 7.7849 79.5744 7.7849C79.9773 7.7849 80.301 7.6747 80.5455 7.45431C80.79 7.23391 80.9122 6.95325 80.9122 6.61233C80.9122 6.3575 80.8434 6.12161 80.7056 5.90466C80.5713 5.68426 80.2304 5.44493 79.6829 5.18665L79.0733 4.90255C78.5568 4.66149 78.1952 4.37567 77.9886 4.04508C77.7854 3.71448 77.6838 3.31674 77.6838 2.85185C77.6838 2.28708 77.8835 1.81874 78.283 1.44683C78.6825 1.07491 79.1956 0.888955 79.8223 0.888955C80.6591 0.888955 81.2411 1.02498 81.5683 1.29703L81.2635 2.19583C81.1258 2.09596 80.9157 1.99954 80.6333 1.90656C80.3509 1.81358 80.0892 1.76709 79.8482 1.76709C79.4969 1.76709 79.2197 1.86696 79.0165 2.06669C78.8168 2.26642 78.7169 2.52297 78.7169 2.83635C78.7169 3.02919 78.7531 3.20482 78.8254 3.36323C78.8977 3.52164 78.9976 3.65422 79.125 3.76097C79.2558 3.86773 79.521 4.01753 79.9205 4.21037L80.5403 4.50481C81.0569 4.74931 81.4185 5.04202 81.6251 5.38294C81.8352 5.72042 81.9402 6.15088 81.9402 6.67432C81.9402 7.24252 81.7112 7.72464 81.2532 8.12066C80.7986 8.51668 80.1891 8.71469 79.4246 8.71469C78.7531 8.71469 78.1797 8.55628 77.7045 8.23946Z" fill="#14234B"/>
<path d="M89.0427 5.91499H85.055C85.055 6.5624 85.2323 7.06001 85.587 7.40782C85.9004 7.71086 86.3033 7.86238 86.7958 7.86238C87.3571 7.86238 87.8254 7.69881 88.2008 7.37166L88.614 8.07933C88.4625 8.23085 88.23 8.36171 87.9167 8.47191C87.5241 8.61655 87.0867 8.68886 86.6046 8.68886C85.909 8.68886 85.3184 8.45297 84.8329 7.98119C84.2922 7.46119 84.0219 6.76213 84.0219 5.884C84.0219 4.97142 84.2991 4.23964 84.8535 3.68866C85.3494 3.19621 85.9366 2.94999 86.615 2.94999C87.4036 2.94999 88.0217 3.17211 88.4694 3.61634C88.9033 4.04335 89.1202 4.60984 89.1202 5.31579C89.1202 5.53274 89.0944 5.73247 89.0427 5.91499ZM86.6614 3.77647C86.2241 3.77647 85.8574 3.91766 85.5612 4.20004C85.2788 4.46865 85.1187 4.80268 85.0808 5.20215H88.1439C88.1439 4.80613 88.02 4.47553 87.772 4.21037C87.5 3.9211 87.1298 3.77647 86.6614 3.77647Z" fill="#14234B"/>
<path d="M94.4872 3.99859C94.2737 3.85051 94.0584 3.77647 93.8415 3.77647C93.4937 3.77647 93.1889 3.9366 92.9272 4.25686C92.6689 4.57712 92.5398 4.96281 92.5398 5.41393V8.58555H91.5583V3.0533H92.5398V3.9366C92.8979 3.27886 93.43 2.94999 94.1359 2.94999C94.3116 2.94999 94.5647 2.98098 94.8953 3.04297L94.4872 3.99859Z" fill="#14234B"/>
<path d="M98.9089 8.68886H98.6506L96.2796 3.0378H97.354L98.8159 6.91193L100.309 3.0378H101.337L98.9089 8.68886Z" fill="#14234B"/>
<path d="M104.436 0.961272C104.605 0.961272 104.748 1.02154 104.865 1.14206C104.985 1.25915 105.045 1.40034 105.045 1.56564C105.045 1.73438 104.985 1.87901 104.865 1.99954C104.748 2.11662 104.605 2.17516 104.436 2.17516C104.271 2.17516 104.128 2.11662 104.007 1.99954C103.89 1.87901 103.832 1.73438 103.832 1.56564C103.832 1.3969 103.89 1.25398 104.007 1.1369C104.124 1.01981 104.267 0.961272 104.436 0.961272ZM103.899 8.58555V3.87978H103.139V3.0533H104.88V8.58555H103.899Z" fill="#14234B"/>
<path d="M111.936 3.5027L111.451 4.19488C111.351 4.09501 111.173 4.00031 110.919 3.91077C110.667 3.82124 110.419 3.77647 110.175 3.77647C109.641 3.77647 109.217 3.96415 108.904 4.33951C108.591 4.71143 108.434 5.22281 108.434 5.87366C108.434 6.52107 108.594 7.01524 108.914 7.35616C109.235 7.69364 109.679 7.86238 110.247 7.86238C110.688 7.86238 111.132 7.69192 111.58 7.351L111.967 8.17748C111.44 8.5184 110.788 8.68886 110.01 8.68886C109.255 8.68886 108.632 8.43575 108.14 7.92953C107.647 7.42331 107.401 6.73802 107.401 5.87366C107.401 4.99208 107.656 4.28441 108.165 3.75064C108.679 3.21687 109.379 2.94999 110.268 2.94999C110.554 2.94999 110.864 3.01025 111.198 3.13078C111.532 3.25131 111.778 3.37528 111.936 3.5027Z" fill="#14234B"/>
<path d="M118.982 5.91499H114.994C114.994 6.5624 115.172 7.06001 115.526 7.40782C115.84 7.71086 116.243 7.86238 116.735 7.86238C117.296 7.86238 117.765 7.69881 118.14 7.37166L118.553 8.07933C118.402 8.23085 118.169 8.36171 117.856 8.47191C117.463 8.61655 117.026 8.68886 116.544 8.68886C115.848 8.68886 115.258 8.45297 114.772 7.98119C114.231 7.46119 113.961 6.76213 113.961 5.884C113.961 4.97142 114.238 4.23964 114.793 3.68866C115.289 3.19621 115.876 2.94999 116.554 2.94999C117.343 2.94999 117.961 3.17211 118.409 3.61634C118.843 4.04335 119.059 4.60984 119.059 5.31579C119.059 5.53274 119.034 5.73247 118.982 5.91499ZM116.601 3.77647C116.163 3.77647 115.797 3.91766 115.5 4.20004C115.218 4.46865 115.058 4.80268 115.02 5.20215H118.083C118.083 4.80613 117.959 4.47553 117.711 4.21037C117.439 3.9211 117.069 3.77647 116.601 3.77647Z" fill="#14234B"/>
</svg>
