<?xml version="1.0" encoding="utf-8"?>
<!-- Generator: Adobe Illustrator 15.1.0, SVG Export Plug-In . SVG Version: 6.00 Build 0)  -->
<!DOCTYPE svg PUBLIC "-//W3C//DTD SVG 1.1//EN" "http://www.w3.org/Graphics/SVG/1.1/DTD/svg11.dtd">
<svg version="1.1" id="logo" xmlns="http://www.w3.org/2000/svg" xmlns:xlink="http://www.w3.org/1999/xlink" x="0px" y="0px"
	 width="216.852px" height="69.449px" viewBox="0 0 216.852 69.449" enable-background="new 0 0 216.852 69.449"
	 xml:space="preserve">
<g>
	<g>
		<g>
			<g>
				<g>
					<polyline fill="none" points="0,69.447 0,0 216.851,0 216.851,69.447 					"/>
					<g>
						<path fill="#474747" d="M59.049,55.329l-1.318-5.867l-1.329,5.867h-1.08l-1.429-6.876h0.859l1.149,6.115l1.37-6.115H58.2
							l1.399,6.115l1.188-6.115h0.799l-1.429,6.876H59.049z"/>
						<path fill="#474747" d="M66.779,51.561v3.769H65.94v-3.647c0-0.811-0.34-1.07-0.88-1.07c-0.601,0-1.029,0.391-1.39,0.959
							v3.759h-0.839v-7.366l0.839-0.1v2.957c0.391-0.529,0.919-0.869,1.6-0.869C66.22,49.952,66.779,50.57,66.779,51.561z"/>
						<path fill="#474747" d="M72.569,52.99h-3.388c0.09,1.27,0.67,1.769,1.469,1.769c0.53,0,0.919-0.149,1.379-0.47l0.37,0.5
							c-0.51,0.41-1.089,0.66-1.81,0.66c-1.448,0-2.298-1.03-2.298-2.699c0-1.648,0.819-2.798,2.159-2.798
							c1.409,0,2.139,0.989,2.139,2.579C72.589,52.71,72.58,52.88,72.569,52.99z M71.76,52.291c0-1.061-0.419-1.669-1.288-1.669
							c-0.729,0-1.22,0.521-1.29,1.749h2.578V52.291z"/>
						<path fill="#474747" d="M78.099,51.561v3.769h-0.84v-3.647c0-0.811-0.329-1.07-0.869-1.07c-0.62,0-1.04,0.391-1.399,0.97
							v3.748h-0.839v-5.257h0.72l0.07,0.789c0.39-0.539,0.938-0.908,1.648-0.908C77.549,49.952,78.099,50.561,78.099,51.561z"/>
						<path fill="#474747" d="M82.312,57.438l-0.101-0.66c1.069-0.199,1.359-0.609,1.669-1.448h-0.29l-1.778-5.257h0.898
							l1.449,4.646l1.419-4.646h0.87l-1.769,5.287C84.31,56.479,83.721,57.257,82.312,57.438z"/>
						<path fill="#474747" d="M91.629,52.689c0,1.649-0.85,2.76-2.318,2.76c-1.47,0-2.31-1.07-2.31-2.739
							c0-1.649,0.85-2.758,2.318-2.758C90.799,49.952,91.629,51.012,91.629,52.689z M87.901,52.71c0,1.39,0.5,2.06,1.409,2.06
							s1.419-0.67,1.419-2.08c0-1.389-0.5-2.059-1.41-2.059C88.42,50.631,87.901,51.301,87.901,52.71z"/>
						<path fill="#474747" d="M96.339,55.329l-0.069-0.851c-0.391,0.641-0.891,0.971-1.649,0.971c-0.929,0-1.469-0.58-1.469-1.609
							v-3.768h0.839v3.678c0,0.75,0.26,1.029,0.859,1.029c0.599,0,1.04-0.391,1.37-0.939v-3.768h0.839v5.257H96.339z"/>
						<path fill="#474747" d="M105.639,51.561v3.769h-0.84v-3.647c0-0.811-0.34-1.07-0.88-1.07c-0.6,0-1.028,0.391-1.389,0.959
							v3.759h-0.839v-7.366l0.839-0.1v2.957c0.39-0.529,0.919-0.869,1.599-0.869C105.079,49.952,105.639,50.57,105.639,51.561z"/>
						<path fill="#474747" d="M111.459,54.859l-0.2,0.59c-0.51-0.07-0.839-0.28-0.979-0.811c-0.37,0.561-0.929,0.811-1.579,0.811
							c-1.039,0-1.659-0.65-1.659-1.59c0-1.118,0.84-1.729,2.279-1.729h0.86v-0.41c0-0.779-0.37-1.08-1.129-1.08
							c-0.4,0-0.881,0.101-1.42,0.291l-0.21-0.621c0.631-0.24,1.2-0.359,1.779-0.359c1.249,0,1.819,0.64,1.819,1.729v2.438
							C111.019,54.609,111.179,54.759,111.459,54.859z M110.18,53.949V52.7h-0.75c-0.979,0-1.5,0.37-1.5,1.118
							c0,0.641,0.329,0.99,0.959,0.99C109.46,54.809,109.88,54.52,110.18,53.949z"/>
						<path fill="#474747" d="M113.82,55.329l-1.829-5.257h0.919l1.429,4.508l1.409-4.508h0.891l-1.8,5.257H113.82z"/>
						<path fill="#474747" d="M121.519,52.99h-3.389c0.091,1.27,0.67,1.769,1.47,1.769c0.529,0,0.919-0.149,1.379-0.47l0.37,0.5
							c-0.511,0.41-1.09,0.66-1.81,0.66c-1.449,0-2.298-1.03-2.298-2.699c0-1.648,0.819-2.798,2.159-2.798
							c1.409,0,2.139,0.989,2.139,2.579C121.539,52.71,121.529,52.88,121.519,52.99z M120.709,52.291
							c0-1.061-0.419-1.669-1.289-1.669c-0.729,0-1.219,0.521-1.29,1.749h2.579V52.291z"/>
						<path fill="#474747" d="M127.21,55.449c-0.87,0-1.389-0.51-1.389-1.469v-3.258h-0.91v-0.65h0.91v-1.209l0.839-0.09v1.299
							h1.271l-0.091,0.65h-1.18v3.217c0,0.551,0.19,0.811,0.66,0.811c0.25,0,0.47-0.07,0.729-0.23l0.32,0.58
							C128.029,55.329,127.65,55.449,127.21,55.449z"/>
						<path fill="#474747" d="M133.479,52.689c0,1.649-0.851,2.76-2.319,2.76s-2.309-1.07-2.309-2.739
							c0-1.649,0.85-2.758,2.317-2.758C132.649,49.952,133.479,51.012,133.479,52.689z M129.751,52.71c0,1.39,0.5,2.06,1.409,2.06
							s1.419-0.67,1.419-2.08c0-1.389-0.5-2.059-1.409-2.059C130.271,50.631,129.751,51.301,129.751,52.71z"/>
						<path fill="#474747" d="M142.019,52.689c0,1.66-0.771,2.76-2.049,2.76c-0.601,0-1.061-0.28-1.42-0.711l-0.09,0.591h-0.729
							v-7.376l0.839-0.1v2.889c0.36-0.49,0.86-0.79,1.509-0.79C141.269,49.952,142.019,50.941,142.019,52.689z M141.119,52.689
							c0-1.508-0.5-2.068-1.27-2.068c-0.601,0-1,0.4-1.279,0.84v2.588c0.28,0.43,0.71,0.729,1.209,0.729
							C140.58,54.779,141.119,54.148,141.119,52.689z"/>
						<path fill="#474747" d="M147.528,52.99h-3.388c0.09,1.27,0.67,1.769,1.469,1.769c0.53,0,0.919-0.149,1.379-0.47l0.37,0.5
							c-0.51,0.41-1.089,0.66-1.81,0.66c-1.448,0-2.298-1.03-2.298-2.699c0-1.648,0.819-2.798,2.159-2.798
							c1.409,0,2.139,0.989,2.139,2.579C147.548,52.71,147.539,52.88,147.528,52.99z M146.719,52.291
							c0-1.061-0.42-1.669-1.289-1.669c-0.729,0-1.22,0.521-1.29,1.749h2.579V52.291z"/>
						<path fill="#474747" d="M154.529,50.012l-0.15,0.819c-0.159-0.04-0.27-0.06-0.459-0.06c-0.67,0-1.049,0.47-1.29,1.479v3.078
							h-0.839V50.07h0.721l0.079,1.101c0.28-0.81,0.771-1.219,1.42-1.219C154.189,49.952,154.379,49.973,154.529,50.012z"/>
						<path fill="#474747" d="M156.63,48.172c0,0.33-0.239,0.58-0.6,0.58c-0.35,0-0.59-0.25-0.59-0.58s0.24-0.58,0.59-0.58
							C156.39,47.594,156.63,47.844,156.63,48.172z M155.621,55.329v-5.257h0.839v5.257H155.621z"/>
						<path fill="#474747" d="M161.049,50.441c0.609,0.27,0.919,0.709,0.919,1.349c0,1.028-0.739,1.769-1.979,1.769
							c-0.24,0-0.46-0.029-0.669-0.1c-0.18,0.12-0.29,0.311-0.29,0.52c0,0.25,0.16,0.451,0.72,0.451h0.839
							c1.069,0,1.77,0.608,1.77,1.428c0,1.01-0.811,1.58-2.418,1.58c-1.689,0-2.239-0.51-2.239-1.569h0.759
							c0,0.63,0.301,0.909,1.479,0.909c1.159,0,1.568-0.309,1.568-0.858c0-0.521-0.409-0.78-1.089-0.78h-0.83
							c-0.919,0-1.339-0.459-1.339-0.979c0-0.35,0.2-0.68,0.57-0.919c-0.6-0.32-0.879-0.78-0.879-1.47
							c0-1.068,0.839-1.818,1.999-1.818c1.329,0.029,1.789-0.17,2.378-0.439l0.25,0.77
							C162.148,50.411,161.659,50.432,161.049,50.441z M158.8,51.771c0,0.74,0.421,1.229,1.16,1.229c0.75,0,1.149-0.45,1.149-1.229
							c0-0.779-0.39-1.209-1.169-1.209C159.19,50.561,158.8,51.07,158.8,51.771z"/>
						<path fill="#474747" d="M167.519,51.561v3.769h-0.839v-3.647c0-0.811-0.341-1.07-0.881-1.07c-0.6,0-1.028,0.391-1.389,0.959
							v3.759h-0.839v-7.366l0.839-0.1v2.957c0.39-0.529,0.919-0.869,1.599-0.869C166.959,49.952,167.519,50.57,167.519,51.561z"/>
						<path fill="#474747" d="M170.85,55.449c-0.87,0-1.39-0.51-1.39-1.469v-3.258h-0.91v-0.65h0.91v-1.209l0.839-0.09v1.299h1.271
							l-0.09,0.65H170.3v3.217c0,0.551,0.19,0.811,0.66,0.811c0.25,0,0.471-0.07,0.729-0.23l0.319,0.58
							C171.669,55.329,171.29,55.449,170.85,55.449z"/>
					</g>
				</g>
			</g>
		</g>
	</g>
	<path fill="#474747" d="M69.19,39.826h-1.354l-3.094-8.692c-0.256-0.715-0.562-1.61-0.869-2.632h-0.051
		c-0.306,0.997-0.613,1.841-0.894,2.632l-3.223,8.692h-1.38l-5.854-16.924h2.021L58.25,34.15c0.307,0.946,0.587,1.79,0.817,2.633
		h0.049c0.231-0.818,0.562-1.661,0.896-2.581l2.917-7.977l-1.151-3.323h1.969l3.859,11.145c0.331,0.973,0.665,1.789,0.896,2.607
		h0.05c0.204-0.844,0.435-1.609,0.741-2.528l3.682-11.224h1.969L69.19,39.826z"/>
	<path fill="#474747" d="M83.819,38.574c-0.947,0.971-2.276,1.509-3.836,1.509c-1.509,0-2.812-0.513-3.757-1.483
		c-1.101-1.123-1.688-2.836-1.688-4.831c0-1.993,0.615-3.655,1.688-4.779c0.972-0.996,2.273-1.56,3.781-1.56
		c1.562,0,2.863,0.563,3.838,1.56c1.07,1.124,1.686,2.786,1.686,4.779C85.531,35.764,84.917,37.45,83.819,38.574 M80.009,29.013
		c-2.274,0-3.576,1.841-3.576,4.704c0,2.861,1.354,4.756,3.604,4.756s3.604-1.895,3.604-4.756
		C83.64,30.854,82.338,29.013,80.009,29.013"/>
	<path fill="#474747" d="M90.081,40.083c-1.482,0-2.122-0.948-2.122-2.226v-16.13h1.866v15.287c0,1.15,0.281,1.381,0.997,1.381
		c0.126,0,0.331,0,0.638-0.074l0.23,1.353C91.129,39.956,90.695,40.083,90.081,40.083"/>
	<path fill="#474747" d="M97.138,40.083c-1.737,0-2.583-1.022-2.583-2.582v-8.182h-1.968v-1.584h1.968v-2.659l1.865-0.638v3.297
		h3.707l-0.664,1.584h-3.043v7.619c0,1.023,0.384,1.482,1.179,1.482c0.866,0,1.66-0.484,2.146-0.869l0.587,1.329
		C99.438,39.544,98.262,40.083,97.138,40.083"/>
	<path fill="#474747" d="M103.077,34.099c0,2.301,1.329,4.346,4.011,4.346c1.023,0,2.149-0.408,2.864-0.869l0.562,1.279
		c-0.87,0.715-2.403,1.228-3.809,1.228c-3.784,0-5.624-3.095-5.624-6.545c0-3.502,1.994-6.108,4.907-6.108
		c3.118,0,4.832,2.479,4.832,6.236V34.1L103.077,34.099L103.077,34.099z M106.017,29.013c-1.791,0-2.916,1.585-2.916,3.502h5.701
		C108.802,30.83,107.855,29.013,106.017,29.013"/>
	<path fill="#474747" d="M119.046,29.601c-0.255-0.102-0.639-0.205-1.149-0.205c-0.714,0-1.892,0.615-2.658,1.458v8.973h-1.866
		V27.735h1.534l0.257,1.38c1.661-1.508,2.581-1.688,3.449-1.688c0.537,0,0.998,0.205,1.228,0.359L119.046,29.601z"/>
	<path fill="#474747" d="M186.195,34.099c0,2.301,1.329,4.346,4.011,4.346c1.023,0,2.149-0.408,2.864-0.869l0.562,1.279
		c-0.869,0.715-2.402,1.228-3.808,1.228c-3.784,0-5.624-3.095-5.624-6.545c0-3.502,1.994-6.108,4.907-6.108
		c3.118,0,4.832,2.479,4.832,6.236V34.1L186.195,34.099L186.195,34.099z M189.134,29.013c-1.791,0-2.916,1.585-2.916,3.502h5.701
		C191.919,30.83,190.973,29.013,189.134,29.013"/>
	<path fill="#474747" d="M202.164,29.601c-0.255-0.102-0.639-0.205-1.149-0.205c-0.715,0-1.892,0.615-2.658,1.458v8.973h-1.866
		V27.735h1.534l0.257,1.38c1.661-1.508,2.581-1.688,3.449-1.688c0.537,0,0.998,0.205,1.228,0.359L202.164,29.601z"/>
	<path fill="#474747" d="M123.784,40.083c-1.738,0-2.786-0.46-3.579-0.921l0.715-1.457c0.563,0.355,1.611,0.869,2.941,0.869
		c1.481,0,2.557-0.665,2.557-1.79c0-2.965-5.498-1.916-5.498-6.159c0-1.739,1.255-3.195,4.017-3.195c1.277,0,2.248,0.278,3.04,0.638
		v1.637c-0.842-0.356-1.711-0.715-2.965-0.715c-1.228,0-2.249,0.434-2.249,1.533c0,2.709,5.599,2.021,5.599,5.98
		C128.36,39.035,126.265,40.083,123.784,40.083"/>
	<polygon fill="#474747" points="144.9,39.827 138.176,32.209 138.15,32.209 138.15,39.827 136.285,39.827 136.285,22.98 
		138.15,22.98 138.15,30.726 138.176,30.726 144.439,23.032 146.765,23.032 139.835,31.314 147.377,39.827 	"/>
	<path fill="#474747" d="M151.29,40.083c-1.483,0-2.122-0.948-2.122-2.226v-16.13h1.865v15.287c0,1.15,0.281,1.381,0.997,1.381
		c0.127,0,0.333,0,0.64-0.074l0.229,1.353C152.336,39.956,151.901,40.083,151.29,40.083"/>
	<path fill="#474747" d="M162.841,39.827l-0.483-1.253c-0.896,0.767-2.302,1.509-3.912,1.509c-1.634,0-3.679-0.843-3.679-4.244
		v-8.104h1.862v7.925c0,2.02,0.845,2.812,2.354,2.812c1.533,0,2.709-0.973,3.22-1.611v-9.126h1.867v7.03
		c0,3.809,0.075,4.549,0.257,5.062H162.841z"/>
	<polygon fill="#474747" points="179.433,39.826 177.745,39.826 174.728,30.137 174.652,30.137 171.662,39.826 170.026,39.826 
		165.986,27.735 167.878,27.735 170.843,37.27 170.919,37.27 173.911,27.735 175.598,27.735 178.615,37.296 178.691,37.296 
		181.605,27.735 183.419,27.735 	"/>
	<g>
		<path fill="#474747" d="M44.221,37.625h0.682c0.139,0,0.261,0.018,0.35,0.053c0.287,0.084,0.428,0.301,0.428,0.551
			c0,0.354-0.268,0.537-0.517,0.598v0.01c0.149,0.075,0.382,0.512,0.645,0.992h-0.513c-0.288-0.523-0.459-0.869-0.554-0.877h-0.076
			v0.877h-0.444V37.625z M44.773,38.598c0.229,0,0.43-0.091,0.43-0.318c0-0.135-0.058-0.236-0.177-0.268
			c-0.066-0.029-0.139-0.033-0.242-0.033h-0.118v0.619H44.773z"/>
	</g>
	<path fill="#A0C4E6" d="M32.74,14.601c-1.139-0.275-2.32-0.427-3.543-0.427s-2.406,0.152-3.543,0.427v3.966h7.086V14.601z"/>
	<rect x="25.654" y="25.654" fill="#EF3E42" width="7.086" height="7.086"/>
	<rect x="25.654" y="32.74" fill="#9ACD6E" width="7.086" height="7.086"/>
	<path fill="#429ED6" d="M25.654,43.793c1.137,0.275,2.32,0.428,3.543,0.428s2.404-0.152,3.543-0.428v-3.967h-7.086V43.793z"/>
	<rect x="25.654" y="18.567" fill="#CAE3B2" width="7.086" height="7.087"/>
	<rect x="18.567" y="25.654" fill="#CAE3B2" width="7.087" height="7.086"/>
	<rect x="18.567" y="32.74" fill="#7AC143" width="7.087" height="7.086"/>
	<path fill="#007BC6" d="M18.567,39.827c1.919,1.919,4.36,3.306,7.087,3.967v-3.967H18.567z"/>
	<rect x="18.567" y="18.567" fill="#9ACD6E" width="7.087" height="7.087"/>
	<path fill="#429ED6" d="M25.654,14.601c-2.727,0.66-5.168,2.047-7.087,3.966h7.087V14.601z"/>
	<path fill="#007BC6" d="M18.567,39.827V32.74h-3.966C15.262,35.465,16.647,37.908,18.567,39.827z"/>
	<path fill="#429ED6" d="M18.567,18.567c-1.919,1.919-3.305,4.361-3.966,7.087h3.966V18.567z"/>
	<rect x="32.74" y="25.654" fill="#9ACD6E" width="7.086" height="7.086"/>
	<rect x="32.74" y="32.74" fill="#7AC143" width="7.086" height="7.086"/>
	<path fill="#007BC6" d="M39.827,39.827H32.74v3.967C35.465,43.133,37.909,41.747,39.827,39.827z"/>
	<rect x="32.74" y="18.567" fill="#7AC143" width="7.086" height="7.087"/>
	<path fill="#007BC6" d="M32.74,14.601v3.966h7.086C37.909,16.647,35.465,15.26,32.74,14.601z"/>
	<path fill="#007BC6" d="M39.827,39.827c1.919-1.918,3.305-4.361,3.966-7.087h-3.966V39.827z"/>
	<path fill="#007BC6" d="M39.827,18.567v7.087h3.966C43.132,22.928,41.747,20.486,39.827,18.567z"/>
	<path fill="#A0C4E6" d="M14.601,25.654c-0.275,1.139-0.428,2.32-0.428,3.543c0,1.223,0.152,2.405,0.428,3.543h3.966v-7.086H14.601z
		"/>
	<path fill="#429ED6" d="M43.793,32.74c0.275-1.138,0.429-2.32,0.429-3.543c0-1.223-0.153-2.404-0.429-3.543h-3.966v7.086H43.793z"
		/>
	<path fill="#474747" d="M46.961,38.756c0,1.127-0.914,2.041-2.041,2.041s-2.041-0.914-2.041-2.041s0.914-2.041,2.041-2.041
		S46.961,37.629,46.961,38.756z M44.92,37.145c-0.89,0-1.61,0.723-1.61,1.611c0,0.891,0.722,1.612,1.61,1.612
		c0.891,0,1.612-0.722,1.612-1.612C46.532,37.866,45.81,37.145,44.92,37.145z"/>
</g>
</svg>
