<svg width="140" height="10" viewBox="0 0 140 10" fill="none" xmlns="http://www.w3.org/2000/svg">
<path d="M1.50574 2.07483V4.5371H4.62139V5.56557H1.50574V9.84883H0.295776V0.985864H5.77085V2.07483H1.50574Z" fill="white"/>
<path d="M9.44914 0.919317C9.64676 0.919317 9.81414 0.989898 9.95127 1.13106C10.0924 1.26819 10.163 1.43355 10.163 1.62714C10.163 1.82477 10.0924 1.99417 9.95127 2.13533C9.81414 2.27246 9.64676 2.34102 9.44914 2.34102C9.25554 2.34102 9.08816 2.27246 8.947 2.13533C8.80987 1.99417 8.74131 1.82477 8.74131 1.62714C8.74131 1.42952 8.80987 1.26214 8.947 1.12501C9.08413 0.987881 9.25151 0.919317 9.44914 0.919317ZM8.81995 9.84883V4.33746H7.93063V3.36949H9.96942V9.84883H8.81995Z" fill="white"/>
<path d="M17.332 9.84883V6.0798C17.332 5.39012 17.2272 4.90816 17.0174 4.6339C16.8118 4.35561 16.4649 4.21646 15.9769 4.21646C15.7147 4.21646 15.4405 4.29511 15.1541 4.4524C14.8677 4.6097 14.6479 4.80329 14.4947 5.03319V9.84883H13.3452V3.36949H14.1317L14.4947 4.20436C14.8738 3.56712 15.4929 3.24849 16.352 3.24849C17.7717 3.24849 18.4815 4.1116 18.4815 5.83781V9.84883H17.332Z" fill="white"/>
<path d="M22.0811 4.27696H21.331V3.36949H22.0811V2.01433L23.2306 1.5727V3.36949H25.0092V4.27696H23.2306V7.49546C23.2306 8.03994 23.3213 8.42713 23.5028 8.65702C23.6884 8.88691 23.9848 9.00186 24.3922 9.00186C24.6866 9.00186 24.9911 8.92725 25.3057 8.77802L25.4751 9.78833C24.9992 9.90933 24.4769 9.96983 23.9082 9.96983C23.396 9.96983 22.9624 9.78027 22.6075 9.40115C22.2566 9.01799 22.0811 8.53602 22.0811 7.95524V4.27696Z" fill="white"/>
<path d="M33.5879 6.72108H28.9174C28.9174 7.47932 29.1251 8.06212 29.5405 8.46948C29.9076 8.8244 30.3795 9.00186 30.9562 9.00186C31.6136 9.00186 32.1621 8.81028 32.6017 8.42713L33.0857 9.25595C32.9083 9.43341 32.636 9.58667 32.269 9.71574C31.8092 9.88513 31.297 9.96983 30.7324 9.96983C29.9177 9.96983 29.226 9.69355 28.6573 9.14101C28.0241 8.53199 27.7075 7.71325 27.7075 6.68478C27.7075 5.61598 28.0321 4.75893 28.6815 4.11362C29.2623 3.53687 29.9499 3.24849 30.7445 3.24849C31.6681 3.24849 32.392 3.50863 32.9163 4.02892C33.4245 4.52904 33.6786 5.1925 33.6786 6.0193C33.6786 6.2734 33.6484 6.50732 33.5879 6.72108ZM30.7989 4.21646C30.2867 4.21646 29.8572 4.38182 29.5103 4.71255C29.1796 5.02714 28.992 5.41836 28.9477 5.88621H32.5352C32.5352 5.42239 32.39 5.0352 32.0996 4.72465C31.781 4.38586 31.3474 4.21646 30.7989 4.21646Z" fill="white"/>
<path d="M41.3316 3.89582L40.7629 4.7065C40.646 4.58953 40.4383 4.47862 40.1398 4.37376C39.8454 4.26889 39.555 4.21646 39.2686 4.21646C38.6435 4.21646 38.1474 4.43627 37.7804 4.87589C37.4134 5.31148 37.2299 5.91041 37.2299 6.67268C37.2299 7.43093 37.4174 8.00969 37.7925 8.40898C38.1676 8.80423 38.6879 9.00186 39.3533 9.00186C39.8696 9.00186 40.3899 8.80222 40.9142 8.40293L41.3679 9.3709C40.7508 9.77019 39.9865 9.96983 39.075 9.96983C38.1918 9.96983 37.4618 9.67339 36.885 9.08051C36.3083 8.48763 36.0199 7.68502 36.0199 6.67268C36.0199 5.64018 36.3183 4.81136 36.9153 4.18621C37.5162 3.56107 38.337 3.24849 39.3775 3.24849C39.7123 3.24849 40.0753 3.31907 40.4665 3.46024C40.8577 3.6014 41.1461 3.74659 41.3316 3.89582Z" fill="white"/>
<path d="M48.1195 9.84883V5.77731C48.1195 5.29333 48.0005 4.91219 47.7626 4.6339C47.5246 4.35561 47.1899 4.21646 46.7583 4.21646C46.48 4.21646 46.1997 4.29914 45.9174 4.4645C45.6391 4.62583 45.4253 4.81539 45.2761 5.03319V9.84883H44.1266V0.713623H45.2761V4.08337C45.4294 3.84541 45.6754 3.64778 46.0142 3.49048C46.357 3.32916 46.7099 3.24849 47.0729 3.24849C47.7585 3.24849 48.2949 3.47435 48.6821 3.92607C49.0734 4.37779 49.269 4.99487 49.269 5.77731V9.84883H48.1195Z" fill="white"/>
<path d="M61.3988 9.10471C60.939 9.68145 60.2353 9.96983 59.2874 9.96983C58.7793 9.96983 58.3376 9.78632 57.9625 9.4193C57.5915 9.04824 57.406 8.58846 57.406 8.03994C57.406 7.38253 57.6923 6.82796 58.265 6.37624C58.8418 5.92049 59.5758 5.69261 60.4672 5.69261C60.7092 5.69261 60.9834 5.74505 61.2899 5.84991C61.2899 4.80128 60.8221 4.27696 59.8864 4.27696C59.1685 4.27696 58.6159 4.47055 58.2287 4.85774L57.7448 3.89582C57.9625 3.71836 58.263 3.56712 58.6462 3.44209C59.0334 3.31302 59.4024 3.24849 59.7533 3.24849C60.693 3.24849 61.3746 3.46225 61.7981 3.88977C62.2256 4.31729 62.4394 4.99689 62.4394 5.92856V8.25168C62.4394 8.82036 62.6088 9.19949 62.9476 9.38905V9.96378C62.4797 9.96378 62.1288 9.89723 61.8949 9.76414C61.665 9.63104 61.4997 9.41123 61.3988 9.10471ZM61.2899 6.66663C60.9269 6.58597 60.6729 6.54564 60.5277 6.54564C59.9469 6.54564 59.473 6.69487 59.106 6.99332C58.7389 7.29178 58.5554 7.64469 58.5554 8.05204C58.5554 8.72558 58.9527 9.06236 59.7472 9.06236C60.328 9.06236 60.8423 8.78608 61.2899 8.23353V6.66663Z" fill="white"/>
<path d="M65.3736 9.46165L65.7789 8.37268C66.4202 8.79213 66.9364 9.00186 67.3276 9.00186C68.0375 9.00186 68.3924 8.7034 68.3924 8.10649C68.3924 7.67897 68.0496 7.31195 67.3639 7.00542C66.8356 6.76343 66.4787 6.57992 66.2931 6.45489C66.1116 6.32986 65.9523 6.1887 65.8152 6.0314C65.6821 5.87008 65.5813 5.70068 65.5127 5.52322C65.4482 5.34173 65.4159 5.14813 65.4159 4.94244C65.4159 4.41006 65.6095 3.99464 65.9967 3.69618C66.3839 3.39772 66.89 3.24849 67.5152 3.24849C67.9871 3.24849 68.582 3.39772 69.2999 3.69618L68.9732 4.76094C68.5174 4.39796 68.0597 4.21646 67.5999 4.21646C67.3256 4.21646 67.0937 4.28099 66.9042 4.41006C66.7186 4.53912 66.6259 4.70246 66.6259 4.90009C66.6259 5.31551 66.8618 5.6301 67.3337 5.84386L68.1565 6.21895C68.6606 6.44884 69.0276 6.711 69.2575 7.00542C69.4874 7.29985 69.6024 7.66889 69.6024 8.11254C69.6024 8.69332 69.3987 9.14907 68.9913 9.47979C68.584 9.80648 68.0193 9.96983 67.2974 9.96983C66.6158 9.96983 65.9745 9.80043 65.3736 9.46165Z" fill="white"/>
<path d="M81.3148 9.10471C80.855 9.68145 80.1512 9.96983 79.2034 9.96983C78.6952 9.96983 78.2536 9.78632 77.8785 9.4193C77.5075 9.04824 77.3219 8.58846 77.3219 8.03994C77.3219 7.38253 77.6083 6.82796 78.181 6.37624C78.7578 5.92049 79.4918 5.69261 80.3831 5.69261C80.6251 5.69261 80.8994 5.74505 81.2059 5.84991C81.2059 4.80128 80.7381 4.27696 79.8023 4.27696C79.0844 4.27696 78.5319 4.47055 78.1447 4.85774L77.6607 3.89582C77.8785 3.71836 78.179 3.56712 78.5621 3.44209C78.9493 3.31302 79.3184 3.24849 79.6693 3.24849C80.609 3.24849 81.2906 3.46225 81.7141 3.88977C82.1416 4.31729 82.3554 4.99689 82.3554 5.92856V8.25168C82.3554 8.82036 82.5248 9.19949 82.8635 9.38905V9.96378C82.3957 9.96378 82.0448 9.89723 81.8109 9.76414C81.581 9.63104 81.4156 9.41123 81.3148 9.10471ZM81.2059 6.66663C80.8429 6.58597 80.5888 6.54564 80.4436 6.54564C79.8628 6.54564 79.3889 6.69487 79.0219 6.99332C78.6549 7.29178 78.4714 7.64469 78.4714 8.05204C78.4714 8.72558 78.8687 9.06236 79.6632 9.06236C80.244 9.06236 80.7582 8.78608 81.2059 8.23353V6.66663Z" fill="white"/>
<path d="M90.692 9.4435L91.1336 8.33033C91.3595 8.49569 91.6398 8.63484 91.9746 8.74777C92.3134 8.85666 92.6158 8.91111 92.882 8.91111C93.3539 8.91111 93.733 8.78205 94.0194 8.52392C94.3058 8.2658 94.4489 7.93709 94.4489 7.53781C94.4489 7.23935 94.3683 6.96307 94.2069 6.70898C94.0496 6.45086 93.6504 6.17055 93.0091 5.86806L92.2952 5.53532C91.6902 5.253 91.2667 4.91824 91.0247 4.53105C90.7868 4.14386 90.6678 3.67803 90.6678 3.13355C90.6678 2.4721 90.9017 1.92358 91.3696 1.488C91.8374 1.05241 92.4384 0.834619 93.1724 0.834619C94.1525 0.834619 94.8341 0.993931 95.2173 1.31255L94.8603 2.36522C94.699 2.24826 94.453 2.13533 94.1222 2.02643C93.7915 1.91753 93.485 1.86309 93.2027 1.86309C92.7913 1.86309 92.4666 1.98005 92.2287 2.21398C91.9947 2.4479 91.8778 2.74837 91.8778 3.1154C91.8778 3.34126 91.9201 3.54695 92.0048 3.73248C92.0895 3.918 92.2065 4.07328 92.3557 4.19831C92.509 4.32334 92.8195 4.49879 93.2874 4.72465L94.0133 5.06948C94.6183 5.35584 95.0418 5.69866 95.2838 6.09795C95.5298 6.49321 95.6528 6.99736 95.6528 7.6104C95.6528 8.27588 95.3846 8.84053 94.8482 9.30435C94.3158 9.76817 93.602 10.0001 92.7066 10.0001C91.9201 10.0001 91.2486 9.81455 90.692 9.4435Z" fill="white"/>
<path d="M103.971 6.72108H99.3009C99.3009 7.47932 99.5086 8.06212 99.924 8.46948C100.291 8.8244 100.763 9.00186 101.34 9.00186C101.997 9.00186 102.546 8.81028 102.985 8.42713L103.469 9.25595C103.292 9.43341 103.019 9.58667 102.652 9.71574C102.193 9.88513 101.68 9.96983 101.116 9.96983C100.301 9.96983 99.6094 9.69355 99.0407 9.14101C98.4075 8.53199 98.0909 7.71325 98.0909 6.68478C98.0909 5.61598 98.4156 4.75893 99.0649 4.11362C99.6457 3.53687 100.333 3.24849 101.128 3.24849C102.052 3.24849 102.775 3.50863 103.3 4.02892C103.808 4.52904 104.062 5.1925 104.062 6.0193C104.062 6.2734 104.032 6.50732 103.971 6.72108ZM101.182 4.21646C100.67 4.21646 100.241 4.38182 99.8938 4.71255C99.563 5.02714 99.3755 5.41836 99.3311 5.88621H102.919C102.919 5.42239 102.773 5.0352 102.483 4.72465C102.164 4.38586 101.731 4.21646 101.182 4.21646Z" fill="white"/>
<path d="M110.348 4.4766C110.098 4.30318 109.846 4.21646 109.592 4.21646C109.184 4.21646 108.827 4.40401 108.521 4.77909C108.218 5.15418 108.067 5.6059 108.067 6.13425V9.84883H106.918V3.36949H108.067V4.40401C108.487 3.63366 109.11 3.24849 109.936 3.24849C110.142 3.24849 110.439 3.28479 110.826 3.35739L110.348 4.4766Z" fill="white"/>
<path d="M115.526 9.96983H115.224L112.447 3.35134H113.705L115.418 7.88869L117.166 3.35134H118.37L115.526 9.96983Z" fill="white"/>
<path d="M122 0.919317C122.197 0.919317 122.365 0.989898 122.502 1.13106C122.643 1.26819 122.714 1.43355 122.714 1.62714C122.714 1.82477 122.643 1.99417 122.502 2.13533C122.365 2.27246 122.197 2.34102 122 2.34102C121.806 2.34102 121.639 2.27246 121.498 2.13533C121.36 1.99417 121.292 1.82477 121.292 1.62714C121.292 1.42952 121.36 1.26214 121.498 1.12501C121.635 0.987881 121.802 0.919317 122 0.919317ZM121.371 9.84883V4.33746H120.481V3.36949H122.52V9.84883H121.371Z" fill="white"/>
<path d="M130.784 3.89582L130.215 4.7065C130.098 4.58953 129.891 4.47862 129.592 4.37376C129.298 4.26889 129.007 4.21646 128.721 4.21646C128.096 4.21646 127.6 4.43627 127.233 4.87589C126.866 5.31148 126.682 5.91041 126.682 6.67268C126.682 7.43093 126.87 8.00969 127.245 8.40898C127.62 8.80423 128.14 9.00186 128.806 9.00186C129.322 9.00186 129.842 8.80222 130.367 8.40293L130.82 9.3709C130.203 9.77019 129.439 9.96983 128.527 9.96983C127.644 9.96983 126.914 9.67339 126.337 9.08051C125.761 8.48763 125.472 7.68502 125.472 6.67268C125.472 5.64018 125.771 4.81136 126.368 4.18621C126.969 3.56107 127.789 3.24849 128.83 3.24849C129.165 3.24849 129.528 3.31907 129.919 3.46024C130.31 3.6014 130.599 3.74659 130.784 3.89582Z" fill="white"/>
<path d="M139.036 6.72108H134.366C134.366 7.47932 134.573 8.06212 134.989 8.46948C135.356 8.8244 135.828 9.00186 136.404 9.00186C137.062 9.00186 137.61 8.81028 138.05 8.42713L138.534 9.25595C138.356 9.43341 138.084 9.58667 137.717 9.71574C137.257 9.88513 136.745 9.96983 136.181 9.96983C135.366 9.96983 134.674 9.69355 134.105 9.14101C133.472 8.53199 133.156 7.71325 133.156 6.68478C133.156 5.61598 133.48 4.75893 134.13 4.11362C134.71 3.53687 135.398 3.24849 136.193 3.24849C137.116 3.24849 137.84 3.50863 138.364 4.02892C138.873 4.52904 139.127 5.1925 139.127 6.0193C139.127 6.2734 139.097 6.50732 139.036 6.72108ZM136.247 4.21646C135.735 4.21646 135.305 4.38182 134.958 4.71255C134.628 5.02714 134.44 5.41836 134.396 5.88621H137.983C137.983 5.42239 137.838 5.0352 137.548 4.72465C137.229 4.38586 136.796 4.21646 136.247 4.21646Z" fill="white"/>
</svg>
