<svg width="258" height="41" viewBox="0 0 258 41" fill="none" xmlns="http://www.w3.org/2000/svg">
<path d="M14.08 7.44C16.6933 7.44 18.7733 8.29333 20.32 10C21.8933 11.68 22.68 14 22.68 16.96V30H15.88V17.88C15.88 16.3867 15.4933 15.2267 14.72 14.4C13.9467 13.5733 12.9067 13.16 11.6 13.16C10.2933 13.16 9.25333 13.5733 8.48 14.4C7.70667 15.2267 7.32 16.3867 7.32 17.88V30H0.48V7.68H7.32V10.64C8.01333 9.65333 8.94667 8.88 10.12 8.32C11.2933 7.73333 12.6133 7.44 14.08 7.44ZM48.4731 18.48C48.4731 19.12 48.4331 19.7867 48.3531 20.48H32.8731C32.9798 21.8667 33.4198 22.9333 34.1931 23.68C34.9931 24.4 35.9665 24.76 37.1131 24.76C38.8198 24.76 40.0065 24.04 40.6731 22.6H47.9531C47.5798 24.0667 46.8998 25.3867 45.9131 26.56C44.9531 27.7333 43.7398 28.6533 42.2731 29.32C40.8065 29.9867 39.1665 30.32 37.3531 30.32C35.1665 30.32 33.2198 29.8533 31.5131 28.92C29.8065 27.9867 28.4731 26.6533 27.5131 24.92C26.5531 23.1867 26.0731 21.16 26.0731 18.84C26.0731 16.52 26.5398 14.4933 27.4731 12.76C28.4331 11.0267 29.7665 9.69333 31.4731 8.76C33.1798 7.82667 35.1398 7.36 37.3531 7.36C39.5131 7.36 41.4331 7.81333 43.1131 8.72C44.7931 9.62667 46.0998 10.92 47.0331 12.6C47.9931 14.28 48.4731 16.24 48.4731 18.48ZM41.4731 16.68C41.4731 15.5067 41.0731 14.5733 40.2731 13.88C39.4731 13.1867 38.4731 12.84 37.2731 12.84C36.1265 12.84 35.1531 13.1733 34.3531 13.84C33.5798 14.5067 33.0998 15.4533 32.9131 16.68H41.4731ZM74.1216 7.68V30H67.2816V26.96C66.5882 27.9467 65.6416 28.7467 64.4416 29.36C63.2682 29.9467 61.9616 30.24 60.5216 30.24C58.8149 30.24 57.3082 29.8667 56.0016 29.12C54.6949 28.3467 53.6816 27.24 52.9616 25.8C52.2416 24.36 51.8816 22.6667 51.8816 20.72V7.68H58.6816V19.8C58.6816 21.2933 59.0682 22.4533 59.8416 23.28C60.6149 24.1067 61.6549 24.52 62.9616 24.52C64.2949 24.52 65.3482 24.1067 66.1216 23.28C66.8949 22.4533 67.2816 21.2933 67.2816 19.8V7.68H74.1216ZM85.8747 11.4C86.6747 10.1733 87.6747 9.21333 88.8747 8.52C90.0747 7.8 91.408 7.44 92.8747 7.44V14.68H90.9947C89.288 14.68 88.008 15.0533 87.1547 15.8C86.3014 16.52 85.8747 17.8 85.8747 19.64V30H79.0347V7.68H85.8747V11.4ZM106.304 30.32C104.117 30.32 102.144 29.8533 100.384 28.92C98.6507 27.9867 97.2774 26.6533 96.2641 24.92C95.2774 23.1867 94.7841 21.16 94.7841 18.84C94.7841 16.5467 95.2907 14.5333 96.3041 12.8C97.3174 11.04 98.7041 9.69333 100.464 8.76C102.224 7.82667 104.197 7.36 106.384 7.36C108.571 7.36 110.544 7.82667 112.304 8.76C114.064 9.69333 115.451 11.04 116.464 12.8C117.477 14.5333 117.984 16.5467 117.984 18.84C117.984 21.1333 117.464 23.16 116.424 24.92C115.411 26.6533 114.011 27.9867 112.224 28.92C110.464 29.8533 108.491 30.32 106.304 30.32ZM106.304 24.4C107.611 24.4 108.717 23.92 109.624 22.96C110.557 22 111.024 20.6267 111.024 18.84C111.024 17.0533 110.571 15.68 109.664 14.72C108.784 13.76 107.691 13.28 106.384 13.28C105.051 13.28 103.944 13.76 103.064 14.72C102.184 15.6533 101.744 17.0267 101.744 18.84C101.744 20.6267 102.171 22 103.024 22.96C103.904 23.92 104.997 24.4 106.304 24.4ZM128.453 0.4V30H121.613V0.4H128.453ZM143.57 30.32C141.383 30.32 139.41 29.8533 137.65 28.92C135.916 27.9867 134.543 26.6533 133.53 24.92C132.543 23.1867 132.05 21.16 132.05 18.84C132.05 16.5467 132.556 14.5333 133.57 12.8C134.583 11.04 135.97 9.69333 137.73 8.76C139.49 7.82667 141.463 7.36 143.65 7.36C145.836 7.36 147.81 7.82667 149.57 8.76C151.33 9.69333 152.716 11.04 153.73 12.8C154.743 14.5333 155.25 16.5467 155.25 18.84C155.25 21.1333 154.73 23.16 153.69 24.92C152.676 26.6533 151.276 27.9867 149.49 28.92C147.73 29.8533 145.756 30.32 143.57 30.32ZM143.57 24.4C144.876 24.4 145.983 23.92 146.89 22.96C147.823 22 148.29 20.6267 148.29 18.84C148.29 17.0533 147.836 15.68 146.93 14.72C146.05 13.76 144.956 13.28 143.65 13.28C142.316 13.28 141.21 13.76 140.33 14.72C139.45 15.6533 139.01 17.0267 139.01 18.84C139.01 20.6267 139.436 22 140.29 22.96C141.17 23.92 142.263 24.4 143.57 24.4ZM167.358 7.36C168.932 7.36 170.305 7.68 171.478 8.32C172.678 8.96 173.598 9.8 174.238 10.84V7.68H181.078V29.96C181.078 32.0133 180.665 33.8667 179.838 35.52C179.038 37.2 177.798 38.5333 176.118 39.52C174.465 40.5067 172.398 41 169.918 41C166.612 41 163.932 40.2133 161.878 38.64C159.825 37.0933 158.652 34.9867 158.358 32.32H165.118C165.332 33.1733 165.838 33.84 166.638 34.32C167.438 34.8267 168.425 35.08 169.598 35.08C171.012 35.08 172.132 34.6667 172.958 33.84C173.812 33.04 174.238 31.7467 174.238 29.96V26.8C173.572 27.84 172.652 28.6933 171.478 29.36C170.305 30 168.932 30.32 167.358 30.32C165.518 30.32 163.852 29.8533 162.358 28.92C160.865 27.96 159.678 26.6133 158.798 24.88C157.945 23.12 157.518 21.0933 157.518 18.8C157.518 16.5067 157.945 14.4933 158.798 12.76C159.678 11.0267 160.865 9.69333 162.358 8.76C163.852 7.82667 165.518 7.36 167.358 7.36ZM174.238 18.84C174.238 17.1333 173.758 15.7867 172.798 14.8C171.865 13.8133 170.718 13.32 169.358 13.32C167.998 13.32 166.838 13.8133 165.878 14.8C164.945 15.76 164.478 17.0933 164.478 18.8C164.478 20.5067 164.945 21.8667 165.878 22.88C166.838 23.8667 167.998 24.36 169.358 24.36C170.718 24.36 171.865 23.8667 172.798 22.88C173.758 21.8933 174.238 20.5467 174.238 18.84ZM208.827 7.68L194.827 40.6H187.467L192.587 29.24L183.507 7.68H191.147L196.307 21.64L201.427 7.68H208.827ZM209.94 18.84C209.94 16.52 210.407 14.4933 211.34 12.76C212.3 11.0267 213.62 9.69333 215.3 8.76C217.007 7.82667 218.954 7.36 221.14 7.36C223.94 7.36 226.274 8.09333 228.14 9.56C230.034 11.0267 231.274 13.0933 231.86 15.76H224.58C223.967 14.0533 222.78 13.2 221.02 13.2C219.767 13.2 218.767 13.6933 218.02 14.68C217.274 15.64 216.9 17.0267 216.9 18.84C216.9 20.6533 217.274 22.0533 218.02 23.04C218.767 24 219.767 24.48 221.02 24.48C222.78 24.48 223.967 23.6267 224.58 21.92H231.86C231.274 24.5333 230.034 26.5867 228.14 28.08C226.247 29.5733 223.914 30.32 221.14 30.32C218.954 30.32 217.007 29.8533 215.3 28.92C213.62 27.9867 212.3 26.6533 211.34 24.92C210.407 23.1867 209.94 21.16 209.94 18.84ZM234.159 18.8C234.159 16.5067 234.586 14.4933 235.439 12.76C236.319 11.0267 237.506 9.69333 238.999 8.76C240.492 7.82667 242.159 7.36 243.999 7.36C245.572 7.36 246.946 7.68 248.119 8.32C249.319 8.96 250.239 9.8 250.879 10.84V7.68H257.719V30H250.879V26.84C250.212 27.88 249.279 28.72 248.079 29.36C246.906 30 245.532 30.32 243.959 30.32C242.146 30.32 240.492 29.8533 238.999 28.92C237.506 27.96 236.319 26.6133 235.439 24.88C234.586 23.12 234.159 21.0933 234.159 18.8ZM250.879 18.84C250.879 17.1333 250.399 15.7867 249.439 14.8C248.506 13.8133 247.359 13.32 245.999 13.32C244.639 13.32 243.479 13.8133 242.519 14.8C241.586 15.76 241.119 17.0933 241.119 18.8C241.119 20.5067 241.586 21.8667 242.519 22.88C243.479 23.8667 244.639 24.36 245.999 24.36C247.359 24.36 248.506 23.8667 249.439 22.88C250.399 21.8933 250.879 20.5467 250.879 18.84Z" fill="white"/>
</svg>
