          <svg
            width="120"
            height="72"
            viewBox="0 0 120 72"
            fill="none"
            xmlns="http://www.w3.org/2000/svg"
          >
            <path
              fill-rule="evenodd"
              clip-rule="evenodd"
              d="M103.684 49.0934C103.725 49.0097 103.692 48.9638 103.64 48.9507C101.34 49.8737 96.3087 50.7992 93.1756 51.2705C90.4662 51.6797 88.1433 51.7482 86.843 51.8391L86.2539 51.8871C86.1853 51.8989 86.1462 51.9425 86.1357 51.9966C86.1194 52.0466 86.1574 52.0816 86.196 52.112C86.4329 52.3785 87.1968 53.0966 88.7211 53.3241C90.4731 53.5684 93.0738 53.1069 96.3202 52.161C99.0424 51.3751 102.159 50.0192 103.684 49.0934Z"
              fill="#00AEC7"
            />
            <path
              fill-rule="evenodd"
              clip-rule="evenodd"
              d="M103.922 50.468C102.463 51.4752 100.486 52.4436 98.1185 53.2712C95.7187 54.1122 93.1341 54.8278 90.3215 55.2942C90.2682 55.3114 90.224 55.3465 90.21 55.4013C90.21 55.4384 90.224 55.4784 90.2467 55.499C90.7091 55.8703 91.3076 56.0873 92.0429 56.1666C92.9483 56.2694 94.0413 56.1473 95.2957 55.8154C96.4127 55.5157 97.4786 55.0177 98.6878 54.4312C99.8378 53.8695 100.934 53.2166 101.866 52.5435C102.82 51.8592 103.538 51.1856 103.985 50.595C103.991 50.5129 103.963 50.477 103.922 50.468Z"
              fill="#00AEC7"
            />
            <path
              fill-rule="evenodd"
              clip-rule="evenodd"
              d="M92.1046 24.4781C92.688 25.1094 93.4417 25.5626 94.3616 25.8541L94.43 25.8778C94.6876 25.9476 110.018 30.0198 114.078 31.1254C115.854 31.607 117.26 31.993 117.919 32.1832C117.989 32.1881 118.023 32.1602 118.032 32.1177C118.032 32.0855 118.013 32.0525 117.973 32.0353C115.408 30.9953 99.6102 24.8801 93.6584 22.5801L91.153 21.6023C91.069 21.5925 91.0269 21.5968 90.9949 21.6296C90.9707 21.6566 90.9658 21.7048 90.9684 21.7267C90.9898 21.9416 91.1188 23.0916 91.6294 23.8767C91.776 24.106 91.935 24.3008 92.1046 24.4781Z"
              fill="#00AEC7"
            />
            <path
              fill-rule="evenodd"
              clip-rule="evenodd"
              d="M92.7672 18.3921C93.0744 18.7735 93.3657 19.0206 93.9264 19.3617C94.1135 19.4769 94.3022 19.599 94.5174 19.7018L95.9314 20.4251C96.7349 20.8346 108.575 26.402 110.304 27.2691C112.352 28.2845 114.395 29.2575 115.29 29.7105C115.38 29.728 115.423 29.7007 115.399 29.5958C113.194 28.2088 104.721 22.8287 98.6725 19.0582L94.3351 16.4117L93.5419 15.92L92.0682 15.02C91.9865 14.9896 91.9497 14.9973 91.9201 15.02C91.8734 15.037 91.8593 15.0772 91.8593 15.1066C91.8437 15.3114 91.8259 16.4338 92.1675 17.2898C92.3258 17.6658 92.5226 18.0677 92.7672 18.3921Z"
              fill="#00AEC7"
            />
            <path
              fill-rule="evenodd"
              clip-rule="evenodd"
              d="M103.435 53.1439C103.414 53.1413 103.382 53.147 103.363 53.1589C101.403 55.1068 98.5064 56.2037 97.5474 56.5016C97.4928 56.5086 97.4558 56.5516 97.4453 56.6029C97.4453 56.6505 97.4798 56.7036 97.5209 56.7258C97.6708 56.801 98.835 57.4326 101.043 56.306C102.299 55.666 102.935 54.633 103.502 53.2609C103.523 53.1787 103.475 53.147 103.435 53.1439Z"
              fill="#00AEC7"
            />
            <path
              fill-rule="evenodd"
              clip-rule="evenodd"
              d="M117.538 36.7642C116.552 37.0458 112.795 38.0242 109.476 38.874C106.605 39.6205 103.382 40.5081 103.382 40.5081C103.043 40.5929 103.167 40.7331 103.204 40.7851C103.288 40.9222 103.475 41.2165 103.689 41.5798C104.204 42.4512 104.905 42.3386 105.533 42.1168C105.649 42.0768 117.099 37.2587 117.613 36.909C117.703 36.8595 117.645 36.817 117.64 36.7892C117.63 36.7544 117.569 36.7642 117.538 36.7642Z"
              fill="#00AEC7"
            />
            <path
              fill-rule="evenodd"
              clip-rule="evenodd"
              d="M112.51 44.7764L112.437 44.8032C110.925 46.0704 108.619 48.1057 106.231 50.156C106.004 50.3397 105.918 50.6796 105.824 51.0936C105.672 51.7775 105.324 52.6729 105.324 52.6729C105.257 52.8772 105.353 52.9622 105.545 52.762C107.385 50.7618 111.461 46.2131 112.565 44.9132C112.588 44.8264 112.556 44.7836 112.51 44.7764Z"
              fill="#00AEC7"
            />
            <path
              fill-rule="evenodd"
              clip-rule="evenodd"
              d="M119.761 33.6821C117.727 33.3028 92.9877 28.8756 92.9724 28.8756C92.9275 28.8707 92.8764 28.8977 92.8384 28.9323C92.8205 28.9797 92.832 29.0297 92.8435 29.0804C93.2446 30.3719 94.2102 31.6638 95.879 32.1851C96.0722 32.2449 96.2349 32.2652 96.42 32.283C96.42 32.283 117.398 33.6698 119.734 33.8334C119.793 33.8334 119.832 33.8084 119.832 33.7669C119.832 33.7259 119.803 33.687 119.761 33.6821Z"
              fill="#00AEC7"
            />
            <path
              fill-rule="evenodd"
              clip-rule="evenodd"
              d="M118.73 35.1084C117.992 35.1303 116.481 35.1362 114.591 35.1434C112.413 35.1532 109.722 35.1633 107.211 35.1679C103.839 35.1787 98.4833 35.2133 98.4833 35.2133C98.4488 35.2182 98.407 35.2357 98.3804 35.2733C98.3544 35.3125 98.3544 35.3475 98.3842 35.3826C98.4542 35.6119 98.7675 36.1893 99.1047 36.5503C99.7798 37.2556 100.51 37.6253 101.27 37.7054C101.361 37.7147 101.45 37.7147 101.542 37.7147C101.632 37.7147 101.721 37.7021 101.825 37.6853C101.926 37.6727 117.872 35.4076 118.735 35.2684C118.775 35.2607 118.803 35.2303 118.812 35.1981C118.812 35.1556 118.775 35.1107 118.73 35.1084Z"
              fill="#00AEC7"
            />
            <path
              fill-rule="evenodd"
              clip-rule="evenodd"
              d="M116.257 39.011C115.159 39.6928 112.299 41.4586 109.858 42.9399C108.489 43.7781 106.762 44.7511 105.868 45.3141C105.764 45.3798 105.68 45.3775 105.73 45.6563C105.73 45.6563 105.77 45.9235 105.798 46.2425C105.894 47.5795 106.431 47.4321 107.232 46.8132L107.326 46.7359C110.081 44.4468 115.196 40.104 116.31 39.1589C116.338 39.0612 116.31 39.0267 116.257 39.011Z"
              fill="#00AEC7"
            />
            <path
              fill-rule="evenodd"
              clip-rule="evenodd"
              d="M75.8347 38.5604C75.8347 41.8596 73.9619 44.998 69.8888 44.998C66.2487 44.998 63.6411 42.529 63.8071 36.5874C63.9697 30.8852 66.6907 28.3784 70.2825 28.3784C70.5641 28.3784 70.8289 28.3665 71.085 28.3438V28.3492H75.8347V38.5604ZM70.1165 24.5198C64.6351 24.5275 59.4787 28.6036 59.2547 36.54C59.0546 43.7581 62.7802 48.812 69.0827 48.812C74.2639 48.812 76.0831 45.1673 76.0831 45.1673C76.377 47.6064 77.6865 48.3508 80.2851 48.3508V24.5198H70.1165Z"
              fill="#0033A0"
            />
            <path
              fill-rule="evenodd"
              clip-rule="evenodd"
              d="M35.1886 24.5198L35.2039 41.0448C35.2039 43.4569 33.2295 44.6659 30.6212 44.6659C27.876 44.6659 26.0788 43.4569 26.0788 41.0448L26.0446 28.6806C26.0392 25.156 23.8547 24.5198 21.9316 24.5198V42.0595C21.9316 46.4891 25.8779 48.6626 30.4874 48.6626C34.9593 48.6626 39.3357 46.4891 39.3357 42.0595L39.3319 29.2197C39.3319 25.7527 38.0405 24.5198 35.1886 24.5198Z"
              fill="#0033A0"
            />
            <path
              fill-rule="evenodd"
              clip-rule="evenodd"
              d="M12.1652 35.1929L7.12391 33.7964C5.73651 33.4093 4.46962 32.8015 4.46962 31.0929C4.46962 29.3111 5.53685 28.4412 7.77855 28.4412H12.2635C14.2463 28.4412 16.6077 27.7749 16.6126 24.5198L8.17302 24.5275C2.97523 24.5329 0 27.1812 0 30.9782C0 34.5119 2.22357 36.4978 6.18868 37.5625L10.5758 38.7351C12.3904 39.2285 13.0389 40.3731 13.0389 41.5483C13.0389 43.3391 11.9193 44.4193 9.19608 44.4347L0.770298 44.5012V48.3508H9.33753C14.5328 48.3508 17.5111 45.5339 17.5111 41.8279C17.5111 38.0958 16.055 36.2607 12.1652 35.1929Z"
              fill="#0033A0"
            />
            <path
              fill-rule="evenodd"
              clip-rule="evenodd"
              d="M53.518 24.5198C48.4104 24.5198 44.8926 27.4989 44.8926 33.6343V48.3508H49.0055V33.4921C49.0055 30.3338 50.6932 28.4412 53.8724 28.4412H55.0949C58.7036 28.4412 59.2918 26.5577 59.2918 24.5198H53.518Z"
              fill="#0033A0"
            />
          </svg>