<svg width="111" height="39" viewBox="0 0 111 39" fill="none" xmlns="http://www.w3.org/2000/svg">
<path d="M95.4796 31.1192C95.5249 31.0513 95.4796 31.006 95.4343 30.9834C93.305 31.8209 88.6839 32.6585 85.807 33.0886C83.3153 33.4508 81.1633 33.5187 79.9854 33.6092L79.4417 33.6545C79.3737 33.6545 79.3511 33.6998 79.3284 33.745C79.3058 33.7903 79.3511 33.813 79.3737 33.8582C79.6003 34.1072 80.3025 34.7637 81.7069 34.9674C83.3153 35.1938 85.7164 34.7637 88.7065 33.9035C91.1983 33.2018 94.0752 31.9568 95.4796 31.1192Z" fill="white"/>
<path d="M95.7064 32.3643C94.3699 33.2924 92.5351 34.1752 90.3605 34.9222C88.1405 35.6918 85.762 36.3483 83.1797 36.7557C83.1344 36.7784 83.0891 36.801 83.0664 36.8463C83.0664 36.8689 83.0891 36.9142 83.0891 36.9368C83.5195 37.2764 84.0631 37.4801 84.7427 37.548C85.5808 37.6385 86.5775 37.5254 87.7328 37.2311C88.7521 36.9594 89.7488 36.5067 90.8588 35.9634C91.9235 35.4428 92.9202 34.8543 93.781 34.2431C94.6644 33.6093 95.3213 32.9981 95.7291 32.4774C95.7744 32.4095 95.7291 32.3869 95.7064 32.3643Z" fill="white"/>
<path d="M84.8104 8.66392C85.354 9.22983 86.0336 9.65992 86.8944 9.90892L86.9624 9.93156C87.1889 9.99947 101.324 13.7118 105.062 14.7079C106.693 15.1379 107.984 15.5001 108.595 15.6812C108.663 15.6812 108.686 15.6586 108.709 15.6133C108.709 15.5907 108.686 15.5454 108.663 15.5454C106.308 14.5947 91.742 9.0261 86.2601 6.92091L83.9496 6.03809C83.8816 6.03809 83.8363 6.03809 83.8137 6.06072C83.791 6.08336 83.791 6.12863 83.791 6.15127C83.8137 6.355 83.9269 7.39627 84.4026 8.12064C84.5159 8.32437 84.6518 8.50546 84.8104 8.66392Z" fill="white"/>
<path d="M85.4229 3.11817C85.6947 3.45772 85.9665 3.68408 86.4875 4.00099C86.6687 4.11417 86.8273 4.22736 87.0312 4.3179L88.3224 4.97436C89.0699 5.35918 99.9657 10.4297 101.551 11.222C103.432 12.1501 105.312 13.0329 106.15 13.4404C106.24 13.463 106.263 13.4404 106.24 13.3272C104.202 12.0596 96.4093 7.14746 90.8368 3.70672L86.85 1.28462L86.1251 0.831889L84.7659 0.0169773C84.698 -0.00565911 84.6527 -0.00565911 84.63 0.0169773C84.5847 0.0396138 84.5847 0.06225 84.5847 0.0848865C84.5621 0.265978 84.5621 1.28462 84.8792 2.07689C85.0151 2.46171 85.1963 2.8239 85.4229 3.11817Z" fill="white"/>
<path d="M95.2526 34.8096C95.2299 34.8096 95.2073 34.8096 95.1846 34.8322C93.3724 36.5979 90.7221 37.6165 89.8387 37.8881C89.7934 37.8881 89.748 37.9334 89.748 37.9787C89.748 38.024 89.7707 38.0692 89.816 38.0919C89.9519 38.1598 91.0166 38.7257 93.0553 37.707C94.2106 37.1185 94.7995 36.1904 95.3205 34.9228C95.3432 34.8548 95.2979 34.8096 95.2526 34.8096Z" fill="white"/>
<path d="M108.232 19.8691C107.326 20.1181 103.86 21.0236 100.802 21.7932C98.152 22.4723 95.1845 23.2872 95.1845 23.2872C94.8674 23.3552 94.9806 23.491 95.0259 23.5362C95.0939 23.6721 95.2751 23.9211 95.479 24.2606C95.9547 25.0529 96.5889 24.9623 97.1779 24.7586C97.2912 24.7133 107.825 20.3219 108.3 20.005C108.391 19.9597 108.323 19.9144 108.323 19.8918C108.323 19.8691 108.278 19.8691 108.232 19.8691Z" fill="white"/>
<path d="M103.612 27.1807L103.544 27.2033C102.162 28.3578 100.033 30.2139 97.8353 32.0928C97.6314 32.2512 97.5408 32.5681 97.4502 32.953C97.3143 33.5868 96.9972 34.4017 96.9972 34.4017C96.9292 34.5828 97.0198 34.6733 97.201 34.4922C98.9 32.6587 102.66 28.5162 103.657 27.3391C103.68 27.2259 103.657 27.1807 103.612 27.1807Z" fill="white"/>
<path d="M110.294 17.0624C108.414 16.7228 85.6479 12.6709 85.6253 12.6709C85.58 12.6709 85.5347 12.6935 85.512 12.7162C85.4894 12.7614 85.512 12.8067 85.512 12.852C85.8745 14.0291 86.7806 15.2062 88.2983 15.6815C88.4795 15.7268 88.6154 15.7495 88.7966 15.7721C88.7966 15.7721 108.119 17.0397 110.271 17.1756C110.316 17.1756 110.362 17.1529 110.362 17.1076C110.362 17.1076 110.316 17.0624 110.294 17.0624Z" fill="white"/>
<path d="M109.342 18.375C108.663 18.3976 107.281 18.3976 105.537 18.3976C103.521 18.3976 101.052 18.4203 98.741 18.4203C95.6376 18.4203 90.6994 18.4655 90.6994 18.4655C90.6767 18.4655 90.6314 18.4882 90.6088 18.5108C90.5861 18.5561 90.5861 18.5787 90.6088 18.6014C90.6767 18.8051 90.9712 19.3484 91.2657 19.6653C91.8773 20.2991 92.5569 20.6386 93.2591 20.7292C93.3497 20.7292 93.4177 20.7292 93.5083 20.7292C93.5989 20.7292 93.6669 20.7066 93.7801 20.7066C93.8707 20.6839 108.549 18.624 109.342 18.5108C109.388 18.5108 109.41 18.4655 109.41 18.4429C109.41 18.4203 109.388 18.375 109.342 18.375Z" fill="white"/>
<path d="M107.055 21.9287C106.036 22.5399 103.408 24.1697 101.165 25.5053C99.8968 26.2749 98.3111 27.1577 97.4956 27.6784C97.405 27.7463 97.3144 27.7463 97.3597 27.9953C97.3597 27.9953 97.405 28.2443 97.4277 28.5385C97.5183 29.7609 98.0166 29.6251 98.7415 29.0592L98.8321 28.9913C101.369 26.9087 106.081 22.9473 107.1 22.0872C107.146 21.974 107.1 21.9513 107.055 21.9287Z" fill="white"/>
<path d="M64.5602 8.70916C59.5087 8.70916 54.7744 12.4442 54.5479 19.6652C54.3667 26.2524 57.7872 30.8476 63.6088 30.8476C68.3885 30.8476 70.0648 27.52 70.0648 27.52C70.3366 29.7384 71.5372 30.4175 73.9383 30.4175V8.68652H64.5602V8.70916ZM69.8382 21.5214C69.8382 24.532 68.1167 27.3842 64.3564 27.3842C61.0038 27.3842 58.6026 25.1432 58.7612 19.7105C58.9198 14.5041 61.4115 12.2178 64.7188 12.2178C64.968 12.2178 65.2171 12.2178 65.4663 12.1952H69.8382V21.5214Z" fill="white"/>
<path d="M32.3921 8.70898L32.4147 23.7849C32.4147 25.9806 30.6025 27.0898 28.2014 27.0898C25.6643 27.0898 24.0107 25.9806 24.0107 23.7849L23.988 12.5119C23.988 9.29753 21.972 8.70898 20.2051 8.70898V24.713C20.2051 28.7422 23.8295 30.7342 28.0881 30.7342C32.2108 30.7342 36.243 28.7422 36.243 24.713V13.0099C36.2203 9.84081 35.0197 8.70898 32.3921 8.70898Z" fill="white"/>
<path d="M11.1903 18.4427L6.54654 17.175C5.27801 16.8128 4.10008 16.2696 4.10008 14.7076C4.10008 13.0778 5.07414 12.2855 7.15816 12.2855H11.2809C13.1157 12.2855 15.2904 11.6744 15.2904 8.70898H7.5206C2.74094 8.70898 0 11.1311 0 14.5945C0 17.8088 2.03872 19.6198 5.7084 20.5931L9.74053 21.657C11.4168 22.1098 12.0058 23.151 12.0058 24.215C12.0058 25.8448 10.9638 26.8408 8.472 26.8408L0.702224 26.9313V30.44H8.58526C13.3649 30.44 16.1059 27.8821 16.1059 24.4866C16.1285 21.0911 14.7694 19.416 11.1903 18.4427Z" fill="white"/>
<path d="M49.2908 8.70898C44.5791 8.70898 41.3398 11.4254 41.3398 17.0166V30.44H45.1228V16.8807C45.1228 14.0059 46.6858 12.2855 49.608 12.2855H50.7406C54.0705 12.2855 54.6142 10.5652 54.6142 8.70898H49.2908Z" fill="white"/>
</svg>
