<svg width="149" height="101" viewBox="0 0 149 101" fill="none" xmlns="http://www.w3.org/2000/svg">
<g opacity="0.3">
<path d="M15.7278 8.92123C15.7278 13.1922 12.3127 16.6432 8.11388 16.6432C3.91507 16.6432 0.5 13.1922 0.5 8.92123C0.5 4.65022 3.91507 1.19922 8.11388 1.19922C12.3127 1.19922 15.7278 4.65022 15.7278 8.92123Z" stroke="#00AEC7"/>
<path d="M15.7278 64.8309C15.7278 69.1019 12.3127 72.5529 8.11388 72.5529C3.91507 72.5529 0.5 69.1019 0.5 64.8309C0.5 60.5599 3.91507 57.1089 8.11388 57.1089C12.3127 57.1089 15.7278 60.5599 15.7278 64.8309Z" stroke="#00AEC7"/>
<path d="M43.8567 8.92123C43.8567 13.1922 40.4416 16.6432 36.2428 16.6432C32.044 16.6432 28.6289 13.1922 28.6289 8.92123C28.6289 4.65022 32.044 1.19922 36.2428 1.19922C40.4416 1.19922 43.8567 4.65022 43.8567 8.92123Z" stroke="#00AEC7"/>
<path d="M43.8567 64.8309C43.8567 69.1019 40.4416 72.5529 36.2428 72.5529C32.044 72.5529 28.6289 69.1019 28.6289 64.8309C28.6289 60.5599 32.044 57.1089 36.2428 57.1089C40.4416 57.1089 43.8567 60.5599 43.8567 64.8309Z" stroke="#00AEC7"/>
<path d="M71.9836 8.92123C71.9836 13.1922 68.5686 16.6432 64.3697 16.6432C60.1709 16.6432 56.7559 13.1922 56.7559 8.92123C56.7559 4.65022 60.1709 1.19922 64.3697 1.19922C68.5686 1.19922 71.9836 4.65022 71.9836 8.92123Z" stroke="#00AEC7"/>
<path d="M71.9836 64.8309C71.9836 69.1019 68.5686 72.5529 64.3697 72.5529C60.1709 72.5529 56.7559 69.1019 56.7559 64.8309C56.7559 60.5599 60.1709 57.1089 64.3697 57.1089C68.5686 57.1089 71.9836 60.5599 71.9836 64.8309Z" stroke="#00AEC7"/>
<path d="M100.113 8.92123C100.113 13.1922 96.6975 16.6432 92.4986 16.6432C88.2998 16.6432 84.8848 13.1922 84.8848 8.92123C84.8848 4.65022 88.2998 1.19922 92.4986 1.19922C96.6975 1.19922 100.113 4.65022 100.113 8.92123Z" stroke="#00AEC7"/>
<path d="M100.113 64.8309C100.113 69.1019 96.6975 72.5529 92.4986 72.5529C88.2998 72.5529 84.8848 69.1019 84.8848 64.8309C84.8848 60.5599 88.2998 57.1089 92.4986 57.1089C96.6975 57.1089 100.113 60.5599 100.113 64.8309Z" stroke="#00AEC7"/>
<path d="M127.157 8.92123C127.157 13.1922 123.742 16.6432 119.544 16.6432C115.345 16.6432 111.93 13.1922 111.93 8.92123C111.93 4.65022 115.345 1.19922 119.544 1.19922C123.742 1.19922 127.157 4.65022 127.157 8.92123Z" stroke="#00AEC7"/>
<path d="M127.157 64.8309C127.157 69.1019 123.742 72.5529 119.544 72.5529C115.345 72.5529 111.93 69.1019 111.93 64.8309C111.93 60.5599 115.345 57.1089 119.544 57.1089C123.742 57.1089 127.157 60.5599 127.157 64.8309Z" stroke="#00AEC7"/>
<path d="M155.286 8.92123C155.286 13.1922 151.871 16.6432 147.672 16.6432C143.474 16.6432 140.059 13.1922 140.059 8.92123C140.059 4.65022 143.474 1.19922 147.672 1.19922C151.871 1.19922 155.286 4.65022 155.286 8.92123Z" stroke="#00AEC7"/>
<path d="M155.286 64.8309C155.286 69.1019 151.871 72.5529 147.672 72.5529C143.474 72.5529 140.059 69.1019 140.059 64.8309C140.059 60.5599 143.474 57.1089 147.672 57.1089C151.871 57.1089 155.286 60.5599 155.286 64.8309Z" stroke="#00AEC7"/>
<path d="M15.7278 37.4242C15.7278 41.6952 12.3127 45.1462 8.11388 45.1462C3.91507 45.1462 0.5 41.6952 0.5 37.4242C0.5 33.1532 3.91507 29.7021 8.11388 29.7021C12.3127 29.7021 15.7278 33.1532 15.7278 37.4242Z" stroke="#00AEC7"/>
<path d="M15.7278 92.2376C15.7278 96.5087 12.3127 99.9597 8.11388 99.9597C3.91507 99.9597 0.5 96.5087 0.5 92.2376C0.5 87.9666 3.91507 84.5156 8.11388 84.5156C12.3127 84.5156 15.7278 87.9666 15.7278 92.2376Z" stroke="#00AEC7"/>
<path d="M43.8567 37.4242C43.8567 41.6952 40.4416 45.1462 36.2428 45.1462C32.044 45.1462 28.6289 41.6952 28.6289 37.4242C28.6289 33.1532 32.044 29.7021 36.2428 29.7021C40.4416 29.7021 43.8567 33.1532 43.8567 37.4242Z" stroke="#00AEC7"/>
<path d="M43.8567 92.2376C43.8567 96.5087 40.4416 99.9597 36.2428 99.9597C32.044 99.9597 28.6289 96.5087 28.6289 92.2376C28.6289 87.9666 32.044 84.5156 36.2428 84.5156C40.4416 84.5156 43.8567 87.9666 43.8567 92.2376Z" stroke="#00AEC7"/>
<path d="M71.9836 37.4242C71.9836 41.6952 68.5686 45.1462 64.3697 45.1462C60.1709 45.1462 56.7559 41.6952 56.7559 37.4242C56.7559 33.1532 60.1709 29.7021 64.3697 29.7021C68.5686 29.7021 71.9836 33.1532 71.9836 37.4242Z" stroke="#00AEC7"/>
<path d="M71.9836 92.2376C71.9836 96.5087 68.5685 99.9597 64.3697 99.9597C60.1709 99.9597 56.7559 96.5087 56.7559 92.2376C56.7559 87.9666 60.1709 84.5156 64.3697 84.5156C68.5685 84.5156 71.9836 87.9666 71.9836 92.2376Z" stroke="#00AEC7"/>
<path d="M100.113 37.4242C100.113 41.6952 96.6975 45.1462 92.4986 45.1462C88.2998 45.1462 84.8848 41.6952 84.8848 37.4242C84.8848 33.1532 88.2998 29.7021 92.4986 29.7021C96.6975 29.7021 100.113 33.1532 100.113 37.4242Z" stroke="#00AEC7"/>
<path d="M100.113 92.2376C100.113 96.5087 96.6975 99.9597 92.4986 99.9597C88.2998 99.9597 84.8848 96.5087 84.8848 92.2376C84.8848 87.9666 88.2998 84.5156 92.4986 84.5156C96.6975 84.5156 100.113 87.9666 100.113 92.2376Z" stroke="#00AEC7"/>
<path d="M127.157 37.4242C127.157 41.6952 123.742 45.1462 119.544 45.1462C115.345 45.1462 111.93 41.6952 111.93 37.4242C111.93 33.1532 115.345 29.7021 119.544 29.7021C123.742 29.7021 127.157 33.1532 127.157 37.4242Z" stroke="#00AEC7"/>
<path d="M127.157 92.2376C127.157 96.5087 123.742 99.9597 119.544 99.9597C115.345 99.9597 111.93 96.5087 111.93 92.2376C111.93 87.9666 115.345 84.5156 119.544 84.5156C123.742 84.5156 127.157 87.9666 127.157 92.2376Z" stroke="#00AEC7"/>
<path d="M155.286 37.4242C155.286 41.6952 151.871 45.1462 147.672 45.1462C143.474 45.1462 140.059 41.6952 140.059 37.4242C140.059 33.1532 143.474 29.7021 147.672 29.7021C151.871 29.7021 155.286 33.1532 155.286 37.4242Z" stroke="#00AEC7"/>
<path d="M155.286 92.2376C155.286 96.5087 151.871 99.9597 147.672 99.9597C143.474 99.9597 140.059 96.5087 140.059 92.2376C140.059 87.9666 143.474 84.5156 147.672 84.5156C151.871 84.5156 155.286 87.9666 155.286 92.2376Z" stroke="#00AEC7"/>
</g>
</svg>
