<svg width="406" height="78" viewBox="0 0 406 78" fill="none" xmlns="http://www.w3.org/2000/svg">
<g opacity="0.3">
<path d="M12.258 6.42857C12.258 9.70649 9.62225 12.3571 6.379 12.3571C3.13576 12.3571 0.5 9.70649 0.5 6.42857C0.5 3.15066 3.13576 0.5 6.379 0.5C9.62225 0.5 12.258 3.15066 12.258 6.42857Z" stroke="#00AEC7"/>
<path d="M12.258 50.1424C12.258 53.4204 9.62225 56.071 6.379 56.071C3.13576 56.071 0.5 53.4204 0.5 50.1424C0.5 46.8645 3.13576 44.2139 6.379 44.2139C9.62225 44.2139 12.258 46.8645 12.258 50.1424Z" stroke="#00AEC7"/>
<path d="M34.3713 6.42857C34.3713 9.70649 31.7355 12.3571 28.4923 12.3571C25.249 12.3571 22.6133 9.70649 22.6133 6.42857C22.6133 3.15066 25.249 0.5 28.4923 0.5C31.7355 0.5 34.3713 3.15066 34.3713 6.42857Z" stroke="#00AEC7"/>
<path d="M34.3713 50.1424C34.3713 53.4204 31.7355 56.071 28.4923 56.071C25.249 56.071 22.6133 53.4204 22.6133 50.1424C22.6133 46.8645 25.249 44.2139 28.4923 44.2139C31.7355 44.2139 34.3713 46.8645 34.3713 50.1424Z" stroke="#00AEC7"/>
<path d="M56.4865 6.42857C56.4865 9.70649 53.8508 12.3571 50.6075 12.3571C47.3643 12.3571 44.7285 9.70649 44.7285 6.42857C44.7285 3.15066 47.3643 0.5 50.6075 0.5C53.8508 0.5 56.4865 3.15066 56.4865 6.42857Z" stroke="#00AEC7"/>
<path d="M56.4865 50.1424C56.4865 53.4204 53.8508 56.071 50.6075 56.071C47.3643 56.071 44.7285 53.4204 44.7285 50.1424C44.7285 46.8645 47.3643 44.2139 50.6075 44.2139C53.8508 44.2139 56.4865 46.8645 56.4865 50.1424Z" stroke="#00AEC7"/>
<path d="M78.5998 6.42857C78.5998 9.70649 75.964 12.3571 72.7208 12.3571C69.4776 12.3571 66.8418 9.70649 66.8418 6.42857C66.8418 3.15066 69.4776 0.5 72.7208 0.5C75.964 0.5 78.5998 3.15066 78.5998 6.42857Z" stroke="#00AEC7"/>
<path d="M78.5998 50.1424C78.5998 53.4204 75.964 56.071 72.7208 56.071C69.4776 56.071 66.8418 53.4204 66.8418 50.1424C66.8418 46.8645 69.4776 44.2139 72.7208 44.2139C75.964 44.2139 78.5998 46.8645 78.5998 50.1424Z" stroke="#00AEC7"/>
<path d="M99.8635 6.42857C99.8635 9.70649 97.2277 12.3571 93.9845 12.3571C90.7412 12.3571 88.1055 9.70649 88.1055 6.42857C88.1055 3.15066 90.7412 0.5 93.9845 0.5C97.2277 0.5 99.8635 3.15066 99.8635 6.42857Z" stroke="#00AEC7"/>
<path d="M99.8635 50.1424C99.8635 53.4204 97.2277 56.071 93.9845 56.071C90.7412 56.071 88.1055 53.4204 88.1055 50.1424C88.1055 46.8645 90.7412 44.2139 93.9845 44.2139C97.2277 44.2139 99.8635 46.8645 99.8635 50.1424Z" stroke="#00AEC7"/>
<path d="M121.977 6.42857C121.977 9.70649 119.341 12.3571 116.098 12.3571C112.855 12.3571 110.219 9.70649 110.219 6.42857C110.219 3.15066 112.855 0.5 116.098 0.5C119.341 0.5 121.977 3.15066 121.977 6.42857Z" stroke="#00AEC7"/>
<path d="M121.977 50.1424C121.977 53.4204 119.341 56.071 116.098 56.071C112.855 56.071 110.219 53.4204 110.219 50.1424C110.219 46.8645 112.855 44.2139 116.098 44.2139C119.341 44.2139 121.977 46.8645 121.977 50.1424Z" stroke="#00AEC7"/>
<path d="M144.942 6.42857C144.942 9.70649 142.306 12.3571 139.063 12.3571C135.819 12.3571 133.184 9.70649 133.184 6.42857C133.184 3.15066 135.819 0.5 139.063 0.5C142.306 0.5 144.942 3.15066 144.942 6.42857Z" stroke="#00AEC7"/>
<path d="M144.942 50.1424C144.942 53.4204 142.306 56.071 139.063 56.071C135.819 56.071 133.184 53.4204 133.184 50.1424C133.184 46.8645 135.819 44.2139 139.063 44.2139C142.306 44.2139 144.942 46.8645 144.942 50.1424Z" stroke="#00AEC7"/>
<path d="M167.906 6.42857C167.906 9.70649 165.271 12.3571 162.027 12.3571C158.784 12.3571 156.148 9.70649 156.148 6.42857C156.148 3.15066 158.784 0.5 162.027 0.5C165.271 0.5 167.906 3.15066 167.906 6.42857Z" stroke="#00AEC7"/>
<path d="M167.906 50.1424C167.906 53.4204 165.271 56.071 162.027 56.071C158.784 56.071 156.148 53.4204 156.148 50.1424C156.148 46.8645 158.784 44.2139 162.027 44.2139C165.271 44.2139 167.906 46.8645 167.906 50.1424Z" stroke="#00AEC7"/>
<path d="M190.869 6.42857C190.869 9.70649 188.234 12.3571 184.99 12.3571C181.747 12.3571 179.111 9.70649 179.111 6.42857C179.111 3.15066 181.747 0.5 184.99 0.5C188.234 0.5 190.869 3.15066 190.869 6.42857Z" stroke="#00AEC7"/>
<path d="M190.869 50.1424C190.869 53.4204 188.234 56.071 184.99 56.071C181.747 56.071 179.111 53.4204 179.111 50.1424C179.111 46.8645 181.747 44.2139 184.99 44.2139C188.234 44.2139 190.869 46.8645 190.869 50.1424Z" stroke="#00AEC7"/>
<path d="M212.985 6.42857C212.985 9.70649 210.349 12.3571 207.106 12.3571C203.862 12.3571 201.227 9.70649 201.227 6.42857C201.227 3.15066 203.862 0.5 207.106 0.5C210.349 0.5 212.985 3.15066 212.985 6.42857Z" stroke="#00AEC7"/>
<path d="M212.985 50.1424C212.985 53.4204 210.349 56.071 207.106 56.071C203.862 56.071 201.227 53.4204 201.227 50.1424C201.227 46.8645 203.862 44.2139 207.106 44.2139C210.349 44.2139 212.985 46.8645 212.985 50.1424Z" stroke="#00AEC7"/>
<path d="M234.248 6.42857C234.248 9.70649 231.612 12.3571 228.369 12.3571C225.126 12.3571 222.49 9.70649 222.49 6.42857C222.49 3.15066 225.126 0.5 228.369 0.5C231.612 0.5 234.248 3.15066 234.248 6.42857Z" stroke="#00AEC7"/>
<path d="M234.248 50.1424C234.248 53.4204 231.612 56.071 228.369 56.071C225.126 56.071 222.49 53.4204 222.49 50.1424C222.49 46.8645 225.126 44.2139 228.369 44.2139C231.612 44.2139 234.248 46.8645 234.248 50.1424Z" stroke="#00AEC7"/>
<path d="M12.258 28.7147C12.258 31.9926 9.62225 34.6433 6.379 34.6433C3.13576 34.6433 0.5 31.9926 0.5 28.7147C0.5 25.4368 3.13576 22.7861 6.379 22.7861C9.62225 22.7861 12.258 25.4368 12.258 28.7147Z" stroke="#00AEC7"/>
<path d="M12.258 71.5711C12.258 74.8491 9.62225 77.4997 6.379 77.4997C3.13576 77.4997 0.5 74.8491 0.5 71.5711C0.5 68.2932 3.13576 65.6426 6.379 65.6426C9.62225 65.6426 12.258 68.2932 12.258 71.5711Z" stroke="#00AEC7"/>
<path d="M34.3713 28.7147C34.3713 31.9926 31.7355 34.6433 28.4923 34.6433C25.249 34.6433 22.6133 31.9926 22.6133 28.7147C22.6133 25.4368 25.249 22.7861 28.4923 22.7861C31.7355 22.7861 34.3713 25.4368 34.3713 28.7147Z" stroke="#00AEC7"/>
<path d="M34.3713 71.5711C34.3713 74.8491 31.7355 77.4997 28.4923 77.4997C25.249 77.4997 22.6133 74.8491 22.6133 71.5711C22.6133 68.2932 25.249 65.6426 28.4923 65.6426C31.7355 65.6426 34.3713 68.2932 34.3713 71.5711Z" stroke="#00AEC7"/>
<path d="M56.4865 28.7147C56.4865 31.9926 53.8508 34.6433 50.6075 34.6433C47.3643 34.6433 44.7285 31.9926 44.7285 28.7147C44.7285 25.4368 47.3643 22.7861 50.6075 22.7861C53.8508 22.7861 56.4865 25.4368 56.4865 28.7147Z" stroke="#00AEC7"/>
<path d="M56.4865 71.5711C56.4865 74.8491 53.8508 77.4997 50.6075 77.4997C47.3643 77.4997 44.7285 74.8491 44.7285 71.5711C44.7285 68.2932 47.3643 65.6426 50.6075 65.6426C53.8508 65.6426 56.4865 68.2932 56.4865 71.5711Z" stroke="#00AEC7"/>
<path d="M78.5998 28.7147C78.5998 31.9926 75.964 34.6433 72.7208 34.6433C69.4776 34.6433 66.8418 31.9926 66.8418 28.7147C66.8418 25.4368 69.4776 22.7861 72.7208 22.7861C75.964 22.7861 78.5998 25.4368 78.5998 28.7147Z" stroke="#00AEC7"/>
<path d="M78.5998 71.5711C78.5998 74.8491 75.964 77.4997 72.7208 77.4997C69.4776 77.4997 66.8418 74.8491 66.8418 71.5711C66.8418 68.2932 69.4776 65.6426 72.7208 65.6426C75.964 65.6426 78.5998 68.2932 78.5998 71.5711Z" stroke="#00AEC7"/>
<path d="M99.8635 28.7147C99.8635 31.9926 97.2277 34.6433 93.9845 34.6433C90.7412 34.6433 88.1055 31.9926 88.1055 28.7147C88.1055 25.4368 90.7412 22.7861 93.9845 22.7861C97.2277 22.7861 99.8635 25.4368 99.8635 28.7147Z" stroke="#00AEC7"/>
<path d="M99.8635 71.5711C99.8635 74.8491 97.2277 77.4997 93.9845 77.4997C90.7412 77.4997 88.1055 74.8491 88.1055 71.5711C88.1055 68.2932 90.7412 65.6426 93.9845 65.6426C97.2277 65.6426 99.8635 68.2932 99.8635 71.5711Z" stroke="#00AEC7"/>
<path d="M121.977 28.7147C121.977 31.9926 119.341 34.6433 116.098 34.6433C112.855 34.6433 110.219 31.9926 110.219 28.7147C110.219 25.4368 112.855 22.7861 116.098 22.7861C119.341 22.7861 121.977 25.4368 121.977 28.7147Z" stroke="#00AEC7"/>
<path d="M121.977 71.5711C121.977 74.8491 119.341 77.4997 116.098 77.4997C112.855 77.4997 110.219 74.8491 110.219 71.5711C110.219 68.2932 112.855 65.6426 116.098 65.6426C119.341 65.6426 121.977 68.2932 121.977 71.5711Z" stroke="#00AEC7"/>
<path d="M144.942 28.7147C144.942 31.9926 142.306 34.6433 139.063 34.6433C135.819 34.6433 133.184 31.9926 133.184 28.7147C133.184 25.4368 135.819 22.7861 139.063 22.7861C142.306 22.7861 144.942 25.4368 144.942 28.7147Z" stroke="#00AEC7"/>
<path d="M144.942 71.5711C144.942 74.8491 142.306 77.4997 139.063 77.4997C135.819 77.4997 133.184 74.8491 133.184 71.5711C133.184 68.2932 135.819 65.6426 139.063 65.6426C142.306 65.6426 144.942 68.2932 144.942 71.5711Z" stroke="#00AEC7"/>
<path d="M167.906 28.7147C167.906 31.9926 165.271 34.6433 162.027 34.6433C158.784 34.6433 156.148 31.9926 156.148 28.7147C156.148 25.4368 158.784 22.7861 162.027 22.7861C165.271 22.7861 167.906 25.4368 167.906 28.7147Z" stroke="#00AEC7"/>
<path d="M167.906 71.5711C167.906 74.8491 165.271 77.4997 162.027 77.4997C158.784 77.4997 156.148 74.8491 156.148 71.5711C156.148 68.2932 158.784 65.6426 162.027 65.6426C165.271 65.6426 167.906 68.2932 167.906 71.5711Z" stroke="#00AEC7"/>
<path d="M190.869 28.7147C190.869 31.9926 188.234 34.6433 184.99 34.6433C181.747 34.6433 179.111 31.9926 179.111 28.7147C179.111 25.4368 181.747 22.7861 184.99 22.7861C188.234 22.7861 190.869 25.4368 190.869 28.7147Z" stroke="#00AEC7"/>
<path d="M190.869 71.5711C190.869 74.8491 188.234 77.4997 184.99 77.4997C181.747 77.4997 179.111 74.8491 179.111 71.5711C179.111 68.2932 181.747 65.6426 184.99 65.6426C188.234 65.6426 190.869 68.2932 190.869 71.5711Z" stroke="#00AEC7"/>
<path d="M212.985 28.7147C212.985 31.9926 210.349 34.6433 207.106 34.6433C203.862 34.6433 201.227 31.9926 201.227 28.7147C201.227 25.4368 203.862 22.7861 207.106 22.7861C210.349 22.7861 212.985 25.4368 212.985 28.7147Z" stroke="#00AEC7"/>
<path d="M212.985 71.5711C212.985 74.8491 210.349 77.4997 207.106 77.4997C203.862 77.4997 201.227 74.8491 201.227 71.5711C201.227 68.2932 203.862 65.6426 207.106 65.6426C210.349 65.6426 212.985 68.2932 212.985 71.5711Z" stroke="#00AEC7"/>
<path d="M234.248 28.7147C234.248 31.9926 231.612 34.6433 228.369 34.6433C225.126 34.6433 222.49 31.9926 222.49 28.7147C222.49 25.4368 225.126 22.7861 228.369 22.7861C231.612 22.7861 234.248 25.4368 234.248 28.7147Z" stroke="#00AEC7"/>
<path d="M234.248 71.5711C234.248 74.8491 231.612 77.4997 228.369 77.4997C225.126 77.4997 222.49 74.8491 222.49 71.5711C222.49 68.2932 225.126 65.6426 228.369 65.6426C231.612 65.6426 234.248 68.2932 234.248 71.5711Z" stroke="#00AEC7"/>
<path d="M255.51 6.42857C255.51 9.70649 252.874 12.3571 249.631 12.3571C246.388 12.3571 243.752 9.70649 243.752 6.42857C243.752 3.15066 246.388 0.5 249.631 0.5C252.874 0.5 255.51 3.15066 255.51 6.42857Z" stroke="#00AEC7"/>
<path d="M255.51 50.1424C255.51 53.4204 252.874 56.071 249.631 56.071C246.388 56.071 243.752 53.4204 243.752 50.1424C243.752 46.8645 246.388 44.2139 249.631 44.2139C252.874 44.2139 255.51 46.8645 255.51 50.1424Z" stroke="#00AEC7"/>
<path d="M277.625 6.42857C277.625 9.70649 274.989 12.3571 271.746 12.3571C268.503 12.3571 265.867 9.70649 265.867 6.42857C265.867 3.15066 268.503 0.5 271.746 0.5C274.989 0.5 277.625 3.15066 277.625 6.42857Z" stroke="#00AEC7"/>
<path d="M277.625 50.1424C277.625 53.4204 274.989 56.071 271.746 56.071C268.503 56.071 265.867 53.4204 265.867 50.1424C265.867 46.8645 268.503 44.2139 271.746 44.2139C274.989 44.2139 277.625 46.8645 277.625 50.1424Z" stroke="#00AEC7"/>
<path d="M299.738 6.42857C299.738 9.70649 297.103 12.3571 293.859 12.3571C290.616 12.3571 287.98 9.70649 287.98 6.42857C287.98 3.15066 290.616 0.5 293.859 0.5C297.103 0.5 299.738 3.15066 299.738 6.42857Z" stroke="#00AEC7"/>
<path d="M299.738 50.1424C299.738 53.4204 297.103 56.071 293.859 56.071C290.616 56.071 287.98 53.4204 287.98 50.1424C287.98 46.8645 290.616 44.2139 293.859 44.2139C297.103 44.2139 299.738 46.8645 299.738 50.1424Z" stroke="#00AEC7"/>
<path d="M321.852 6.42857C321.852 9.70649 319.216 12.3571 315.973 12.3571C312.73 12.3571 310.094 9.70649 310.094 6.42857C310.094 3.15066 312.73 0.5 315.973 0.5C319.216 0.5 321.852 3.15066 321.852 6.42857Z" stroke="#00AEC7"/>
<path d="M321.852 50.1424C321.852 53.4204 319.216 56.071 315.973 56.071C312.73 56.071 310.094 53.4204 310.094 50.1424C310.094 46.8645 312.73 44.2139 315.973 44.2139C319.216 44.2139 321.852 46.8645 321.852 50.1424Z" stroke="#00AEC7"/>
<path d="M343.115 6.42857C343.115 9.70649 340.48 12.3571 337.236 12.3571C333.993 12.3571 331.357 9.70649 331.357 6.42857C331.357 3.15066 333.993 0.5 337.236 0.5C340.48 0.5 343.115 3.15066 343.115 6.42857Z" stroke="#00AEC7"/>
<path d="M343.115 50.1424C343.115 53.4204 340.48 56.071 337.236 56.071C333.993 56.071 331.357 53.4204 331.357 50.1424C331.357 46.8645 333.993 44.2139 337.236 44.2139C340.48 44.2139 343.115 46.8645 343.115 50.1424Z" stroke="#00AEC7"/>
<path d="M365.229 6.42857C365.229 9.70649 362.593 12.3571 359.35 12.3571C356.106 12.3571 353.471 9.70649 353.471 6.42857C353.471 3.15066 356.106 0.5 359.35 0.5C362.593 0.5 365.229 3.15066 365.229 6.42857Z" stroke="#00AEC7"/>
<path d="M365.229 50.1424C365.229 53.4204 362.593 56.071 359.35 56.071C356.106 56.071 353.471 53.4204 353.471 50.1424C353.471 46.8645 356.106 44.2139 359.35 44.2139C362.593 44.2139 365.229 46.8645 365.229 50.1424Z" stroke="#00AEC7"/>
<path d="M388.194 6.42857C388.194 9.70649 385.558 12.3571 382.315 12.3571C379.071 12.3571 376.436 9.70649 376.436 6.42857C376.436 3.15066 379.071 0.5 382.315 0.5C385.558 0.5 388.194 3.15066 388.194 6.42857Z" stroke="#00AEC7"/>
<path d="M388.194 50.1424C388.194 53.4204 385.558 56.071 382.315 56.071C379.071 56.071 376.436 53.4204 376.436 50.1424C376.436 46.8645 379.071 44.2139 382.315 44.2139C385.558 44.2139 388.194 46.8645 388.194 50.1424Z" stroke="#00AEC7"/>
<path d="M411.158 6.42857C411.158 9.70649 408.523 12.3571 405.279 12.3571C402.036 12.3571 399.4 9.70649 399.4 6.42857C399.4 3.15066 402.036 0.5 405.279 0.5C408.523 0.5 411.158 3.15066 411.158 6.42857Z" stroke="#00AEC7"/>
<path d="M411.158 50.1424C411.158 53.4204 408.523 56.071 405.279 56.071C402.036 56.071 399.4 53.4204 399.4 50.1424C399.4 46.8645 402.036 44.2139 405.279 44.2139C408.523 44.2139 411.158 46.8645 411.158 50.1424Z" stroke="#00AEC7"/>
<path d="M255.51 28.7147C255.51 31.9926 252.874 34.6433 249.631 34.6433C246.388 34.6433 243.752 31.9926 243.752 28.7147C243.752 25.4368 246.388 22.7861 249.631 22.7861C252.874 22.7861 255.51 25.4368 255.51 28.7147Z" stroke="#00AEC7"/>
<path d="M255.51 71.5711C255.51 74.8491 252.874 77.4997 249.631 77.4997C246.388 77.4997 243.752 74.8491 243.752 71.5711C243.752 68.2932 246.388 65.6426 249.631 65.6426C252.874 65.6426 255.51 68.2932 255.51 71.5711Z" stroke="#00AEC7"/>
<path d="M277.625 28.7147C277.625 31.9926 274.989 34.6433 271.746 34.6433C268.503 34.6433 265.867 31.9926 265.867 28.7147C265.867 25.4368 268.503 22.7861 271.746 22.7861C274.989 22.7861 277.625 25.4368 277.625 28.7147Z" stroke="#00AEC7"/>
<path d="M277.625 71.5711C277.625 74.8491 274.989 77.4997 271.746 77.4997C268.503 77.4997 265.867 74.8491 265.867 71.5711C265.867 68.2932 268.503 65.6426 271.746 65.6426C274.989 65.6426 277.625 68.2932 277.625 71.5711Z" stroke="#00AEC7"/>
<path d="M299.738 28.7147C299.738 31.9926 297.103 34.6433 293.859 34.6433C290.616 34.6433 287.98 31.9926 287.98 28.7147C287.98 25.4368 290.616 22.7861 293.859 22.7861C297.103 22.7861 299.738 25.4368 299.738 28.7147Z" stroke="#00AEC7"/>
<path d="M299.738 71.5711C299.738 74.8491 297.103 77.4997 293.859 77.4997C290.616 77.4997 287.98 74.8491 287.98 71.5711C287.98 68.2932 290.616 65.6426 293.859 65.6426C297.103 65.6426 299.738 68.2932 299.738 71.5711Z" stroke="#00AEC7"/>
<path d="M321.852 28.7147C321.852 31.9926 319.216 34.6433 315.973 34.6433C312.73 34.6433 310.094 31.9926 310.094 28.7147C310.094 25.4368 312.73 22.7861 315.973 22.7861C319.216 22.7861 321.852 25.4368 321.852 28.7147Z" stroke="#00AEC7"/>
<path d="M321.852 71.5711C321.852 74.8491 319.216 77.4997 315.973 77.4997C312.73 77.4997 310.094 74.8491 310.094 71.5711C310.094 68.2932 312.73 65.6426 315.973 65.6426C319.216 65.6426 321.852 68.2932 321.852 71.5711Z" stroke="#00AEC7"/>
<path d="M343.115 28.7147C343.115 31.9926 340.48 34.6433 337.236 34.6433C333.993 34.6433 331.357 31.9926 331.357 28.7147C331.357 25.4368 333.993 22.7861 337.236 22.7861C340.48 22.7861 343.115 25.4368 343.115 28.7147Z" stroke="#00AEC7"/>
<path d="M343.115 71.5711C343.115 74.8491 340.48 77.4997 337.236 77.4997C333.993 77.4997 331.357 74.8491 331.357 71.5711C331.357 68.2932 333.993 65.6426 337.236 65.6426C340.48 65.6426 343.115 68.2932 343.115 71.5711Z" stroke="#00AEC7"/>
<path d="M365.229 28.7147C365.229 31.9926 362.593 34.6433 359.35 34.6433C356.106 34.6433 353.471 31.9926 353.471 28.7147C353.471 25.4368 356.106 22.7861 359.35 22.7861C362.593 22.7861 365.229 25.4368 365.229 28.7147Z" stroke="#00AEC7"/>
<path d="M365.229 71.5711C365.229 74.8491 362.593 77.4997 359.35 77.4997C356.106 77.4997 353.471 74.8491 353.471 71.5711C353.471 68.2932 356.106 65.6426 359.35 65.6426C362.593 65.6426 365.229 68.2932 365.229 71.5711Z" stroke="#00AEC7"/>
<path d="M388.194 28.7147C388.194 31.9926 385.558 34.6433 382.315 34.6433C379.071 34.6433 376.436 31.9926 376.436 28.7147C376.436 25.4368 379.071 22.7861 382.315 22.7861C385.558 22.7861 388.194 25.4368 388.194 28.7147Z" stroke="#00AEC7"/>
<path d="M388.194 71.5711C388.194 74.8491 385.558 77.4997 382.315 77.4997C379.071 77.4997 376.436 74.8491 376.436 71.5711C376.436 68.2932 379.071 65.6426 382.315 65.6426C385.558 65.6426 388.194 68.2932 388.194 71.5711Z" stroke="#00AEC7"/>
<path d="M411.158 28.7147C411.158 31.9926 408.523 34.6433 405.279 34.6433C402.036 34.6433 399.4 31.9926 399.4 28.7147C399.4 25.4368 402.036 22.7861 405.279 22.7861C408.523 22.7861 411.158 25.4368 411.158 28.7147Z" stroke="#00AEC7"/>
<path d="M411.158 71.5711C411.158 74.8491 408.523 77.4997 405.279 77.4997C402.036 77.4997 399.4 74.8491 399.4 71.5711C399.4 68.2932 402.036 65.6426 405.279 65.6426C408.523 65.6426 411.158 68.2932 411.158 71.5711Z" stroke="#00AEC7"/>
</g>
</svg>
