<svg width="359" height="72" viewBox="0 0 359 72" fill="none" xmlns="http://www.w3.org/2000/svg">
<g opacity="0.3">
<path d="M11.2972 5.93407C11.2972 8.93805 8.87731 11.3681 5.89858 11.3681C2.91985 11.3681 0.5 8.93805 0.5 5.93407C0.5 2.93008 2.91985 0.5 5.89858 0.5C8.87731 0.5 11.2972 2.93008 11.2972 5.93407Z" stroke="#00AEC7"/>
<path d="M11.2972 46.2856C11.2972 49.2896 8.87731 51.7197 5.89858 51.7197C2.91985 51.7197 0.5 49.2896 0.5 46.2856C0.5 43.2816 2.91985 40.8516 5.89858 40.8516C8.87731 40.8516 11.2972 43.2816 11.2972 46.2856Z" stroke="#00AEC7"/>
<path d="M31.7464 5.93407C31.7464 8.93805 29.3265 11.3681 26.3478 11.3681C23.3691 11.3681 20.9492 8.93805 20.9492 5.93407C20.9492 2.93008 23.3691 0.5 26.3478 0.5C29.3265 0.5 31.7464 2.93008 31.7464 5.93407Z" stroke="#00AEC7"/>
<path d="M31.7464 46.2856C31.7464 49.2896 29.3265 51.7197 26.3478 51.7197C23.3691 51.7197 20.9492 49.2896 20.9492 46.2856C20.9492 43.2816 23.3691 40.8516 26.3478 40.8516C29.3265 40.8516 31.7464 43.2816 31.7464 46.2856Z" stroke="#00AEC7"/>
<path d="M52.1936 5.93407C52.1936 8.93805 49.7738 11.3681 46.7951 11.3681C43.8163 11.3681 41.3965 8.93805 41.3965 5.93407C41.3965 2.93008 43.8163 0.5 46.7951 0.5C49.7738 0.5 52.1936 2.93008 52.1936 5.93407Z" stroke="#00AEC7"/>
<path d="M52.1936 46.2856C52.1936 49.2896 49.7738 51.7197 46.7951 51.7197C43.8163 51.7197 41.3965 49.2896 41.3965 46.2856C41.3965 43.2816 43.8163 40.8516 46.7951 40.8516C49.7738 40.8516 52.1936 43.2816 52.1936 46.2856Z" stroke="#00AEC7"/>
<path d="M72.6429 5.93407C72.6429 8.93805 70.223 11.3681 67.2443 11.3681C64.2656 11.3681 61.8457 8.93805 61.8457 5.93407C61.8457 2.93008 64.2656 0.5 67.2443 0.5C70.223 0.5 72.6429 2.93008 72.6429 5.93407Z" stroke="#00AEC7"/>
<path d="M72.6429 46.2856C72.6429 49.2896 70.223 51.7197 67.2443 51.7197C64.2656 51.7197 61.8457 49.2896 61.8457 46.2856C61.8457 43.2816 64.2656 40.8516 67.2443 40.8516C70.223 40.8516 72.6429 43.2816 72.6429 46.2856Z" stroke="#00AEC7"/>
<path d="M92.305 5.93407C92.305 8.93805 89.8851 11.3681 86.9064 11.3681C83.9277 11.3681 81.5078 8.93805 81.5078 5.93407C81.5078 2.93008 83.9277 0.5 86.9064 0.5C89.8851 0.5 92.305 2.93008 92.305 5.93407Z" stroke="#00AEC7"/>
<path d="M92.305 46.2856C92.305 49.2896 89.8851 51.7197 86.9064 51.7197C83.9277 51.7197 81.5078 49.2896 81.5078 46.2856C81.5078 43.2816 83.9277 40.8516 86.9064 40.8516C89.8851 40.8516 92.305 43.2816 92.305 46.2856Z" stroke="#00AEC7"/>
<path d="M112.752 5.93407C112.752 8.93805 110.332 11.3681 107.354 11.3681C104.375 11.3681 101.955 8.93805 101.955 5.93407C101.955 2.93008 104.375 0.5 107.354 0.5C110.332 0.5 112.752 2.93008 112.752 5.93407Z" stroke="#00AEC7"/>
<path d="M112.752 46.2856C112.752 49.2896 110.332 51.7197 107.354 51.7197C104.375 51.7197 101.955 49.2896 101.955 46.2856C101.955 43.2816 104.375 40.8516 107.354 40.8516C110.332 40.8516 112.752 43.2816 112.752 46.2856Z" stroke="#00AEC7"/>
<path d="M133.987 5.93407C133.987 8.93805 131.567 11.3681 128.588 11.3681C125.609 11.3681 123.189 8.93805 123.189 5.93407C123.189 2.93008 125.609 0.5 128.588 0.5C131.567 0.5 133.987 2.93008 133.987 5.93407Z" stroke="#00AEC7"/>
<path d="M133.987 46.2856C133.987 49.2896 131.567 51.7197 128.588 51.7197C125.609 51.7197 123.189 49.2896 123.189 46.2856C123.189 43.2816 125.609 40.8516 128.588 40.8516C131.567 40.8516 133.987 43.2816 133.987 46.2856Z" stroke="#00AEC7"/>
<path d="M155.223 5.93407C155.223 8.93805 152.803 11.3681 149.824 11.3681C146.846 11.3681 144.426 8.93805 144.426 5.93407C144.426 2.93008 146.846 0.5 149.824 0.5C152.803 0.5 155.223 2.93008 155.223 5.93407Z" stroke="#00AEC7"/>
<path d="M155.223 46.2856C155.223 49.2896 152.803 51.7197 149.824 51.7197C146.846 51.7197 144.426 49.2896 144.426 46.2856C144.426 43.2816 146.846 40.8516 149.824 40.8516C152.803 40.8516 155.223 43.2816 155.223 46.2856Z" stroke="#00AEC7"/>
<path d="M176.457 5.93407C176.457 8.93805 174.037 11.3681 171.059 11.3681C168.08 11.3681 165.66 8.93805 165.66 5.93407C165.66 2.93008 168.08 0.5 171.059 0.5C174.037 0.5 176.457 2.93008 176.457 5.93407Z" stroke="#00AEC7"/>
<path d="M176.457 46.2856C176.457 49.2896 174.037 51.7197 171.059 51.7197C168.08 51.7197 165.66 49.2896 165.66 46.2856C165.66 43.2816 168.08 40.8516 171.059 40.8516C174.037 40.8516 176.457 43.2816 176.457 46.2856Z" stroke="#00AEC7"/>
<path d="M196.907 5.93407C196.907 8.93805 194.487 11.3681 191.508 11.3681C188.529 11.3681 186.109 8.93805 186.109 5.93407C186.109 2.93008 188.529 0.5 191.508 0.5C194.487 0.5 196.907 2.93008 196.907 5.93407Z" stroke="#00AEC7"/>
<path d="M196.907 46.2856C196.907 49.2896 194.487 51.7197 191.508 51.7197C188.529 51.7197 186.109 49.2896 186.109 46.2856C186.109 43.2816 188.529 40.8516 191.508 40.8516C194.487 40.8516 196.907 43.2816 196.907 46.2856Z" stroke="#00AEC7"/>
<path d="M216.567 5.93407C216.567 8.93805 214.147 11.3681 211.168 11.3681C208.189 11.3681 205.77 8.93805 205.77 5.93407C205.77 2.93008 208.189 0.5 211.168 0.5C214.147 0.5 216.567 2.93008 216.567 5.93407Z" stroke="#00AEC7"/>
<path d="M216.567 46.2856C216.567 49.2896 214.147 51.7197 211.168 51.7197C208.189 51.7197 205.77 49.2896 205.77 46.2856C205.77 43.2816 208.189 40.8516 211.168 40.8516C214.147 40.8516 216.567 43.2816 216.567 46.2856Z" stroke="#00AEC7"/>
<path d="M11.2972 26.5054C11.2972 29.5093 8.87731 31.9394 5.89858 31.9394C2.91985 31.9394 0.5 29.5093 0.5 26.5054C0.5 23.5014 2.91985 21.0713 5.89858 21.0713C8.87731 21.0713 11.2972 23.5014 11.2972 26.5054Z" stroke="#00AEC7"/>
<path d="M11.2972 66.0659C11.2972 69.0699 8.87731 71.5 5.89858 71.5C2.91985 71.5 0.5 69.0699 0.5 66.0659C0.5 63.0619 2.91985 60.6318 5.89858 60.6318C8.87731 60.6318 11.2972 63.0619 11.2972 66.0659Z" stroke="#00AEC7"/>
<path d="M31.7464 26.5054C31.7464 29.5093 29.3265 31.9394 26.3478 31.9394C23.3691 31.9394 20.9492 29.5093 20.9492 26.5054C20.9492 23.5014 23.3691 21.0713 26.3478 21.0713C29.3265 21.0713 31.7464 23.5014 31.7464 26.5054Z" stroke="#00AEC7"/>
<path d="M31.7464 66.0659C31.7464 69.0699 29.3265 71.5 26.3478 71.5C23.3691 71.5 20.9492 69.0699 20.9492 66.0659C20.9492 63.0619 23.3691 60.6318 26.3478 60.6318C29.3265 60.6318 31.7464 63.0619 31.7464 66.0659Z" stroke="#00AEC7"/>
<path d="M52.1936 26.5054C52.1936 29.5093 49.7738 31.9394 46.7951 31.9394C43.8163 31.9394 41.3965 29.5093 41.3965 26.5054C41.3965 23.5014 43.8163 21.0713 46.7951 21.0713C49.7738 21.0713 52.1936 23.5014 52.1936 26.5054Z" stroke="#00AEC7"/>
<path d="M52.1936 66.0659C52.1936 69.0699 49.7738 71.5 46.7951 71.5C43.8163 71.5 41.3965 69.0699 41.3965 66.0659C41.3965 63.0619 43.8163 60.6318 46.7951 60.6318C49.7738 60.6318 52.1936 63.0619 52.1936 66.0659Z" stroke="#00AEC7"/>
<path d="M72.6429 26.5054C72.6429 29.5093 70.223 31.9394 67.2443 31.9394C64.2656 31.9394 61.8457 29.5093 61.8457 26.5054C61.8457 23.5014 64.2656 21.0713 67.2443 21.0713C70.223 21.0713 72.6429 23.5014 72.6429 26.5054Z" stroke="#00AEC7"/>
<path d="M72.6429 66.0659C72.6429 69.0699 70.223 71.5 67.2443 71.5C64.2656 71.5 61.8457 69.0699 61.8457 66.0659C61.8457 63.0619 64.2656 60.6318 67.2443 60.6318C70.223 60.6318 72.6429 63.0619 72.6429 66.0659Z" stroke="#00AEC7"/>
<path d="M92.305 26.5054C92.305 29.5093 89.8851 31.9394 86.9064 31.9394C83.9277 31.9394 81.5078 29.5093 81.5078 26.5054C81.5078 23.5014 83.9277 21.0713 86.9064 21.0713C89.8851 21.0713 92.305 23.5014 92.305 26.5054Z" stroke="#00AEC7"/>
<path d="M92.305 66.0659C92.305 69.0699 89.8851 71.5 86.9064 71.5C83.9277 71.5 81.5078 69.0699 81.5078 66.0659C81.5078 63.0619 83.9277 60.6318 86.9064 60.6318C89.8851 60.6318 92.305 63.0619 92.305 66.0659Z" stroke="#00AEC7"/>
<path d="M112.752 26.5054C112.752 29.5093 110.332 31.9394 107.354 31.9394C104.375 31.9394 101.955 29.5093 101.955 26.5054C101.955 23.5014 104.375 21.0713 107.354 21.0713C110.332 21.0713 112.752 23.5014 112.752 26.5054Z" stroke="#00AEC7"/>
<path d="M112.752 66.0659C112.752 69.0699 110.332 71.5 107.354 71.5C104.375 71.5 101.955 69.0699 101.955 66.0659C101.955 63.0619 104.375 60.6318 107.354 60.6318C110.332 60.6318 112.752 63.0619 112.752 66.0659Z" stroke="#00AEC7"/>
<path d="M133.987 26.5054C133.987 29.5093 131.567 31.9394 128.588 31.9394C125.609 31.9394 123.189 29.5093 123.189 26.5054C123.189 23.5014 125.609 21.0713 128.588 21.0713C131.567 21.0713 133.987 23.5014 133.987 26.5054Z" stroke="#00AEC7"/>
<path d="M133.987 66.0659C133.987 69.0699 131.567 71.5 128.588 71.5C125.609 71.5 123.189 69.0699 123.189 66.0659C123.189 63.0619 125.609 60.6318 128.588 60.6318C131.567 60.6318 133.987 63.0619 133.987 66.0659Z" stroke="#00AEC7"/>
<path d="M155.223 26.5054C155.223 29.5093 152.803 31.9394 149.824 31.9394C146.846 31.9394 144.426 29.5093 144.426 26.5054C144.426 23.5014 146.846 21.0713 149.824 21.0713C152.803 21.0713 155.223 23.5014 155.223 26.5054Z" stroke="#00AEC7"/>
<path d="M155.223 66.0659C155.223 69.0699 152.803 71.5 149.824 71.5C146.846 71.5 144.426 69.0699 144.426 66.0659C144.426 63.0619 146.846 60.6318 149.824 60.6318C152.803 60.6318 155.223 63.0619 155.223 66.0659Z" stroke="#00AEC7"/>
<path d="M176.457 26.5054C176.457 29.5093 174.037 31.9394 171.059 31.9394C168.08 31.9394 165.66 29.5093 165.66 26.5054C165.66 23.5014 168.08 21.0713 171.059 21.0713C174.037 21.0713 176.457 23.5014 176.457 26.5054Z" stroke="#00AEC7"/>
<path d="M176.457 66.0659C176.457 69.0699 174.037 71.5 171.059 71.5C168.08 71.5 165.66 69.0699 165.66 66.0659C165.66 63.0619 168.08 60.6318 171.059 60.6318C174.037 60.6318 176.457 63.0619 176.457 66.0659Z" stroke="#00AEC7"/>
<path d="M196.907 26.5054C196.907 29.5093 194.487 31.9394 191.508 31.9394C188.529 31.9394 186.109 29.5093 186.109 26.5054C186.109 23.5014 188.529 21.0713 191.508 21.0713C194.487 21.0713 196.907 23.5014 196.907 26.5054Z" stroke="#00AEC7"/>
<path d="M196.907 66.0659C196.907 69.0699 194.487 71.5 191.508 71.5C188.529 71.5 186.109 69.0699 186.109 66.0659C186.109 63.0619 188.529 60.6318 191.508 60.6318C194.487 60.6318 196.907 63.0619 196.907 66.0659Z" stroke="#00AEC7"/>
<path d="M216.567 26.5054C216.567 29.5093 214.147 31.9394 211.168 31.9394C208.189 31.9394 205.77 29.5093 205.77 26.5054C205.77 23.5014 208.189 21.0713 211.168 21.0713C214.147 21.0713 216.567 23.5014 216.567 26.5054Z" stroke="#00AEC7"/>
<path d="M216.567 66.0659C216.567 69.0699 214.147 71.5 211.168 71.5C208.189 71.5 205.77 69.0699 205.77 66.0659C205.77 63.0619 208.189 60.6318 211.168 60.6318C214.147 60.6318 216.567 63.0619 216.567 66.0659Z" stroke="#00AEC7"/>
<path d="M236.229 5.93407C236.229 8.93805 233.809 11.3681 230.83 11.3681C227.851 11.3681 225.432 8.93805 225.432 5.93407C225.432 2.93008 227.851 0.5 230.83 0.5C233.809 0.5 236.229 2.93008 236.229 5.93407Z" stroke="#00AEC7"/>
<path d="M236.229 46.2856C236.229 49.2896 233.809 51.7197 230.83 51.7197C227.851 51.7197 225.432 49.2896 225.432 46.2856C225.432 43.2816 227.851 40.8516 230.83 40.8516C233.809 40.8516 236.229 43.2816 236.229 46.2856Z" stroke="#00AEC7"/>
<path d="M256.678 5.93407C256.678 8.93805 254.258 11.3681 251.279 11.3681C248.301 11.3681 245.881 8.93805 245.881 5.93407C245.881 2.93008 248.301 0.5 251.279 0.5C254.258 0.5 256.678 2.93008 256.678 5.93407Z" stroke="#00AEC7"/>
<path d="M256.678 46.2856C256.678 49.2896 254.258 51.7197 251.279 51.7197C248.301 51.7197 245.881 49.2896 245.881 46.2856C245.881 43.2816 248.301 40.8516 251.279 40.8516C254.258 40.8516 256.678 43.2816 256.678 46.2856Z" stroke="#00AEC7"/>
<path d="M277.127 5.93407C277.127 8.93805 274.707 11.3681 271.729 11.3681C268.75 11.3681 266.33 8.93805 266.33 5.93407C266.33 2.93008 268.75 0.5 271.729 0.5C274.707 0.5 277.127 2.93008 277.127 5.93407Z" stroke="#00AEC7"/>
<path d="M277.127 46.2856C277.127 49.2896 274.707 51.7197 271.729 51.7197C268.75 51.7197 266.33 49.2896 266.33 46.2856C266.33 43.2816 268.75 40.8516 271.729 40.8516C274.707 40.8516 277.127 43.2816 277.127 46.2856Z" stroke="#00AEC7"/>
<path d="M297.574 5.93407C297.574 8.93805 295.155 11.3681 292.176 11.3681C289.197 11.3681 286.777 8.93805 286.777 5.93407C286.777 2.93008 289.197 0.5 292.176 0.5C295.155 0.5 297.574 2.93008 297.574 5.93407Z" stroke="#00AEC7"/>
<path d="M297.574 46.2856C297.574 49.2896 295.155 51.7197 292.176 51.7197C289.197 51.7197 286.777 49.2896 286.777 46.2856C286.777 43.2816 289.197 40.8516 292.176 40.8516C295.155 40.8516 297.574 43.2816 297.574 46.2856Z" stroke="#00AEC7"/>
<path d="M317.237 5.93407C317.237 8.93805 314.817 11.3681 311.838 11.3681C308.859 11.3681 306.439 8.93805 306.439 5.93407C306.439 2.93008 308.859 0.5 311.838 0.5C314.817 0.5 317.237 2.93008 317.237 5.93407Z" stroke="#00AEC7"/>
<path d="M317.237 46.2856C317.237 49.2896 314.817 51.7197 311.838 51.7197C308.859 51.7197 306.439 49.2896 306.439 46.2856C306.439 43.2816 308.859 40.8516 311.838 40.8516C314.817 40.8516 317.237 43.2816 317.237 46.2856Z" stroke="#00AEC7"/>
<path d="M337.686 5.93407C337.686 8.93805 335.266 11.3681 332.287 11.3681C329.309 11.3681 326.889 8.93805 326.889 5.93407C326.889 2.93008 329.309 0.5 332.287 0.5C335.266 0.5 337.686 2.93008 337.686 5.93407Z" stroke="#00AEC7"/>
<path d="M337.686 46.2856C337.686 49.2896 335.266 51.7197 332.287 51.7197C329.309 51.7197 326.889 49.2896 326.889 46.2856C326.889 43.2816 329.309 40.8516 332.287 40.8516C335.266 40.8516 337.686 43.2816 337.686 46.2856Z" stroke="#00AEC7"/>
<path d="M358.92 5.93407C358.92 8.93805 356.5 11.3681 353.522 11.3681C350.543 11.3681 348.123 8.93805 348.123 5.93407C348.123 2.93008 350.543 0.5 353.522 0.5C356.5 0.5 358.92 2.93008 358.92 5.93407Z" stroke="#00AEC7"/>
<path d="M358.92 46.2856C358.92 49.2896 356.5 51.7197 353.522 51.7197C350.543 51.7197 348.123 49.2896 348.123 46.2856C348.123 43.2816 350.543 40.8516 353.522 40.8516C356.5 40.8516 358.92 43.2816 358.92 46.2856Z" stroke="#00AEC7"/>
<path d="M236.229 26.5054C236.229 29.5093 233.809 31.9394 230.83 31.9394C227.851 31.9394 225.432 29.5093 225.432 26.5054C225.432 23.5014 227.851 21.0713 230.83 21.0713C233.809 21.0713 236.229 23.5014 236.229 26.5054Z" stroke="#00AEC7"/>
<path d="M236.229 66.0659C236.229 69.0699 233.809 71.5 230.83 71.5C227.851 71.5 225.432 69.0699 225.432 66.0659C225.432 63.0619 227.851 60.6318 230.83 60.6318C233.809 60.6318 236.229 63.0619 236.229 66.0659Z" stroke="#00AEC7"/>
<path d="M256.678 26.5054C256.678 29.5093 254.258 31.9394 251.279 31.9394C248.301 31.9394 245.881 29.5093 245.881 26.5054C245.881 23.5014 248.301 21.0713 251.279 21.0713C254.258 21.0713 256.678 23.5014 256.678 26.5054Z" stroke="#00AEC7"/>
<path d="M256.678 66.0659C256.678 69.0699 254.258 71.5 251.279 71.5C248.301 71.5 245.881 69.0699 245.881 66.0659C245.881 63.0619 248.301 60.6318 251.279 60.6318C254.258 60.6318 256.678 63.0619 256.678 66.0659Z" stroke="#00AEC7"/>
<path d="M277.127 26.5054C277.127 29.5093 274.707 31.9394 271.729 31.9394C268.75 31.9394 266.33 29.5093 266.33 26.5054C266.33 23.5014 268.75 21.0713 271.729 21.0713C274.707 21.0713 277.127 23.5014 277.127 26.5054Z" stroke="#00AEC7"/>
<path d="M277.127 66.0659C277.127 69.0699 274.707 71.5 271.729 71.5C268.75 71.5 266.33 69.0699 266.33 66.0659C266.33 63.0619 268.75 60.6318 271.729 60.6318C274.707 60.6318 277.127 63.0619 277.127 66.0659Z" stroke="#00AEC7"/>
<path d="M297.574 26.5054C297.574 29.5093 295.155 31.9394 292.176 31.9394C289.197 31.9394 286.777 29.5093 286.777 26.5054C286.777 23.5014 289.197 21.0713 292.176 21.0713C295.155 21.0713 297.574 23.5014 297.574 26.5054Z" stroke="#00AEC7"/>
<path d="M297.574 66.0659C297.574 69.0699 295.155 71.5 292.176 71.5C289.197 71.5 286.777 69.0699 286.777 66.0659C286.777 63.0619 289.197 60.6318 292.176 60.6318C295.155 60.6318 297.574 63.0619 297.574 66.0659Z" stroke="#00AEC7"/>
<path d="M317.237 26.5054C317.237 29.5093 314.817 31.9394 311.838 31.9394C308.859 31.9394 306.439 29.5093 306.439 26.5054C306.439 23.5014 308.859 21.0713 311.838 21.0713C314.817 21.0713 317.237 23.5014 317.237 26.5054Z" stroke="#00AEC7"/>
<path d="M317.237 66.0659C317.237 69.0699 314.817 71.5 311.838 71.5C308.859 71.5 306.439 69.0699 306.439 66.0659C306.439 63.0619 308.859 60.6318 311.838 60.6318C314.817 60.6318 317.237 63.0619 317.237 66.0659Z" stroke="#00AEC7"/>
<path d="M337.686 26.5054C337.686 29.5093 335.266 31.9394 332.287 31.9394C329.309 31.9394 326.889 29.5093 326.889 26.5054C326.889 23.5014 329.309 21.0713 332.287 21.0713C335.266 21.0713 337.686 23.5014 337.686 26.5054Z" stroke="#00AEC7"/>
<path d="M337.686 66.0659C337.686 69.0699 335.266 71.5 332.287 71.5C329.309 71.5 326.889 69.0699 326.889 66.0659C326.889 63.0619 329.309 60.6318 332.287 60.6318C335.266 60.6318 337.686 63.0619 337.686 66.0659Z" stroke="#00AEC7"/>
<path d="M358.92 26.5054C358.92 29.5093 356.5 31.9394 353.522 31.9394C350.543 31.9394 348.123 29.5093 348.123 26.5054C348.123 23.5014 350.543 21.0713 353.522 21.0713C356.5 21.0713 358.92 23.5014 358.92 26.5054Z" stroke="#00AEC7"/>
<path d="M358.92 66.0659C358.92 69.0699 356.5 71.5 353.522 71.5C350.543 71.5 348.123 69.0699 348.123 66.0659C348.123 63.0619 350.543 60.6318 353.522 60.6318C356.5 60.6318 358.92 63.0619 358.92 66.0659Z" stroke="#00AEC7"/>
</g>
</svg>
