<svg version="1.0" xmlns="http://www.w3.org/2000/svg"
 width="24" height="24" viewBox="0 0 512.000000 512.000000"
 preserveAspectRatio="xMidYMid meet">

<g transform="translate(0.000000,512.000000) scale(0.100000,-0.100000)"
fill="currentColor" stroke="none">
<path d="M2372 4624 c-343 -58 -643 -278 -805 -591 -288 -558 -66 -1233 500
-1517 464 -232 1039 -104 1367 306 274 342 321 810 121 1207 -108 215 -281
386 -499 493 -217 106 -452 141 -684 102z m311 -315 c493 -76 798 -592 627
-1060 -151 -414 -609 -629 -1021 -479 -366 133 -587 517 -515 892 84 432 479
713 909 647z"/>
<path d="M3614 2561 c-24 -11 -49 -33 -61 -52 -52 -87 -39 -140 63 -252 229
-250 360 -558 381 -892 7 -123 -3 -151 -87 -228 -155 -144 -491 -258 -925
-313 -193 -25 -663 -25 -850 -1 -438 58 -771 171 -925 313 -84 79 -94 105 -86
232 19 325 154 646 369 878 82 89 101 124 94 182 -12 107 -133 176 -225 128
-38 -20 -148 -136 -220 -234 -204 -275 -321 -606 -339 -957 -9 -190 25 -290
144 -415 433 -460 1756 -615 2672 -314 251 82 434 186 553 313 120 127 154
226 145 416 -22 422 -191 822 -471 1114 -99 103 -148 120 -232 82z"/>
</g>
</svg>