<svg version="1.0" xmlns="http://www.w3.org/2000/svg"
 width="100%" height="100%" viewBox="0 0 512.000000 512.000000"
 preserveAspectRatio="xMidYMid meet">

<g transform="translate(0.000000,512.000000) scale(0.100000,-0.100000)"
fill="currentColor" stroke="none">
<path d="M1970 5115 c-8 -2 -49 -9 -90 -15 -307 -50 -628 -258 -804 -520 -92
-137 -165 -313 -197 -475 -21 -105 -18 -359 4 -465 73 -339 273 -629 555 -802
l82 -51 -101 -38 c-641 -242 -1079 -825 -1139 -1519 -16 -183 -13 -693 4 -734
30 -71 -84 -66 1371 -66 l1311 0 55 -64 c264 -305 665 -431 1054 -332 558 143
891 734 729 1293 -95 327 -345 586 -671 692 -127 41 -233 55 -379 48 l-123 -6
-59 82 c-199 272 -481 485 -805 607 l-100 38 39 20 c121 63 283 206 382 337
98 131 181 315 218 487 25 113 29 323 10 443 -43 259 -167 499 -356 685 -158
157 -352 266 -567 321 -97 25 -143 31 -263 34 -80 2 -152 2 -160 0z m295 -240
c309 -54 567 -238 723 -516 45 -79 99 -249 113 -354 55 -420 -173 -845 -556
-1035 -152 -76 -267 -102 -445 -103 -155 0 -234 12 -351 56 -263 99 -454 275
-575 531 -68 143 -88 242 -88 421 0 170 17 259 76 401 135 319 449 559 793
607 72 10 229 6 310 -8z m175 -2254 c371 -76 695 -269 916 -545 l64 -80 -68
-36 c-286 -150 -478 -404 -548 -723 -33 -148 -17 -378 35 -534 10 -29 16 -55
13 -58 -8 -7 -2327 -6 -2346 1 -14 5 -16 37 -16 249 0 269 11 405 42 540 151
652 677 1119 1355 1205 116 15 445 4 553 -19z m1535 -790 c374 -77 646 -409
649 -791 1 -138 -23 -239 -84 -365 -108 -221 -298 -375 -540 -436 -112 -28
-307 -23 -415 11 -222 70 -400 222 -501 425 -58 119 -75 187 -81 326 -11 240
67 446 230 611 102 102 263 190 397 217 30 6 64 13 75 15 53 10 189 4 270 -13z"/>
<path d="M3763 1554 c-54 -27 -63 -62 -63 -242 l0 -161 -181 -3 -181 -3 -29
-33 c-33 -37 -38 -85 -15 -131 24 -45 52 -51 236 -51 l170 0 0 -166 c0 -188 9
-222 65 -248 41 -20 59 -20 100 0 56 26 65 60 65 248 l0 166 170 0 c100 0 179
4 193 11 61 28 74 127 23 178 -26 26 -28 26 -206 29 l-179 3 -3 174 -3 175
-30 30 c-38 38 -88 47 -132 24z"/>
</g>
</svg>