<?xml version="1.0" standalone="no"?>
<!DOCTYPE svg PUBLIC "-//W3C//DTD SVG 20010904//EN"
 "http://www.w3.org/TR/2001/REC-SVG-20010904/DTD/svg10.dtd">
<svg version="1.0" xmlns="http://www.w3.org/2000/svg"
 width="100%" height="100%" viewBox="0 0 512.000000 512.000000"
 preserveAspectRatio="xMidYMid meet">

<g transform="translate(0.000000,512.000000) scale(0.100000,-0.100000)"
fill="currentColor" stroke="none">
<path d="M949 5093 c-60 -31 -105 -86 -119 -149 -6 -23 -10 -855 -10 -1995 0
-2185 -6 -2021 71 -2098 55 -55 112 -71 255 -71 l113 0 3 -307 c3 -296 4 -310
25 -350 27 -51 82 -96 132 -112 28 -8 401 -11 1368 -11 l1329 0 55 28 c60 30
105 85 119 148 13 54 12 304 0 341 -10 28 -45 53 -74 53 -7 0 -25 -9 -40 -21
-26 -20 -26 -20 -26 -168 0 -154 -9 -205 -40 -221 -12 -6 -495 -10 -1333 -10
-1280 0 -1315 1 -1338 19 l-24 19 -3 1970 -2 1971 24 28 24 28 1321 0 1320 0
23 -23 23 -23 5 -1670 c5 -1639 5 -1671 24 -1685 28 -20 69 -17 97 5 l24 19 0
1674 c0 1352 -3 1680 -13 1710 -7 20 -31 55 -54 77 -54 55 -112 71 -254 71
l-113 0 -3 308 c-3 295 -4 309 -25 349 -27 51 -82 96 -132 112 -28 8 -299 11
-963 11 -921 0 -925 0 -952 -21 -36 -28 -36 -80 0 -108 26 -21 33 -21 833 -22
l806 -1 -85 -27 c-47 -16 -503 -162 -1015 -325 -527 -169 -946 -308 -967 -322
-20 -13 -50 -45 -65 -71 l-28 -48 -3 -1623 -2 -1624 -120 4 c-109 3 -122 5
-142 26 l-23 23 -3 1952 c-1 1073 0 1962 3 1975 3 12 14 31 25 42 19 19 34 20
264 20 271 0 280 2 292 67 5 26 1 37 -19 57 l-26 26 -254 0 -253 0 -55 -27z
m2761 -473 l0 -280 -867 1 c-478 0 -861 3 -853 7 20 8 1703 549 1713 551 4 1
7 -125 7 -279z"/>
<path d="M1726 3970 c-16 -5 -40 -19 -54 -32 -51 -47 -52 -59 -52 -470 0 -365
1 -384 21 -424 15 -31 32 -48 63 -63 41 -20 59 -21 457 -21 462 0 460 0 506
69 23 34 23 34 23 440 0 385 -1 408 -20 438 -41 68 -39 68 -500 70 -228 1
-428 -2 -444 -7z m814 -500 l0 -360 -385 0 -385 0 0 353 c0 195 3 357 7 360 3
4 177 7 385 7 l378 0 0 -360z"/>
<path d="M2904 3676 c-48 -21 -60 -75 -24 -114 l21 -22 498 0 c486 0 498 0
516 20 25 28 23 76 -4 103 -22 22 -22 22 -499 24 -385 2 -483 0 -508 -11z"/>
<path d="M2882 3377 c-27 -29 -28 -67 -3 -98 19 -24 23 -24 219 -27 198 -3
200 -3 227 21 36 31 39 82 6 109 -21 16 -44 18 -225 18 -199 0 -203 0 -224
-23z"/>
<path d="M1681 2603 c-60 -48 -61 -53 -61 -476 0 -377 0 -383 23 -427 41 -81
33 -80 512 -80 468 0 466 0 512 69 23 34 23 35 23 438 0 446 0 445 -63 483
-30 19 -53 20 -472 20 l-440 0 -34 -27z m859 -478 l0 -355 -385 0 -385 0 0
355 0 355 385 0 385 0 0 -355z"/>
<path d="M2880 2320 c-43 -43 -14 -113 52 -125 18 -3 241 -5 495 -3 461 3 463
3 484 25 27 27 29 75 4 103 -18 20 -30 20 -517 20 -485 0 -499 -1 -518 -20z"/>
<path d="M2885 2035 c-14 -13 -25 -36 -25 -50 0 -14 11 -37 25 -50 24 -25 26
-25 214 -25 208 0 234 5 250 52 12 34 -6 81 -34 92 -9 3 -104 6 -211 6 -194 0
-195 0 -219 -25z"/>
<path d="M1705 1360 c-27 -11 -61 -49 -74 -83 -7 -18 -11 -165 -11 -415 0
-382 1 -387 23 -426 44 -77 38 -76 512 -76 468 0 466 0 512 69 23 34 23 35 23
438 0 446 0 445 -63 483 -30 19 -53 20 -467 19 -239 0 -444 -4 -455 -9z m835
-495 l0 -355 -385 0 -385 0 0 355 0 355 385 0 385 0 0 -355z"/>
<path d="M2880 1058 c-39 -42 -16 -109 42 -123 13 -3 236 -4 495 -3 471 3 473
3 494 25 27 27 29 75 4 103 -18 20 -30 20 -516 20 l-498 0 -21 -22z"/>
<path d="M2885 775 c-14 -13 -25 -36 -25 -50 0 -14 11 -37 25 -50 24 -25 25
-25 222 -25 208 1 218 3 242 48 15 28 -1 77 -30 92 -10 6 -106 10 -214 10
-195 0 -196 0 -220 -25z"/>
</g>
</svg>
