<svg version="1.0" xmlns="http://www.w3.org/2000/svg"
 width="100%" height="100%" viewBox="0 0 512.000000 512.000000"
 preserveAspectRatio="xMidYMid meet">

<g transform="translate(0.000000,512.000000) scale(0.100000,-0.100000)"
fill="currentColor" stroke="none">
<path d="M1355 5107 c-63 -21 -97 -42 -142 -89 -62 -64 -88 -127 -87 -218 0
-147 -74 -64 1073 -1213 l1026 -1027 -1026 -1028 c-1147 -1148 -1073 -1065
-1073 -1212 -1 -93 25 -155 91 -222 64 -65 128 -92 223 -92 150 -2 60 -82
1356 1216 930 932 1156 1163 1175 1203 34 71 34 199 0 270 -19 40 -245 271
-1175 1203 -1025 1027 -1158 1156 -1213 1184 -72 35 -165 46 -228 25z"/>
</g>
</svg>