<svg version="1.0" xmlns="http://www.w3.org/2000/svg"
 width="100%" height="100%" viewBox="0 0 512.000000 512.000000"
 preserveAspectRatio="xMidYMid meet">

<g transform="translate(0.000000,512.000000) scale(0.100000,-0.100000)"
fill="currentColor" stroke="none">
<path d="M450 4804 c-168 -36 -315 -151 -388 -304 -22 -47 -45 -112 -51 -144
-8 -41 -11 -608 -11 -1800 0 -1924 -3 -1810 65 -1947 74 -146 239 -269 399
-298 83 -15 4109 -15 4192 0 160 29 325 152 399 298 68 137 65 23 65 1947 0
1192 -3 1759 -11 1800 -6 32 -29 97 -51 144 -74 155 -221 269 -393 305 -102
21 -4115 21 -4215 -1z m4170 -164 c130 -25 236 -107 293 -228 l32 -67 3 -357
3 -358 -2391 0 -2391 0 3 358 3 357 32 67 c55 117 163 203 285 227 63 13 4063
13 4128 1z m330 -2498 c0 -1455 3 -1381 -63 -1485 -59 -92 -148 -153 -255
-176 -75 -16 -4069 -16 -4144 0 -107 23 -196 84 -255 176 -66 104 -63 30 -63
1485 l0 1318 2390 0 2390 0 0 -1318z"/>
<path d="M571 4399 c-127 -24 -211 -129 -211 -261 0 -150 111 -262 259 -262
243 -1 362 291 185 454 -69 64 -144 86 -233 69z m122 -200 c45 -48 31 -115
-30 -144 -65 -31 -133 10 -133 82 0 46 15 72 53 88 42 18 76 10 110 -26z"/>
<path d="M1340 4379 c-99 -44 -160 -138 -160 -244 1 -236 284 -352 451 -185
167 167 50 450 -186 450 -39 0 -76 -8 -105 -21z m174 -180 c36 -43 35 -91 -3
-130 -22 -21 -39 -29 -66 -29 -83 0 -127 105 -69 164 40 39 103 37 138 -5z"/>
<path d="M2171 4383 c-25 -9 -66 -37 -92 -63 -167 -167 -50 -449 186 -450 149
0 265 116 265 265 -1 101 -56 191 -145 237 -53 28 -155 33 -214 11z m160 -182
c39 -40 41 -97 3 -135 -59 -58 -164 -14 -164 69 0 51 44 95 95 95 27 0 44 -8
66 -29z"/>
<path d="M2658 2950 c-15 -11 -30 -38 -36 -62 -6 -24 -85 -399 -177 -835 -151
-720 -165 -794 -153 -820 28 -58 101 -65 139 -12 12 16 76 298 189 835 93 446
170 818 170 827 0 29 -22 65 -47 76 -35 16 -57 14 -85 -9z"/>
<path d="M1970 2613 c-55 -38 -561 -475 -570 -493 -18 -34 -11 -68 23 -102 49
-50 535 -461 563 -476 31 -16 89 0 104 28 18 34 11 78 -17 109 -16 16 -125
111 -243 211 -118 101 -216 186 -218 190 -1 4 99 94 223 199 124 106 235 202
245 214 28 30 26 82 -5 112 -28 29 -70 32 -105 8z"/>
<path d="M3045 2605 c-31 -30 -33 -82 -5 -112 10 -12 121 -108 245 -214 124
-105 224 -195 223 -199 -2 -4 -100 -89 -218 -190 -118 -100 -227 -195 -242
-211 -29 -31 -36 -75 -18 -109 15 -28 73 -44 104 -28 28 15 514 426 564 476
33 34 40 68 22 102 -9 18 -515 455 -570 493 -35 24 -77 21 -105 -8z"/>
</g>
</svg>