<svg width="20" height="20" viewBox="0 0 20 20" fill="none" xmlns="http://www.w3.org/2000/svg">
<rect y="0.105469" width="20" height="18.9474" rx="2" />
<line x1="2.10522" y1="12.2368" x2="9.47365" y2="12.2368" stroke="white"/>
<line x1="2.10522" y1="14.3423" x2="9.47365" y2="14.3423" stroke="white"/>
<line x1="2.10522" y1="16.4473" x2="9.47365" y2="16.4473" stroke="white"/>
<path d="M6.87 6.4C7.27667 6.48667 7.60333 6.69 7.85 7.01C8.09667 7.32333 8.22 7.68333 8.22 8.09C8.22 8.67667 8.01333 9.14333 7.6 9.49C7.19333 9.83 6.62333 10 5.89 10H2.62V2.98H5.78C6.49333 2.98 7.05 3.14333 7.45 3.47C7.85667 3.79667 8.06 4.24 8.06 4.8C8.06 5.21333 7.95 5.55667 7.73 5.83C7.51667 6.10333 7.23 6.29333 6.87 6.4ZM4.33 5.82H5.45C5.73 5.82 5.94333 5.76 6.09 5.64C6.24333 5.51333 6.32 5.33 6.32 5.09C6.32 4.85 6.24333 4.66667 6.09 4.54C5.94333 4.41333 5.73 4.35 5.45 4.35H4.33V5.82ZM5.59 8.62C5.87667 8.62 6.09667 8.55667 6.25 8.43C6.41 8.29667 6.49 8.10667 6.49 7.86C6.49 7.61333 6.40667 7.42 6.24 7.28C6.08 7.14 5.85667 7.07 5.57 7.07H4.33V8.62H5.59Z" fill="white"/>
<rect x="10.5264" y="2.21045" width="7.36842" height="14.7368" fill="white"/>
</svg>
