<svg version="1.0" xmlns="http://www.w3.org/2000/svg"
 width="100%" height="100%" viewBox="0 0 512.000000 512.000000"
 preserveAspectRatio="xMidYMid meet">

<g transform="translate(0.000000,512.000000) scale(0.100000,-0.100000)"
fill="currentColor" stroke="none">
<path d="M910 4171 c-87 -27 -165 -95 -204 -180 l-21 -46 -3 -1162 -2 -1163
-56 0 c-48 0 -59 -4 -85 -29 -34 -34 -37 -68 -14 -176 37 -176 163 -335 325
-413 47 -22 109 -45 138 -51 37 -8 515 -11 1575 -11 1690 0 1585 -4 1721 68
182 95 301 274 322 480 6 70 6 72 -24 102 -27 26 -37 30 -86 30 l-56 0 -2
1163 -3 1162 -21 46 c-30 64 -88 125 -148 157 l-51 27 -1640 2 c-902 1 -1651
-2 -1665 -6z m3280 -179 c19 -9 43 -33 55 -52 20 -35 20 -47 20 -1175 l0
-1140 -1708 -3 -1707 -2 2 1147 3 1148 24 34 c46 64 -67 60 1681 61 1499 0
1597 -1 1630 -18z"/>
<path d="M2762 3384 c-15 -10 -121 -211 -283 -537 -279 -559 -275 -548 -223
-594 29 -27 70 -29 102 -7 15 10 121 211 283 537 279 559 275 548 223 595 -29
26 -70 28 -102 6z"/>
<path d="M1883 3027 c-165 -165 -173 -174 -173 -212 0 -38 8 -47 173 -212 162
-163 175 -173 210 -173 49 0 87 36 87 81 0 28 -18 50 -130 164 -71 72 -130
135 -130 140 0 5 59 68 130 140 112 114 130 136 130 164 0 45 -38 81 -87 81
-35 0 -48 -10 -210 -173z"/>
<path d="M2965 3175 c-16 -15 -25 -35 -25 -56 0 -28 18 -50 130 -164 72 -72
130 -135 130 -140 0 -5 -58 -68 -130 -140 -112 -114 -130 -136 -130 -164 0
-45 38 -81 87 -81 35 0 48 10 210 173 165 165 173 174 173 212 0 38 -8 47
-173 212 -162 163 -175 173 -210 173 -27 0 -45 -7 -62 -25z"/>
</g>
</svg>
