<?xml version="1.0" standalone="no"?>
<!DOCTYPE svg PUBLIC "-//W3C//DTD SVG 20010904//EN"
 "http://www.w3.org/TR/2001/REC-SVG-20010904/DTD/svg10.dtd">
<svg version="1.0" xmlns="http://www.w3.org/2000/svg"
 width="100%" height="100%" viewBox="0 0 118.000000 126.000000"
 preserveAspectRatio="xMidYMid meet">
<metadata>
Created by potrace 1.16, written by Peter Selinger 2001-2019
</metadata>
<g transform="translate(0.000000,126.000000) scale(0.100000,-0.100000)"
fill="currentColor" stroke="none">
<path d="M513 1185 c-12 -9 -25 -30 -28 -48 -5 -23 -15 -36 -38 -47 -26 -12
-33 -22 -35 -52 l-3 -38 -178 0 c-160 0 -180 -2 -194 -18 -15 -16 -17 -53 -17
-314 0 -273 1 -296 18 -311 16 -14 44 -17 184 -17 l166 0 -12 -55 c-7 -30 -21
-66 -30 -80 -16 -25 -17 -25 -161 -25 -132 0 -145 -2 -155 -19 -15 -29 -12
-56 8 -74 17 -15 70 -17 561 -17 355 0 549 4 562 10 22 13 27 71 6 88 -8 7
-73 13 -163 14 -146 3 -149 3 -152 25 -7 52 -96 71 -146 32 -14 -11 -26 -29
-26 -40 0 -17 -6 -20 -42 -17 -39 3 -45 7 -62 41 -10 21 -20 56 -23 77 l-6 40
165 0 c147 0 167 2 181 18 14 16 17 43 17 175 l0 157 119 0 c95 0 123 3 135
16 13 13 16 44 16 188 0 155 -2 175 -18 189 -10 10 -26 17 -35 17 -12 0 -17 8
-17 25 0 14 -11 37 -25 51 -25 25 -27 25 -153 21 -153 -6 -121 -6 -272 -1
-103 4 -129 2 -147 -11z m261 -41 c3 -9 6 -89 6 -178 l0 -163 -117 4 c-65 3
-124 6 -130 8 -18 6 -18 316 -1 333 8 8 50 12 124 12 93 0 113 -3 118 -16z
m294 -157 c2 -129 0 -168 -10 -172 -7 -2 -64 -5 -125 -7 l-113 -3 0 171 c0 94
3 174 7 178 4 3 59 5 122 4 l116 -3 3 -168z m-587 -24 c0 -118 6 -162 20 -180
8 -9 42 -13 126 -13 109 0 115 -1 137 -25 29 -31 39 -31 58 -2 14 20 24 22
137 25 155 5 151 1 151 169 0 102 3 123 15 123 22 0 26 -32 23 -185 l-3 -140
-142 -3 c-131 -2 -142 -4 -148 -22 -9 -29 -99 -29 -115 0 -10 19 -21 20 -150
20 l-140 0 0 165 c0 140 2 165 15 165 12 0 15 -18 16 -97z m-71 -120 c0 -157
-4 -153 157 -153 111 0 127 -2 153 -21 24 -18 38 -21 89 -17 l61 4 0 -88 0
-88 -405 0 -405 0 0 240 0 240 175 0 175 0 0 -117z m460 -433 l0 -30 -405 0
-405 0 0 30 0 30 405 0 405 0 0 -30z m-358 -115 c3 -22 14 -57 22 -77 l16 -38
-85 0 -85 0 20 50 c11 28 20 61 20 74 0 31 9 37 49 34 33 -3 36 -6 43 -43z
m296 -97 c3 -15 -4 -18 -42 -18 -32 0 -46 4 -46 13 0 22 12 28 50 25 24 -2 36
-9 38 -20z m330 -63 c7 -3 10 -9 7 -15 -4 -6 -194 -10 -546 -10 -468 0 -539 2
-539 15 0 12 26 15 153 17 219 4 910 -1 925 -7z"/>
<path d="M585 1090 c-13 -21 12 -31 71 -28 44 2 59 7 59 18 0 19 -119 28 -130
10z"/>
<path d="M585 990 c-13 -21 12 -31 71 -28 44 2 59 7 59 18 0 19 -119 28 -130
10z"/>
<path d="M587 893 c-16 -15 18 -33 62 -33 51 0 77 12 67 29 -8 12 -118 16
-129 4z"/>
<path d="M880 1080 c0 -19 5 -21 63 -18 47 2 62 7 62 18 0 11 -15 16 -62 18
-58 3 -63 1 -63 -18z"/>
<path d="M877 992 c-14 -22 12 -33 69 -30 44 2 59 7 59 18 0 11 -15 16 -62 18
-34 2 -64 -1 -66 -6z"/>
<path d="M875 891 c-8 -14 26 -30 66 -29 48 0 69 7 69 24 0 11 -15 14 -64 14
-36 0 -67 -4 -71 -9z"/>
</g>
</svg>
