<svg width="80" height="80" viewBox="0 0 80 80" fill="none" xmlns="http://www.w3.org/2000/svg">
<g opacity="0.3">
<path d="M80 40C80 62.092 62.092 80 40 80C17.9093 80 0 62.092 0 40C0 17.9093 17.9093 0 40 0C62.092 0 80 17.9093 80 40Z" fill="#00AEC7"/>
</g>
<path d="M58.9494 62.667H21.0494C19.7614 62.667 18.7188 61.623 18.7188 60.3363V56.4297C18.7188 50.7657 28.0774 44.639 39.4161 44.639C51.9214 44.639 61.2801 51.1603 61.2801 56.4297V60.3363C61.2801 61.623 60.2374 62.667 58.9494 62.667Z" stroke="white" stroke-width="2" stroke-miterlimit="10" stroke-linecap="round" stroke-linejoin="round"/>
<path d="M39.9953 36.1772C34.83 36.1772 30.6113 31.9572 30.6113 26.7919C30.6113 21.6279 34.83 17.3332 39.9953 17.3332C45.1607 17.3332 49.3793 21.5559 49.3793 26.7186C49.3793 31.8839 45.1607 36.1772 39.9953 36.1772Z" stroke="white" stroke-width="2" stroke-miterlimit="10" stroke-linecap="round" stroke-linejoin="round"/>
</svg>
