<svg version="1.0" xmlns="http://www.w3.org/2000/svg"
 width="100%" height="100%" viewBox="0 0 512.000000 512.000000"
 preserveAspectRatio="xMidYMid meet">

<g transform="translate(0.000000,512.000000) scale(0.100000,-0.100000)"
fill="currentColor" stroke="none">
<path d="M3460 4994 c-146 -32 -318 -143 -416 -270 -43 -55 -124 -207 -124
-232 0 -9 -327 -12 -1372 -12 l-1373 0 -50 -24 c-59 -27 -77 -46 -104 -106
-28 -61 -26 -115 4 -177 30 -59 79 -97 145 -112 30 -7 509 -11 1396 -11 l1351
0 18 -47 c87 -234 302 -417 547 -467 342 -70 699 123 830 450 l24 59 310 5
c255 4 315 8 344 21 168 78 172 308 6 385 -50 23 -56 24 -354 24 -279 0 -303
1 -308 18 -4 9 -24 53 -45 98 -94 194 -275 341 -488 395 -89 23 -244 24 -341
3z m295 -439 c135 -59 210 -200 183 -345 -18 -101 -79 -182 -174 -230 -42 -21
-63 -25 -139 -25 -75 0 -98 4 -135 24 -61 32 -116 86 -148 146 -23 43 -27 62
-27 140 0 104 21 159 89 227 49 49 86 69 156 84 69 15 130 8 195 -21z"/>
<path d="M1400 3301 c-245 -36 -459 -190 -564 -406 -24 -49 -46 -98 -50 -107
-5 -17 -29 -18 -313 -18 -278 0 -312 -2 -348 -19 -168 -78 -164 -314 7 -385
31 -13 89 -16 343 -16 282 0 306 -1 311 -17 4 -10 26 -59 50 -108 92 -190 270
-334 485 -391 84 -22 251 -23 341 -1 231 56 431 231 521 455 l23 57 1385 5
c1265 5 1387 6 1414 22 125 69 152 231 57 331 -63 67 56 61 -1471 67 l-1385 5
-23 57 c-71 177 -207 321 -379 403 -121 58 -281 83 -404 66z m176 -435 c137
-36 234 -163 234 -306 0 -277 -328 -419 -532 -232 -181 167 -106 474 132 538
60 17 104 17 166 0z"/>
<path d="M3475 1583 c-240 -50 -454 -235 -540 -465 l-18 -48 -1351 0 c-887 0
-1366 -4 -1396 -11 -66 -15 -115 -53 -145 -112 -30 -62 -32 -116 -4 -177 27
-60 45 -79 104 -106 l50 -24 1373 0 c1045 0 1372 -3 1372 -12 0 -6 18 -48 39
-93 77 -157 191 -273 345 -350 365 -180 807 -27 985 339 21 45 41 89 45 99 5
16 29 17 308 17 298 0 304 1 354 24 166 77 162 307 -6 385 -29 13 -89 17 -344
21 l-310 5 -24 59 c-131 328 -494 522 -837 449z m289 -443 c95 -48 156 -129
174 -230 40 -218 -150 -408 -368 -368 -101 18 -182 79 -230 174 -21 42 -25 63
-25 139 0 75 4 98 24 135 42 81 115 143 201 171 51 17 172 5 224 -21z"/>
</g>
</svg>
