<svg version="1.0" xmlns="http://www.w3.org/2000/svg"
 width="100%" height="100%" viewBox="0 0 512.000000 512.000000"
 preserveAspectRatio="xMidYMid meet">

<g transform="translate(0.000000,512.000000) scale(0.100000,-0.100000)"
fill="currentColor" stroke="none">
<path d="M2281 5104 c-80 -21 -149 -62 -212 -124 -95 -93 -139 -206 -139 -350
l0 -87 -62 -23 c-35 -12 -108 -42 -163 -66 l-99 -44 -56 54 c-139 136 -304
185 -475 141 -102 -27 -160 -69 -326 -234 -165 -166 -207 -224 -234 -326 -43
-167 2 -327 130 -463 l64 -69 -43 -99 c-24 -54 -54 -127 -66 -161 l-23 -63
-87 0 c-144 0 -257 -44 -350 -139 -118 -120 -140 -196 -140 -491 0 -295 22
-371 140 -491 93 -95 206 -139 350 -139 l87 0 23 -62 c12 -35 42 -108 66 -163
l44 -99 -54 -56 c-136 -139 -185 -304 -141 -475 27 -102 69 -160 234 -326 166
-165 224 -207 326 -234 168 -43 327 2 464 130 l68 65 74 -33 c41 -19 113 -49
162 -67 l87 -33 0 -87 c0 -144 44 -257 139 -350 120 -118 196 -140 491 -140
295 0 371 22 491 140 95 93 139 206 139 350 l0 87 63 23 c34 12 107 42 161 67
l100 44 55 -55 c140 -136 305 -185 476 -141 104 28 152 62 321 230 171 170
212 227 239 330 44 171 -5 336 -141 476 l-55 55 34 75 c19 41 49 113 67 162
l33 87 86 0 c148 0 256 43 351 139 118 120 140 196 140 491 0 295 -22 371
-140 491 -95 96 -203 139 -351 139 l-86 0 -23 63 c-12 34 -42 107 -66 162
l-44 99 54 56 c136 139 185 304 141 475 -27 103 -68 160 -239 330 -169 168
-217 202 -321 230 -171 44 -336 -5 -475 -141 l-56 -54 -99 44 c-55 24 -128 54
-162 66 l-63 23 0 87 c0 144 -44 257 -139 350 -65 64 -133 103 -216 125 -81
21 -475 20 -554 -1z m516 -305 c29 -14 52 -35 68 -63 23 -40 25 -52 25 -184 0
-215 14 -238 174 -287 111 -34 245 -90 359 -149 48 -25 99 -46 113 -46 50 0
99 32 198 130 104 102 133 120 191 120 60 0 87 -19 227 -157 143 -142 168
-177 168 -236 0 -60 -18 -88 -120 -193 -98 -99 -130 -148 -130 -199 0 -14 27
-78 59 -143 67 -133 109 -234 141 -342 43 -144 71 -160 282 -160 132 0 144 -2
184 -25 75 -44 84 -78 84 -305 0 -227 -9 -261 -84 -305 -40 -23 -52 -25 -184
-25 -211 0 -239 -16 -282 -160 -32 -108 -74 -209 -141 -342 -32 -65 -59 -129
-59 -143 0 -51 32 -100 130 -199 102 -104 120 -133 120 -191 0 -60 -19 -87
-157 -227 -142 -143 -177 -168 -236 -168 -60 0 -88 18 -193 120 -147 145 -182
155 -304 89 -102 -56 -256 -121 -365 -154 -161 -49 -175 -72 -175 -287 0 -132
-2 -144 -25 -184 -44 -75 -78 -84 -305 -84 -227 0 -261 9 -305 84 -23 40 -25
52 -25 184 0 209 -16 239 -155 281 -122 37 -206 72 -338 137 -70 35 -139 64
-153 64 -50 0 -99 -32 -198 -130 -105 -102 -133 -120 -193 -120 -59 0 -94 25
-236 168 -138 140 -157 167 -157 227 0 58 18 87 120 191 98 99 130 148 130
199 0 14 -31 87 -69 163 -39 76 -89 197 -112 268 -24 71 -51 141 -61 155 -31
47 -82 59 -240 59 -132 0 -144 2 -184 25 -75 44 -84 78 -84 305 0 227 9 261
84 305 40 23 52 25 184 25 158 0 209 12 240 59 10 14 38 85 61 156 23 72 74
192 112 268 38 76 69 149 69 163 0 50 -32 99 -130 198 -102 105 -120 133 -120
193 0 59 25 94 168 236 140 138 167 157 227 157 58 0 87 -18 191 -120 98 -97
148 -130 197 -130 13 0 87 31 164 70 78 38 199 88 269 111 71 24 141 51 155
61 47 31 59 82 59 240 0 132 2 144 25 183 16 28 39 50 67 64 39 19 60 21 237
21 177 0 199 -2 238 -21z"/>
<path d="M2335 3650 c-417 -90 -742 -398 -853 -808 -24 -88 -26 -114 -26 -282
0 -168 2 -194 26 -282 105 -387 409 -691 796 -796 88 -24 114 -26 282 -26 168
0 194 2 282 26 387 105 691 409 796 796 24 88 26 114 26 282 0 168 -2 194 -26
282 -105 387 -411 694 -793 794 -139 37 -376 43 -510 14z m393 -295 c200 -42
388 -168 504 -339 187 -273 185 -653 -6 -919 -161 -226 -394 -347 -666 -347
-277 0 -526 134 -680 365 -142 213 -171 507 -74 750 96 240 325 434 578 490
83 18 259 18 344 0z"/>
</g>
</svg>
