<?xml version="1.0" standalone="no"?>
<!DOCTYPE svg PUBLIC "-//W3C//DTD SVG 20010904//EN"
 "http://www.w3.org/TR/2001/REC-SVG-20010904/DTD/svg10.dtd">
<svg version="1.0" xmlns="http://www.w3.org/2000/svg"
 width="100%" height="100%" viewBox="0 0 512.000000 512.000000"
 preserveAspectRatio="xMidYMid meet">

<g transform="translate(0.000000,512.000000) scale(0.100000,-0.100000)"
fill="currentColor" stroke="none">
<path d="M1256 4919 c-26 -20 -26 -21 -26 -160 0 -124 -2 -140 -17 -146 -10
-3 -58 -21 -106 -41 l-89 -35 -86 86 c-95 93 -123 111 -155 103 -30 -7 -387
-368 -387 -390 0 -27 26 -70 62 -103 18 -16 55 -53 82 -81 l49 -50 -35 -89
c-20 -48 -38 -96 -41 -105 -6 -16 -22 -18 -146 -18 -194 0 -181 22 -181 -305
0 -323 -14 -298 180 -305 l142 -5 27 -70 c15 -38 35 -83 43 -100 l16 -30 -99
-101 c-68 -70 -99 -108 -99 -124 0 -17 51 -75 187 -212 158 -158 192 -188 217
-188 23 0 48 19 127 96 l97 96 54 -25 c29 -14 77 -33 106 -43 l52 -19 0 -137
c0 -193 -26 -178 304 -178 l265 0 20 26 c19 24 21 40 21 160 l0 132 38 13 c20
6 66 25 101 40 l64 29 98 -95 c139 -134 119 -139 346 88 227 227 222 207 88
346 l-95 98 29 64 c15 35 34 81 40 102 l13 37 132 0 c120 0 136 2 160 21 l26
20 0 265 c0 330 15 304 -178 304 l-137 0 -19 53 c-10 28 -30 76 -44 105 l-25
52 96 99 c78 79 97 104 97 127 0 25 -30 59 -188 217 -137 136 -195 187 -212
187 -16 0 -54 -31 -124 -99 l-101 -99 -30 16 c-16 8 -61 28 -100 43 l-70 27
-5 142 c-7 194 18 180 -305 180 -240 0 -254 -1 -279 -21z m444 -252 c0 -158
-4 -151 120 -192 47 -15 119 -45 161 -67 92 -49 90 -50 209 68 l85 84 115
-115 114 -114 -92 -94 c-68 -69 -92 -101 -92 -120 0 -14 18 -58 39 -99 21 -40
51 -110 66 -156 16 -51 35 -88 48 -97 16 -11 51 -15 144 -15 l123 0 0 -165 0
-165 -128 0 c-87 0 -134 -4 -145 -12 -9 -7 -28 -49 -42 -93 -15 -43 -44 -114
-66 -157 -21 -43 -39 -88 -39 -101 0 -14 32 -54 92 -114 l93 -93 -118 -117
-117 -118 -93 93 c-60 60 -100 92 -114 92 -13 0 -58 -18 -101 -39 -43 -22
-114 -51 -157 -66 -44 -14 -86 -33 -92 -42 -9 -11 -13 -58 -13 -145 l0 -128
-165 0 -165 0 0 123 c0 93 -4 128 -15 144 -9 13 -46 32 -97 48 -46 15 -116 45
-156 66 -41 21 -85 39 -99 39 -19 0 -51 -24 -120 -92 l-94 -92 -114 114 -115
115 84 85 c118 120 116 113 62 223 -24 51 -54 124 -67 162 -33 107 -30 105
-186 105 l-133 0 0 164 0 164 136 4 c157 4 150 -1 184 111 12 39 42 110 66
159 35 69 42 92 35 110 -5 13 -48 61 -95 108 l-86 85 117 117 117 118 97 -95
c53 -52 102 -95 109 -95 7 0 52 20 99 44 47 24 118 53 156 65 113 33 109 27
113 185 l4 136 164 0 164 0 0 -133z"/>
<path d="M1380 4174 c-138 -36 -265 -126 -346 -245 -68 -100 -95 -179 -101
-301 -7 -124 7 -200 57 -304 129 -268 437 -403 720 -315 188 59 343 215 403
406 32 104 30 252 -6 360 -64 193 -229 349 -423 399 -77 20 -229 20 -304 0z
m281 -140 c222 -65 367 -292 330 -516 -33 -201 -188 -356 -389 -389 -139 -23
-284 23 -391 126 -103 98 -146 208 -139 359 3 80 8 101 41 169 58 123 160 211
292 253 57 18 191 17 256 -2z"/>
<path d="M3038 4403 c-23 -25 -23 -75 0 -97 10 -9 58 -29 105 -45 329 -111
648 -343 851 -617 l65 -88 -31 -38 c-158 -200 -19 -498 232 -498 97 0 155 23
221 89 65 65 89 124 89 216 0 81 -23 144 -72 200 -63 72 -125 99 -230 101
l-87 2 -76 101 c-220 291 -516 513 -866 646 -121 47 -178 54 -201 28z m1319
-939 c53 -40 68 -71 68 -139 0 -49 -5 -70 -21 -91 -70 -94 -201 -99 -270 -9
-63 83 -32 209 61 251 41 20 129 13 162 -12z"/>
<path d="M3301 2854 c-19 -24 -21 -40 -21 -160 l0 -132 -37 -13 c-21 -6 -67
-25 -102 -40 l-64 -29 -98 95 c-139 134 -119 139 -346 -88 -227 -227 -222
-207 -88 -346 l95 -98 -29 -64 c-15 -35 -34 -81 -40 -101 l-13 -38 -132 0
c-120 0 -136 -2 -160 -21 l-26 -20 0 -265 c0 -330 -15 -304 178 -304 l137 0
19 -52 c10 -29 30 -77 44 -106 l25 -52 -96 -99 c-78 -79 -97 -104 -97 -127 0
-25 30 -59 188 -217 137 -136 195 -187 212 -187 16 0 54 31 124 99 l101 99 30
-16 c17 -8 62 -28 100 -43 l70 -27 5 -142 c7 -194 -18 -180 305 -180 327 0
305 -13 305 181 0 124 2 140 18 146 9 3 57 21 105 41 l89 35 86 -86 c95 -93
123 -111 155 -103 30 7 387 368 387 390 0 31 -21 59 -107 148 l-86 86 35 89
c20 48 38 96 41 106 6 15 22 17 146 17 194 0 181 -22 181 305 0 323 14 298
-180 305 l-142 5 -27 70 c-15 39 -35 84 -43 100 l-16 30 99 101 c68 70 99 108
99 124 0 17 -51 75 -187 212 -158 158 -192 188 -217 188 -23 0 -48 -19 -127
-97 l-99 -96 -62 30 c-35 17 -82 36 -105 43 l-43 13 0 139 c0 193 26 178 -304
178 l-265 0 -20 -26z m449 -238 c0 -153 3 -157 122 -196 48 -15 116 -44 153
-64 36 -20 77 -36 92 -36 19 0 50 24 120 92 l94 92 114 -114 115 -115 -84 -85
c-118 -120 -116 -113 -62 -223 24 -51 54 -123 67 -162 33 -107 30 -105 186
-105 l133 0 0 -164 0 -164 -136 -4 c-157 -4 -150 1 -184 -111 -12 -39 -42
-110 -66 -159 -35 -69 -42 -92 -35 -110 5 -13 48 -61 95 -108 l86 -85 -117
-117 -117 -118 -97 95 c-53 52 -102 95 -109 95 -8 0 -48 -18 -89 -39 -42 -22
-116 -53 -165 -70 -49 -16 -94 -35 -100 -41 -7 -7 -12 -65 -14 -146 l-4 -134
-161 2 -162 3 -3 131 c-3 153 -1 150 -107 184 -38 12 -111 42 -162 67 -110 53
-103 55 -223 -63 l-85 -84 -115 115 -114 114 92 94 c68 69 92 101 92 120 0 14
-18 58 -39 99 -21 40 -51 110 -66 156 -16 51 -35 88 -48 97 -16 11 -51 15
-144 15 l-123 0 0 165 0 165 126 0 c69 0 134 5 144 10 12 7 27 37 40 83 12 39
42 112 66 160 24 49 44 98 44 110 0 14 -33 55 -92 114 l-93 93 118 117 117
118 93 -93 c60 -60 100 -92 114 -92 13 0 58 18 101 39 43 22 114 51 157 66 44
14 86 33 93 42 8 11 12 58 12 145 l0 128 165 0 165 0 0 -124z"/>
<path d="M3483 2129 c-126 -21 -276 -107 -357 -205 -87 -106 -145 -261 -146
-387 -1 -225 139 -449 341 -545 100 -48 162 -62 272 -62 200 0 380 95 493 261
68 100 95 179 101 301 11 190 -44 337 -176 468 -142 142 -330 202 -528 169z
m188 -139 c124 -24 238 -102 309 -212 83 -128 94 -302 27 -443 -48 -101 -122
-174 -222 -222 -128 -60 -288 -58 -416 8 -115 58 -218 205 -241 341 -51 309
235 586 543 528z"/>
<path d="M740 2083 c-28 -10 -66 -37 -101 -72 -70 -71 -93 -131 -87 -234 5
-114 61 -202 163 -255 42 -22 64 -27 137 -28 l87 -2 77 -103 c218 -288 518
-512 865 -644 125 -48 170 -54 198 -26 26 26 27 72 3 95 -10 9 -58 30 -106 46
-342 115 -684 372 -884 662 l-30 44 29 34 c163 197 19 502 -236 499 -38 0 -90
-8 -115 -16z m213 -156 c73 -56 88 -160 32 -233 -85 -111 -269 -68 -291 68
-13 79 24 154 91 184 47 22 127 13 168 -19z"/>
</g>
</svg>
