<?xml version="1.0" encoding="UTF-8"?><svg xmlns="http://www.w3.org/2000/svg" viewBox="0 0 144 144"><defs><style>.c{fill:#007ac3;}.d{fill:#e5202e;}.e{fill:#85bc20;}</style></defs><g id="a"/><g id="b"><path class="e" d="M25.42,19.76C51.91-3.91,92.09-3.91,118.58,19.76l1.42-1.42C92.72-6.11,51.28-6.11,24,18.34l1.42,1.42Z"/><path class="c" d="M19.76,118.58C-3.91,92.09-3.91,51.91,19.76,25.42l-1.42-1.42c-24.45,27.28-24.45,68.72,0,96l1.42-1.42Z"/><path d="M118.58,124.24c-26.5,23.67-66.67,23.67-93.17,0l-1.42,1.42c27.28,24.45,68.72,24.45,96,0l-1.42-1.42Z"/><path class="d" d="M124.24,25.42c23.67,26.5,23.67,66.67,0,93.17l1.42,1.42c24.45-27.28,24.45-68.72,0-96l-1.42,1.42Z"/><path d="M81.41,75.28h-.02c-.31-.53-.61-1.07-.91-1.61-.79-1.44-2.12-3.85-2.84-4.19h-1.77l17.64,31.54c.27,.47,.41,1,.41,1.55,0,1.71-1.4,3.11-3.11,3.11-1.06,0-2.04-.54-2.62-1.44l-11.84-18.16-1.68,1.09,11.84,18.16c.95,1.47,2.55,2.35,4.3,2.35,2.82,0,5.11-2.29,5.11-5.11,0-.9-.24-1.78-.68-2.54l-13.85-24.75Z"/><path d="M83.1,110.96c-1.62,0-3.15-.77-4.12-2.1l-14.08-18.97,1.61-1.19,14.08,18.97c.63,.87,1.64,1.33,2.71,1.28,.83-.05,1.59-.42,2.14-1.04,.55-.62,.83-1.42,.78-2.25-.03-.55-.21-1.07-.51-1.53l-11.03-16.96,1.68-1.09,11.02,16.95c.49,.74,.78,1.61,.83,2.5,.08,1.36-.37,2.68-1.27,3.7-.9,1.02-2.15,1.63-3.52,1.71-.11,0-.21,0-.32,0Z"/><path d="M73.94,112.5c-1.52,0-2.95-.67-3.93-1.86l-15.17-18.11,1.53-1.29,15.17,18.11c.68,.83,1.72,1.23,2.78,1.12,.82-.1,1.56-.51,2.07-1.17s.74-1.47,.64-2.29c-.07-.54-.27-1.06-.6-1.49l-11.53-15.63,1.61-1.19,11.53,15.62c.53,.71,.87,1.55,.98,2.45,.34,2.8-1.66,5.35-4.46,5.68-.21,.03-.41,.04-.62,.04Z"/><path d="M68.32,106.67c-.16-.88-.54-1.71-1.12-2.39l-10.83-13.03-1.54,1.28,10.84,13.04c.35,.41,.58,.92,.68,1.46,.15,.82-.04,1.64-.51,2.33-.48,.68-1.19,1.14-2.01,1.28-.75,.13-1.51-.02-2.14-.41-.28,.6-.62,1.16-1.03,1.7,.79,.48,1.69,.76,2.62,.76,.3,0,.6-.03,.9-.08,1.34-.24,2.51-.99,3.3-2.11,.78-1.12,1.08-2.48,.84-3.82Z"/><path class="d" d="M54.83,111.12s-.07,0-.1,0c-1.32-.06-2.28-1.12-3.39-2.36-.21-.24-.43-.48-.67-.73-.23-.25-.46-.48-.68-.71-1.16-1.19-2.16-2.21-2.13-3.54,.02-.74,.38-1.45,1.08-2.11,2.22-2.08,5.81-1.86,8.01,.49,2.2,2.34,2.18,5.94-.04,8.02-.67,.62-1.36,.94-2.07,.94Zm-2.23-8.88c-.84,0-1.66,.29-2.3,.89-.2,.19-.44,.46-.45,.69-.01,.48,.79,1.3,1.56,2.1,.23,.24,.47,.48,.71,.74,.24,.26,.47,.52,.69,.76,.74,.82,1.5,1.67,1.99,1.7,.24,0,.52-.21,.72-.4,1.41-1.32,1.39-3.66-.05-5.2-.79-.85-1.85-1.28-2.88-1.28Z"/><path class="d" d="M48.24,104.07s-.07,0-.1,0c-1.32-.06-2.28-1.12-3.39-2.36-.21-.24-.43-.48-.67-.73-.23-.25-.46-.48-.68-.71-1.16-1.19-2.16-2.21-2.13-3.54,.02-.74,.38-1.45,1.08-2.11,1.08-1.02,2.53-1.51,4.04-1.42,1.5,.1,2.91,.78,3.96,1.9,1.06,1.12,1.64,2.57,1.64,4.08,0,1.53-.6,2.93-1.68,3.95-.67,.62-1.36,.94-2.07,.94Zm-2.23-8.88c-.87,0-1.68,.31-2.3,.89h0c-.2,.19-.44,.46-.45,.69-.01,.48,.79,1.3,1.56,2.1,.23,.24,.47,.48,.71,.74,.24,.26,.47,.52,.69,.76,.74,.82,1.5,1.67,1.99,1.7,.22,0,.52-.21,.72-.4,.67-.63,1.05-1.52,1.05-2.48,0-.99-.39-1.96-1.1-2.71-.71-.76-1.64-1.21-2.64-1.28-.08,0-.17,0-.25,0Z"/><path class="d" d="M41.64,97.03s-.07,0-.1,0c-1.32-.06-2.28-1.12-3.39-2.36-.21-.24-.43-.48-.67-.73-.23-.25-.46-.48-.68-.71-1.16-1.19-2.16-2.21-2.13-3.54,.02-.75,.38-1.46,1.08-2.11h0c2.22-2.08,5.81-1.86,8.01,.49,1.06,1.13,1.64,2.57,1.64,4.08,0,1.53-.6,2.93-1.68,3.95-.67,.62-1.36,.94-2.07,.94Zm-4.53-7.99h0c-.2,.19-.44,.46-.45,.69-.01,.49,.79,1.31,1.56,2.1,.23,.24,.47,.48,.71,.74,.24,.26,.47,.51,.69,.76,.74,.82,1.5,1.67,1.99,1.7,.24,0,.52-.21,.72-.4,.67-.63,1.05-1.52,1.05-2.48,0-.99-.39-1.96-1.1-2.71-1.45-1.54-3.77-1.72-5.18-.39Z"/><path class="d" d="M97.25,95.06c2.5-1.32,4.56-2.63,6.28-3.77,2.86-1.91,4.93-3.28,7.47-3.28h13v2h-13c-1.94,0-3.7,1.17-6.36,2.95-1.71,1.14-3.81,2.54-6.49,3.94l-.9-1.83Z"/><path class="c" d="M84.86,73.3c-.3-.52-.59-1.04-.88-1.56-1.85-3.35-3.44-6.24-6.28-6.24h-19.05c-4.5,0-9.33-3.02-9.33-7.52,0-2.31,1.83-3.09,2.79-3.18,.16,0,11.89-.62,15.77-1.22,6.86-1.06,11.13-1.58,13.07-1.58h16.37c3.58,0,6.72,1.92,9.49,3.61,2.01,1.23,3.91,2.39,5.39,2.39h11.79v2h-11.79c-2.05,0-4.18-1.3-6.44-2.68-2.54-1.55-5.42-3.32-8.44-3.32h-16.37c-1.81,0-6.1,.52-12.77,1.55-3.97,.61-15.44,1.22-15.93,1.24-.24,.03-.93,.22-.93,1.18,0,3.25,3.86,5.52,7.33,5.52h19.05c4.02,0,6.06,3.7,8.04,7.27,.28,.51,.57,1.03,.86,1.53l-1.73,1Z"/><path class="e" d="M64.07,49.98c1.32-.12,2.44-.24,3.2-.36h.02c-3.38-2.64-9.29-3.62-13.61-3.62-6.64,0-10.91,1.3-14.68,2.45-2.73,.83-5.09,1.55-7.79,1.55h-11.21v2h11.21c3,0,5.61-.79,8.37-1.64,3.64-1.11,7.76-2.36,14.1-2.36,3.41,0,7.47,.63,10.39,1.98Z"/><path class="c" d="M34.35,83.64c.59-.38,1.21-.7,1.86-.94-.65-.75-2.58-2.71-5.23-2.71h-10.98v2h10.98c1.48,0,2.71,.99,3.37,1.64Z"/></g></svg>