<?xml version="1.0" encoding="UTF-8"?><svg xmlns="http://www.w3.org/2000/svg" viewBox="0 0 144 144"><defs><style>.c{fill:#007ac3;}.d{fill:#e5202e;}.e{fill:#85bc20;}</style></defs><g id="a"><path class="c" d="M25.42,19.76C51.91-3.91,92.09-3.91,118.58,19.76l1.42-1.42C92.72-6.11,51.28-6.11,24,18.34l1.42,1.42Z"/><path class="e" d="M19.76,118.58C-3.91,92.09-3.91,51.91,19.76,25.42l-1.42-1.42c-24.45,27.28-24.45,68.72,0,96l1.42-1.42Z"/><path d="M118.58,124.24c-26.5,23.67-66.67,23.67-93.17,0l-1.42,1.42c27.28,24.45,68.72,24.45,96,0l-1.42-1.42Z"/><path class="d" d="M124.24,25.42c23.67,26.5,23.67,66.67,0,93.17l1.42,1.42c24.45-27.28,24.45-68.72,0-96l-1.42,1.42Z"/></g><g id="b"><path d="M72,70c-7.72,0-14-6.28-14-14s6.28-14,14-14,14,6.28,14,14-6.28,14-14,14Zm0-26c-6.62,0-12,5.38-12,12s5.38,12,12,12,12-5.38,12-12-5.38-12-12-12Z"/><path class="c" d="M100,76c-4.41,0-8-3.59-8-8s3.59-8,8-8,8,3.59,8,8-3.59,8-8,8Zm0-14c-3.31,0-6,2.69-6,6s2.69,6,6,6,6-2.69,6-6-2.69-6-6-6Z"/><path class="d" d="M100,53.99c-4.41,0-8-3.59-8-8s3.59-8,8-8,8,3.59,8,8-3.59,8-8,8Zm0-14c-3.31,0-6,2.69-6,6s2.69,6,6,6,6-2.69,6-6-2.69-6-6-6Z"/><path class="e" d="M84,36c-4.41,0-8-3.59-8-8s3.59-8,8-8,8,3.59,8,8-3.59,8-8,8Zm0-14c-3.31,0-6,2.69-6,6s2.69,6,6,6,6-2.69,6-6-2.69-6-6-6Z"/><path class="d" d="M44,76c-4.41,0-8-3.59-8-8s3.59-8,8-8,8,3.59,8,8-3.59,8-8,8Zm0-14c-3.31,0-6,2.69-6,6s2.69,6,6,6,6-2.69,6-6-2.69-6-6-6Z"/><path class="c" d="M44,53.99c-4.41,0-8-3.59-8-8s3.59-8,8-8,8,3.59,8,8-3.59,8-8,8Zm0-14c-3.31,0-6,2.69-6,6s2.69,6,6,6,6-2.69,6-6-2.69-6-6-6Z"/><path d="M60,36c-4.41,0-8-3.59-8-8s3.59-8,8-8,8,3.59,8,8-3.59,8-8,8Zm0-14c-3.31,0-6,2.69-6,6s2.69,6,6,6,6-2.69,6-6-2.69-6-6-6Z"/><path d="M80,116v-38h-24v2h8v36h-8v2h30v-2h-6Zm-14,0v-36h12v36h-12Z"/></g></svg>