<svg width="73" height="59" viewBox="0 0 73 59" fill="none" xmlns="http://www.w3.org/2000/svg">
<path d="M56.373 8.03699C58.091 8.03699 59.6691 8.98102 60.4821 10.494L70.0941 30.872" stroke="black" stroke-width="3.2" stroke-miterlimit="10" stroke-linecap="round" stroke-linejoin="round"/>
<path d="M3.2998 30.872L12.4748 10.558C13.2758 9.00898 14.8748 8.03699 16.6178 8.03699" stroke="black" stroke-width="3.2" stroke-miterlimit="10" stroke-linecap="round" stroke-linejoin="round"/>
<path d="M18.9302 9.79492V2.12793H53.9392V9.79492" stroke="black" stroke-width="3.2" stroke-miterlimit="10" stroke-linecap="round" stroke-linejoin="round"/>
<path d="M15.9941 18.885V11.218H56.8752V18.885" stroke="black" stroke-width="3.2" stroke-miterlimit="10" stroke-linecap="round" stroke-linejoin="round"/>
<path d="M12.397 29.202V20.202H60.544V29.202" stroke="black" stroke-width="3.2" stroke-miterlimit="10" stroke-linecap="round" stroke-linejoin="round"/>
<path d="M2.1958 33.3381V53.4241C2.1958 55.2681 3.6918 56.764 5.5358 56.764H67.4058C69.2518 56.764 70.7458 55.2681 70.7458 53.4241V33.3381C70.7458 31.4941 69.2518 29.998 67.4058 29.998H50.8658C50.0608 29.998 49.2898 30.3191 48.7238 30.8911L45.4968 34.1461C44.9298 34.7181 44.1578 35.0391 43.3538 35.0391H29.5878C28.7838 35.0391 28.0118 34.7181 27.4448 34.1461L24.2198 30.8911C23.6518 30.3191 22.8808 29.998 22.0758 29.998H5.5358C3.6918 29.998 2.1958 31.4941 2.1958 33.3381Z" stroke="black" stroke-width="3.2" stroke-miterlimit="10" stroke-linecap="round" stroke-linejoin="round"/>
<path d="M41.657 48.007H30.697C29.103 48.007 27.811 46.713 27.811 45.119C27.811 43.524 29.103 42.2319 30.697 42.2319H41.657C43.252 42.2319 44.545 43.524 44.545 45.119C44.545 46.713 43.252 48.007 41.657 48.007Z" stroke="black" stroke-width="3.2" stroke-miterlimit="10" stroke-linecap="round" stroke-linejoin="round"/>
</svg>
