<svg width="81" height="80" viewBox="0 0 81 80" fill="none" xmlns="http://www.w3.org/2000/svg">
<path d="M80.8613 40C80.8613 62.092 62.952 80 40.8613 80C18.7707 80 0.861328 62.092 0.861328 40C0.861328 17.9093 18.7707 0 40.8613 0C62.952 0 80.8613 17.9093 80.8613 40Z" fill="#ECF0F1"/>
<path d="M54.7969 25.0092C55.9995 25.0092 57.1035 25.6705 57.6742 26.7305L64.4049 40.9985" stroke="#1C2D47" stroke-width="2.036" stroke-miterlimit="10" stroke-linecap="round" stroke-linejoin="round"/>
<path d="M17.6348 40.9985L24.0588 26.7745C24.6201 25.6905 25.7401 25.0092 26.9601 25.0092" stroke="#1C2D47" stroke-width="2.036" stroke-miterlimit="10" stroke-linecap="round" stroke-linejoin="round"/>
<path d="M28.5781 26.2402V20.8722H53.0928V26.2402" stroke="#1C2D47" stroke-width="2.036" stroke-miterlimit="10" stroke-linecap="round" stroke-linejoin="round"/>
<path d="M26.5234 32.6055V27.2375H55.1501V32.6055" stroke="#1C2D47" stroke-width="2.036" stroke-miterlimit="10" stroke-linecap="round" stroke-linejoin="round"/>
<path d="M24.0039 39.8291V33.5264H57.7172V39.8291" stroke="#1C2D47" stroke-width="2.036" stroke-miterlimit="10" stroke-linecap="round" stroke-linejoin="round"/>
<path d="M16.8613 42.7253V56.7906C16.8613 58.0813 17.908 59.1279 19.2 59.1279H62.5227C63.8147 59.1279 64.8613 58.0813 64.8613 56.7906V42.7253C64.8613 41.4333 63.8147 40.3866 62.5227 40.3866H50.9427C50.3787 40.3866 49.8373 40.6119 49.4413 41.0119L47.1813 43.2906C46.7853 43.6919 46.244 43.9173 45.68 43.9173H36.0427C35.4787 43.9173 34.9387 43.6919 34.5413 43.2906L32.2827 41.0119C31.8867 40.6119 31.3453 40.3866 30.7813 40.3866H19.2C17.908 40.3866 16.8613 41.4333 16.8613 42.7253Z" stroke="#1C2D47" stroke-width="2.036" stroke-miterlimit="10" stroke-linecap="round" stroke-linejoin="round"/>
<path d="M44.4915 52.9966H36.8182C35.7009 52.9966 34.7969 52.0912 34.7969 50.9752C34.7969 49.8579 35.7009 48.9526 36.8182 48.9526H44.4915C45.6089 48.9526 46.5142 49.8579 46.5142 50.9752C46.5142 52.0912 45.6089 52.9966 44.4915 52.9966Z" stroke="#1C2D47" stroke-width="2.036" stroke-miterlimit="10" stroke-linecap="round" stroke-linejoin="round"/>
</svg>
