<svg width="71" height="64" viewBox="0 0 71 64" fill="none" xmlns="http://www.w3.org/2000/svg">
<path d="M2.30078 38.698H68.9678" stroke="#101010" stroke-width="3.2" stroke-miterlimit="10"/>
<path d="M22.7632 61.9861H46.6192" stroke="#101010" stroke-width="3.2" stroke-miterlimit="10" stroke-linecap="round" stroke-linejoin="round"/>
<path d="M39.0278 50.792V54.396C39.0278 58.588 42.4268 61.986 46.6188 61.986" stroke="#101010" stroke-width="3.2" stroke-miterlimit="10" stroke-linecap="round" stroke-linejoin="round"/>
<path d="M30.3532 50.792V54.396C30.3532 58.588 26.9542 61.986 22.7622 61.986" stroke="#101010" stroke-width="3.2" stroke-miterlimit="10" stroke-linecap="round" stroke-linejoin="round"/>
<path d="M37.1099 44.816C37.1099 45.928 36.2089 46.829 35.0969 46.829C33.9859 46.829 33.085 45.928 33.085 44.816C33.085 43.704 33.9859 42.802 35.0969 42.802C36.2089 42.802 37.1099 43.704 37.1099 44.816Z" fill="#101010"/>
<path d="M63.3918 50.792H7.87573C4.79773 50.792 2.30176 48.296 2.30176 45.216V7.90999C2.30176 4.83199 4.79773 2.33398 7.87573 2.33398H63.3918C66.4718 2.33398 68.9678 4.83199 68.9678 7.90999V45.216C68.9678 48.296 66.4718 50.792 63.3918 50.792Z" stroke="#101010" stroke-width="3.2" stroke-miterlimit="10"/>
</svg>
