<svg width="63" height="47" viewBox="0 0 63 47" fill="none" xmlns="http://www.w3.org/2000/svg">
<path fill-rule="evenodd" clip-rule="evenodd" d="M53.4787 42.4026C55.6978 42.4026 57.5038 40.6112 57.5038 38.4086H57.4908V7.36565C57.4908 5.1638 55.6855 3.37246 53.4665 3.37246H7.68617C5.46716 3.37246 3.66186 5.1638 3.66186 7.36565V38.4086C3.66186 40.6112 5.46716 42.4026 7.68617 42.4026H53.4787ZM7.68617 0H53.4787C57.5668 0 60.8895 3.31001 60.8772 7.36565V38.4086C60.8772 42.465 57.5537 45.7621 53.4665 45.7621H7.68617C3.59892 45.7621 0.275391 42.465 0.275391 38.4086V7.35346C0.275391 3.29706 3.59892 0 7.68617 0ZM53.3156 9.30702L38.4948 22.4953L53.3785 36.5175C54.0555 37.1519 54.0808 38.222 53.4414 38.8938C53.103 39.2426 52.6639 39.4162 52.2126 39.4162C51.7989 39.4162 51.3721 39.2669 51.0467 38.9562L35.9741 24.7474L31.7487 28.5052C31.4355 28.7908 31.0218 28.9401 30.6204 28.9401C30.2189 28.9401 29.8175 28.8038 29.4921 28.5174L25.3787 24.8723L10.2194 38.944C9.89321 39.2426 9.4795 39.3919 9.06578 39.3919C8.61446 39.3919 8.16313 39.2045 7.82464 38.8564C7.1845 38.1725 7.22211 37.1146 7.89986 36.4802L22.8335 22.6072L7.83692 9.30702C7.1346 8.68478 7.07243 7.62765 7.69876 6.93C8.32586 6.23388 9.39123 6.17142 10.0943 6.79367L26.3197 21.2013C26.4195 21.2759 26.507 21.3506 26.5953 21.4381C26.5953 21.4503 26.6076 21.4633 26.6206 21.4755L30.6081 25.0086L51.0467 6.80586C51.7482 6.18361 52.8143 6.24606 53.4414 6.93C54.0685 7.62765 54.0056 8.68478 53.3156 9.30702Z" fill="white"/>
<mask id="mask0_15_20894" style="mask-type:alpha" maskUnits="userSpaceOnUse" x="0" y="0" width="61" height="46">
<path fill-rule="evenodd" clip-rule="evenodd" d="M53.4787 42.4026C55.6978 42.4026 57.5038 40.6112 57.5038 38.4086H57.4908V7.36565C57.4908 5.1638 55.6855 3.37246 53.4665 3.37246H7.68617C5.46716 3.37246 3.66186 5.1638 3.66186 7.36565V38.4086C3.66186 40.6112 5.46716 42.4026 7.68617 42.4026H53.4787ZM7.68617 0H53.4787C57.5668 0 60.8895 3.31001 60.8772 7.36565V38.4086C60.8772 42.465 57.5537 45.7621 53.4665 45.7621H7.68617C3.59892 45.7621 0.275391 42.465 0.275391 38.4086V7.35346C0.275391 3.29706 3.59892 0 7.68617 0ZM53.3156 9.30702L38.4948 22.4953L53.3785 36.5175C54.0555 37.1519 54.0808 38.222 53.4414 38.8938C53.103 39.2426 52.6639 39.4162 52.2126 39.4162C51.7989 39.4162 51.3721 39.2669 51.0467 38.9562L35.9741 24.7474L31.7487 28.5052C31.4355 28.7908 31.0218 28.9401 30.6204 28.9401C30.2189 28.9401 29.8175 28.8038 29.4921 28.5174L25.3787 24.8723L10.2194 38.944C9.89321 39.2426 9.4795 39.3919 9.06578 39.3919C8.61446 39.3919 8.16313 39.2045 7.82464 38.8564C7.1845 38.1725 7.22211 37.1146 7.89986 36.4802L22.8335 22.6072L7.83692 9.30702C7.1346 8.68478 7.07243 7.62765 7.69876 6.93C8.32586 6.23388 9.39123 6.17142 10.0943 6.79367L26.3197 21.2013C26.4195 21.2759 26.507 21.3506 26.5953 21.4381C26.5953 21.4503 26.6076 21.4633 26.6206 21.4755L30.6081 25.0086L51.0467 6.80586C51.7482 6.18361 52.8143 6.24606 53.4414 6.93C54.0685 7.62765 54.0056 8.68478 53.3156 9.30702Z" fill="white"/>
</mask>
<g mask="url(#mask0_15_20894)">
<ellipse cx="31.4895" cy="23.2295" rx="31.2141" ry="23.2295" fill="#00AEC7"/>
<rect x="0.275391" width="62.4281" height="46.459" fill="#00AEC7"/>
</g>
</svg>
