<svg width="77" height="71" viewBox="0 0 77 71" fill="none" xmlns="http://www.w3.org/2000/svg">
<path d="M54.4261 39.0509V63.131C54.4261 66.219 51.9231 68.7219 48.8371 68.7219H8.02209C4.93509 68.7219 2.43311 66.219 2.43311 63.131V7.64395C2.43311 4.55795 4.93509 2.05493 8.02209 2.05493H48.8371C51.9231 2.05493 54.4261 4.55795 54.4261 7.64395V22.9039" stroke="black" stroke-width="3.2" stroke-miterlimit="10" stroke-linecap="round" stroke-linejoin="round"/>
<path d="M13.457 19.655H43.402" stroke="black" stroke-width="3.2" stroke-miterlimit="10" stroke-linecap="round" stroke-linejoin="round"/>
<path d="M13.457 30.144H40.735" stroke="black" stroke-width="3.2" stroke-miterlimit="10" stroke-linecap="round" stroke-linejoin="round"/>
<path d="M13.457 40.6321H31.5941" stroke="black" stroke-width="3.2" stroke-miterlimit="10" stroke-linecap="round" stroke-linejoin="round"/>
<path d="M13.457 51.1211H28.4291" stroke="black" stroke-width="3.2" stroke-miterlimit="10" stroke-linecap="round" stroke-linejoin="round"/>
<path d="M35.3389 51.1211L45.0669 47.688L73.3619 19.3931C75.3269 17.4261 75.3269 14.24 73.3619 12.274C71.3949 10.309 68.2089 10.309 66.2429 12.274L38.0729 40.6331L35.3389 51.1211Z" stroke="black" stroke-width="3.2" stroke-miterlimit="10" stroke-linecap="round" stroke-linejoin="round"/>
</svg>
