<svg width="84" height="72" viewBox="0 0 84 72" fill="none" xmlns="http://www.w3.org/2000/svg">
<path d="M50.7348 62.38H8.26485C4.71585 62.38 1.83984 59.5 1.83984 55.95V8.5C1.83984 4.95 4.71585 2.06995 8.26485 2.06995H65.4008C68.9508 2.06995 71.8268 4.95 71.8268 8.5V38.62" stroke="black" stroke-width="3.2" stroke-miterlimit="10" stroke-linecap="round" stroke-linejoin="round"/>
<path d="M1.83887 19.75H71.8269" stroke="black" stroke-width="3.2" stroke-miterlimit="10" stroke-linecap="round" stroke-linejoin="round"/>
<path d="M14.5378 11.61C14.5378 13.46 13.0398 14.95 11.1918 14.95C9.34176 14.95 7.84375 13.46 7.84375 11.61C7.84375 9.75999 9.34176 8.26001 11.1918 8.26001C13.0398 8.26001 14.5378 9.75999 14.5378 11.61Z" stroke="black" stroke-width="3.2" stroke-miterlimit="10" stroke-linecap="round" stroke-linejoin="round"/>
<path d="M27.133 11.61C27.133 13.46 25.634 14.95 23.786 14.95C21.937 14.95 20.438 13.46 20.438 11.61C20.438 9.75999 21.937 8.26001 23.786 8.26001C25.634 8.26001 27.133 9.75999 27.133 11.61Z" stroke="black" stroke-width="3.2" stroke-miterlimit="10" stroke-linecap="round" stroke-linejoin="round"/>
<path d="M39.7282 11.61C39.7282 13.46 38.2292 14.95 36.3812 14.95C34.5322 14.95 33.0332 13.46 33.0332 11.61C33.0332 9.75999 34.5322 8.26001 36.3812 8.26001C38.2292 8.26001 39.7282 9.75999 39.7282 11.61Z" stroke="black" stroke-width="3.2" stroke-miterlimit="10" stroke-linecap="round" stroke-linejoin="round"/>
<path d="M81.8399 54.54C81.8399 63.23 74.7919 70.28 66.0979 70.28C57.4039 70.28 50.3569 63.23 50.3569 54.54C50.3569 45.84 57.4039 38.79 66.0979 38.79C74.7919 38.79 81.8399 45.84 81.8399 54.54Z" stroke="black" stroke-width="3.2" stroke-miterlimit="10" stroke-linecap="round" stroke-linejoin="round"/>
<path d="M60.041 55.12L64.768 59.33L73.021 50.01" stroke="black" stroke-width="3.2" stroke-miterlimit="10" stroke-linecap="round" stroke-linejoin="round"/>
</svg>
