<svg width="81" height="80" viewBox="0 0 81 80" fill="none" xmlns="http://www.w3.org/2000/svg">
<path d="M80.8613 40C80.8613 62.092 62.9533 80 40.8613 80C18.7707 80 0.861328 62.092 0.861328 40C0.861328 17.908 18.7707 0 40.8613 0C62.9533 0 80.8613 17.908 80.8613 40Z" fill="#ECF0F1"/>
<path d="M48.5646 57.0571H22.05C19.922 57.0571 18.1953 55.3305 18.1953 53.2011V24.7265C18.1953 22.5971 19.922 20.8718 22.05 20.8718H56.3326C58.462 20.8718 60.1886 22.5971 60.1886 24.7265V43.5798" stroke="#0033A0" stroke-width="2.036" stroke-miterlimit="10" stroke-linecap="round" stroke-linejoin="round"/>
<path d="M18.1953 31.4819H60.1886" stroke="#0033A0" stroke-width="2.036" stroke-miterlimit="10" stroke-linecap="round" stroke-linejoin="round"/>
<path d="M26.7969 26.5C26.7969 27.8811 25.6767 29 24.296 29C22.917 29 21.7969 27.8811 21.7969 26.5C21.7969 25.1189 22.917 24 24.296 24C25.6767 24 26.7969 25.1189 26.7969 26.5Z" fill="#0033A0"/>
<path d="M33.7695 26.5C33.7695 27.8811 32.6494 29 31.2687 29C29.888 29 28.7695 27.8811 28.7695 26.5C28.7695 25.1189 29.888 24 31.2687 24C32.6494 24 33.7695 25.1189 33.7695 26.5Z" fill="#0033A0"/>
<path d="M40.7695 26.5C40.7695 27.8811 39.6507 29 38.2695 29C36.8884 29 35.7695 27.8811 35.7695 26.5C35.7695 25.1189 36.8884 24 38.2695 24C39.6507 24 40.7695 25.1189 40.7695 26.5Z" fill="#0033A0"/>
<path d="M66.194 52.3506C66.194 57.5666 61.966 61.7959 56.75 61.7959C51.534 61.7959 47.3047 57.5666 47.3047 52.3506C47.3047 47.1346 51.534 42.9052 56.75 42.9052C61.966 42.9052 66.194 47.1346 66.194 52.3506Z" stroke="#0033A0" stroke-width="2.036" stroke-miterlimit="10" stroke-linecap="round" stroke-linejoin="round"/>
<path d="M53.1582 52.7832L55.3635 54.7485L59.2155 50.4005" stroke="#0033A0" stroke-width="2.036" stroke-miterlimit="10" stroke-linecap="round" stroke-linejoin="round"/>
</svg>
